<?xml version="1.0" standalone="no"?>
<!DOCTYPE svg PUBLIC "-//W3C//DTD SVG 1.1//EN" "http://www.w3.org/Graphics/SVG/1.1/DTD/svg11.dtd" >
<svg xmlns="http://www.w3.org/2000/svg" xmlns:xlink="http://www.w3.org/1999/xlink" version="1.1">
<metadata>
Created by FontForge 20170731 at Fri Jun 18 14:34:54 2010
 By ,,,
(c)2010 Kai Bernau and Commercial Type.
</metadata>
<defs>
<font id="LyonDisplay-Regular" horiz-adv-x="400" >
  <font-face 
    font-family="Lyon Display Regular"
    font-weight="400"
    font-stretch="normal"
    units-per-em="1000"
    panose-1="2 0 6 3 8 0 0 2 0 4"
    ascent="760"
    descent="-240"
    x-height="473"
    cap-height="664"
    bbox="-161 -258 1150 1082"
    underline-thickness="50"
    underline-position="-200"
    unicode-range="U+0020-FB04"
  />
<missing-glyph horiz-adv-x="161" 
 />
    <glyph glyph-name="f_f" unicode="ff" horiz-adv-x="603" 
d="M376 42v390h-193v-390l72 -20v-22h-226v22l60 20v384h-72v28l74 21q13 104 78 174.5t163 70.5q68 0 109 -49q63 76 146 76q50 0 89 -26t39 -61q0 -31 -23 -43.5t-57 -8.5l-19 86q-25 20 -57 20q-38 0 -64.5 -37t-25.5 -116l1 -88h133v-41h-133v-390l75 -20v-22h-228v22z
M296 684q-49 0 -81.5 -44t-32.5 -143v-24h194q0 71 24 129q-31 82 -104 82z" />
    <glyph glyph-name="f_i" unicode="fi" horiz-adv-x="552" 
d="M318 0v22l58 20v390h-193v-390l72 -20v-22h-226v22l60 20v384h-72v28l73 21q3 114 73 193t172 79q53 0 91.5 -28.5t38.5 -63.5q0 -23 -15.5 -38t-41.5 -15q-21 0 -25 4l-21 77q-18 27 -66 27q-50 0 -82 -44.5t-32 -143.5v-49h250l38 13v-444l69 -21v-21h-221z" />
    <glyph glyph-name="f_l" unicode="fl" horiz-adv-x="556" 
d="M318 0v22l58 20v390h-193v-390l72 -20v-22h-226v22l60 20v384h-72v28l73 21q3 114 72 193t171 79q48 0 85 -25l52 24v-704l69 -20v-22h-221zM296 710q-50 0 -82 -44.5t-32 -141.5v-51h194v192q-30 45 -80 45z" />
    <glyph glyph-name="f_f_i" unicode="ffi" horiz-adv-x="839" 
d="M318 0v22l58 20v390h-193v-390l72 -20v-22h-226v22l60 20v384h-72v28l74 21q13 103 78.5 174t162.5 71q71 0 114 -55q71 82 176 82q54 0 92.5 -28.5t38.5 -63.5q0 -23 -15.5 -38t-42.5 -15q-20 0 -24 4l-22 78q-17 26 -65 26q-50 0 -82 -44.5t-32 -143.5v-49h250l38 13
v-444l68 -20v-22h-219v22l57 20v390h-194v-390l72 -20v-22h-224zM296 684q-49 0 -81.5 -44t-32.5 -143v-24h195q0 61 22 116q-27 95 -103 95z" />
    <glyph glyph-name="f_f_l" unicode="ffl" horiz-adv-x="844" 
d="M318 0v22l58 20v390h-193v-390l72 -20v-22h-226v22l60 20v384h-72v28l74 21q13 104 78 174.5t163 70.5q71 0 114 -55q71 82 174 82q48 0 86 -25l52 24v-704l69 -20v-22h-220v22l57 20v390h-194v-390l72 -20v-22h-224zM470 524v-51h194v191q-32 46 -81 46
q-50 0 -81.5 -44.5t-31.5 -141.5zM296 684q-49 0 -81.5 -44t-32.5 -143v-24h194q0 59 23 116q-27 95 -103 95z" />
    <glyph glyph-name="f_b" unicode="fb" horiz-adv-x="843" 
d="M527 -16q-62 0 -114 21l-37 15v645q-30 45 -80 45t-82 -44.5t-32 -141.5v-51h123v-41h-122v-390l74 -20v-22h-228v22l60 20v384h-72v28l72 21q2 112 71.5 192t172.5 80q48 0 85 -25l52 24v-339q67 79 155 79q76 0 130 -56.5t54 -167.5q0 -110 -88 -194t-194 -84zM571 428
q-55 0 -101 -43v-318q3 -4 13 -12.5t35.5 -19t54.5 -10.5q59 0 100 52t41 153q0 84 -42.5 141t-100.5 57z" />
    <glyph glyph-name="f_f_b" unicode="ffb" horiz-adv-x="1130" 
d="M318 0v22l58 20v390h-193v-390l72 -20v-22h-226v22l60 20v384h-72v28l74 21q13 104 78 174.5t163 70.5q71 0 114 -55q72 82 174 82q48 0 86 -25l52 24v-339q67 79 155 79q76 0 129.5 -56.5t53.5 -167.5q0 -110 -88 -194t-194 -84q-63 0 -113 21l-37 15v643q-31 47 -82 47
q-49 0 -81.5 -47t-31.5 -144v-46h124v-41h-123v-390l75 -20v-22h-227zM859 428q-55 0 -101 -43v-318q3 -4 13 -12.5t35 -19t54 -10.5q60 0 100.5 52t40.5 153q0 84 -42.5 141t-99.5 57zM296 684q-49 0 -81.5 -44t-32.5 -143v-24h194q0 60 24 116q-28 95 -104 95z" />
    <glyph glyph-name="f_f_h" unicode="ffh" horiz-adv-x="1134" 
d="M318 0v22l58 20v390h-193v-390l72 -20v-22h-226v22l60 20v384h-72v28l74 21q13 104 78 174.5t163 70.5q72 0 114 -55q71 82 174 82q48 0 86 -25l52 24v-351q87 91 170 91q67 0 99 -38t32 -129v-277l63 -21v-21h-217v22l60 20v277q-7 101 -92 101q-53 0 -115 -52v-326
l63 -20v-22h-214v22l57 20v622q-32 46 -81 46q-50 0 -81.5 -44.5t-31.5 -141.5v-51h123v-41h-123v-390l72 -20v-22h-224zM296 684q-49 0 -81.5 -44t-32.5 -143v-24h194q0 62 23 117q-28 94 -103 94z" />
    <glyph glyph-name="f_f_j" unicode="ffj" horiz-adv-x="833" 
d="M318 0v22l58 20v390h-193v-390l72 -20v-22h-226v22l60 20v384h-72v28l74 21q13 103 78.5 174t162.5 71q72 0 114 -56q72 83 176 83q54 0 92.5 -28.5t38.5 -63.5q0 -23 -15.5 -38t-42.5 -15q-20 0 -24 4l-22 78q-17 26 -65 26q-50 0 -82 -44.5t-32 -143.5v-49h249l38 13
v-454q0 -70 -7 -112.5t-28 -70.5q-48 -64 -151 -97l-6 17q60 32 78 81t21 164v418h-194v-390l75 -20v-22h-227zM296 684q-49 0 -81.5 -44t-32.5 -143v-24h195q0 57 23 115q-28 96 -104 96z" />
    <glyph glyph-name="f_f_k" unicode="ffk" horiz-adv-x="1084" 
d="M318 0v22l58 20v390h-193v-390l72 -20v-22h-226v22l60 20v384h-72v28l74 21q13 104 78 174.5t163 70.5q71 0 113 -54q71 81 175 81q48 0 86 -25l52 24v-704l63 -20v-22h-215v22l58 20v622q-32 46 -81 46q-50 0 -81.5 -44.5t-31.5 -141.5v-51h123v-41h-123v-390l72 -20
v-22h-224zM1026 -12q-30 0 -55.5 15.5t-56.5 55.5l-149 192l186 170l-66 31v21h188v-18l-65 -27l-164 -145l240 -275q-24 -20 -58 -20zM296 684q-49 0 -81.5 -44t-32.5 -143v-24h194q0 59 23 117q-26 94 -103 94z" />
    <glyph glyph-name="f_h" unicode="fh" horiz-adv-x="846" 
d="M318 0v22l58 20v623q-30 45 -80 45t-82 -44.5t-32 -141.5v-51h123v-41h-122v-390l72 -20v-22h-226v22l60 20v384h-72v28l72 21q2 112 71.5 192t172.5 80q48 0 85 -25l52 24v-351q87 91 170 91q68 0 99.5 -37.5t31.5 -129.5v-277l63 -21v-21h-211v22l54 20v277
q-7 101 -92 101q-48 0 -115 -52v-326l63 -20v-22h-215z" />
    <glyph glyph-name="f_j" unicode="fj" horiz-adv-x="546" 
d="M283 -248l-5 17q59 33 77.5 81.5t20.5 163.5v418h-193v-390l74 -20v-22h-228v22l60 20v384h-72v28l73 21q3 114 73 193t172 79q53 0 91.5 -28.5t38.5 -63.5q0 -23 -15.5 -38t-41.5 -15q-21 0 -25 4l-21 77q-20 27 -66 27q-50 0 -82 -44.5t-32 -143.5v-49h249l38 13v-454
q0 -70 -7 -112.5t-28 -70.5q-48 -64 -151 -97z" />
    <glyph glyph-name="f_k" unicode="fk" horiz-adv-x="796" 
d="M318 0v22l58 20v623q-30 45 -80 45t-82 -44.5t-32 -141.5v-51h123v-41h-122v-390l72 -20v-22h-226v22l60 20v384h-72v28l72 21q2 112 71.5 192t172.5 80q48 0 85 -25l52 24v-704l63 -20v-22h-215zM739 -12q-31 0 -56 15t-57 56l-149 192l186 170l-66 31v21h188v-18
l-65 -27l-164 -145l240 -275q-24 -20 -57 -20z" />
    <glyph glyph-name=".notdef" horiz-adv-x="161" 
 />
    <glyph glyph-name=".null" horiz-adv-x="0" 
 />
    <glyph glyph-name="nonmarkingreturn" horiz-adv-x="333" 
 />
    <glyph glyph-name="space" unicode=" " horiz-adv-x="161" 
 />
    <glyph glyph-name="exclam" unicode="!" horiz-adv-x="270" 
d="M82 697h106l-40 -503h-26zM135 -9q-27 0 -47 20t-20 47t20 47t47 20t47 -20t20 -47t-20 -47t-47 -20z" />
    <glyph glyph-name="quotedbl" unicode="&#x22;" horiz-adv-x="426" 
d="M105 478l-36 246h105l-49 -246h-20zM288 478l-36 246h105l-49 -246h-20z" />
    <glyph glyph-name="numbersign" unicode="#" horiz-adv-x="591" 
d="M85 402v39h126l27 153h37l-27 -153h157l27 153h36l-27 -153h123v-39h-130l-34 -193h120v-39h-127l-30 -170h-36l30 170h-157l-30 -170h-37l30 170h-122v39h129l34 193h-119zM241 402l-34 -193h157l34 193h-157z" />
    <glyph glyph-name="dollar" unicode="$" horiz-adv-x="542" 
d="M60 30l-5 171h25l54 -148q41 -30 105 -38l14 258l-44 14q-76 22 -108 64t-32 104q0 73 54.5 125.5t150.5 58.5l6 111h34l-6 -110q69 -3 155 -42v-158h-24l-50 137q-40 26 -83 31l-14 -241l56 -17q78 -25 113 -62t35 -96q0 -90 -69 -148.5t-157 -63.5l-6 -103h-33l6 104
q-84 4 -177 49zM303 258l-17 5l-14 -249q54 1 93.5 36.5t39.5 92.5q0 83 -102 115zM155 494q0 -44 22.5 -71t81.5 -46l13 231q-52 -4 -84.5 -35t-32.5 -79z" />
    <glyph glyph-name="percent" unicode="%" horiz-adv-x="787" 
d="M145 -50l442 680h38l-443 -680h-37zM195 577q-35 0 -54.5 -38t-19.5 -85q0 -61 24 -106t63 -45q34 0 53.5 37.5t19.5 86.5q0 63 -25 106.5t-61 43.5zM198 275q-63 0 -105.5 44.5t-42.5 114.5q0 72 46.5 121.5t107.5 49.5q67 0 108 -48.5t41 -111.5q0 -73 -45 -121.5
t-110 -48.5zM565 284q-35 0 -54.5 -38t-19.5 -85q0 -61 24 -106t63 -45q34 0 53.5 37.5t19.5 86.5q0 63 -25 106.5t-61 43.5zM568 -19q-63 0 -105.5 45t-42.5 115q0 72 46.5 122t107.5 50q67 0 108 -49t41 -113q0 -72 -45.5 -121t-109.5 -49z" />
    <glyph glyph-name="ampersand" unicode="&#x26;" horiz-adv-x="767" 
d="M745 450l-84 -22l-114 -209q-22 -38 -36 -58q47 -57 76.5 -82t59.5 -25q36 0 87 32l14 -16q-78 -85 -150 -83q-44 1 -73 22t-74 77q-101 -106 -204 -106q-105 0 -160 55.5t-55 133.5q0 59 46.5 107t125.5 95q-53 53 -73 83t-19 72q1 72 60.5 114t136.5 42q72 0 116 -31.5
t44 -84.5q0 -50 -35 -84t-121 -85q42 -42 95 -105q18 -22 46.5 -58t37.5 -48q22 37 44 80l80 163l-81 21v23h210v-23zM343 220q-40 49 -119 130q-53 -38 -75 -69t-22 -76q0 -61 43.5 -107t118.5 -46q80 0 142 58zM200 555q0 -32 16.5 -55.5t62.5 -68.5q2 -3 4 -4.5t4.5 -4
l4.5 -4.5q53 42 72 72.5t19 73.5q0 35 -26.5 62t-64.5 27t-65 -26.5t-27 -71.5z" />
    <glyph glyph-name="quotesingle" unicode="'" horiz-adv-x="243" 
d="M105 478l-36 246h105l-49 -246h-20z" />
    <glyph glyph-name="parenleft" unicode="(" horiz-adv-x="343" 
d="M331 -180h-38q-194 201 -194 453q0 253 199 459h37q-81 -111 -119.5 -216.5t-38.5 -242.5q0 -132 37.5 -238t116.5 -215z" />
    <glyph glyph-name="parenright" unicode=")" horiz-adv-x="343" 
d="M11 732h38q194 -201 194 -453q0 -254 -198 -459h-38q81 111 119.5 216.5t38.5 242.5q0 132 -37.5 238t-116.5 215z" />
    <glyph glyph-name="asterisk" unicode="*" horiz-adv-x="393" 
d="M372 518l-132 -9l14 -134l-19 -4l-48 126l-122 -55l-10 16l105 84l-89 98l12 14l112 -71l66 114l17 -6l-34 -128l129 -27z" />
    <glyph glyph-name="plus" unicode="+" horiz-adv-x="586" 
d="M530 219h-215v-218h-43v218h-216v39h216v217h43v-217h215v-39z" />
    <glyph glyph-name="comma" unicode="," horiz-adv-x="250" 
d="M56 -166l-17 21q87 62 87 125q0 27 -16.5 47.5t-46.5 28.5q-5 25 11.5 48t47.5 23q27 0 52 -27t25 -72q0 -56 -35.5 -101t-107.5 -93z" />
    <glyph glyph-name="hyphen" unicode="-" horiz-adv-x="373" 
d="M54 238v64h264v-64h-264z" />
    <glyph glyph-name="period" unicode="." horiz-adv-x="244" 
d="M123 -9q-26 0 -46 20t-20 47t20 47t46 20q28 0 47.5 -20t19.5 -47t-19.5 -47t-47.5 -20z" />
    <glyph glyph-name="slash" unicode="/" horiz-adv-x="423" 
d="M-6 -209l-33 15l407 943l34 -16z" />
    <glyph glyph-name="zero" unicode="0" horiz-adv-x="606" 
d="M289 481q-61 0 -101 -55t-40 -148q0 -63 16 -119.5t57 -99.5t101 -43q62 0 99 55t37 152q0 109 -48 183.5t-121 74.5zM307 -19q-117 0 -192 73.5t-75 193.5q0 107 79 187.5t183 80.5q118 0 191.5 -76t73.5 -191q0 -108 -77.5 -188t-182.5 -80z" />
    <glyph glyph-name="one" unicode="1" horiz-adv-x="372" 
d="M251 506v-462l102 -16v-28h-306v28l108 15v394h-117v27l209 42h4z" />
    <glyph glyph-name="two" unicode="2" horiz-adv-x="445" 
d="M205 148l-71 -71h283v-77h-379v23l40 42q118 129 145 167q46 63 46 112q0 45 -25.5 73t-67.5 28q-57 0 -104 -66l-21 13q25 56 67.5 90.5t100.5 34.5q66 0 105 -37t39 -94q0 -30 -10.5 -58t-40 -64t-45.5 -53t-62 -63z" />
    <glyph glyph-name="three" unicode="3" horiz-adv-x="417" 
d="M99 -203q-36 0 -62.5 19t-26.5 49q0 20 13.5 35.5t32.5 18.5q47 -62 76 -88q71 3 111 44.5t40 108.5q0 69 -52 110.5t-140 39.5v43l34 9q66 30 101.5 72.5t35.5 88.5q0 45 -27 71.5t-69 26.5q-59 0 -102 -65l-23 12q23 55 67 90t102 35q67 0 106 -37.5t39 -95.5
q0 -55 -33 -93.5t-89 -72.5l-30 -19v-2q69 -7 120 -52t51 -118q0 -95 -88.5 -162.5t-186.5 -67.5z" />
    <glyph glyph-name="four" unicode="4" horiz-adv-x="563" 
d="M328 -195v214h-311v35l377 457l26 -1v-425h138v-66h-138v-214h-92zM85 85h243v298z" />
    <glyph glyph-name="five" unicode="5" horiz-adv-x="377" 
d="M207 62q0 61 -34.5 115.5t-118.5 128.5l73 197h200v-89h-203l-11 -29q103 -89 145.5 -152t42.5 -139q0 -64 -25.5 -117t-72 -91.5t-89.5 -63t-99 -48.5l-10 22q31 18 46.5 27.5t50 37t53.5 52.5t35.5 65.5t16.5 83.5z" />
    <glyph glyph-name="six" unicode="6" horiz-adv-x="564" 
d="M549 678q-126 -54 -229.5 -137.5t-144.5 -186.5q30 28 68.5 44.5t72.5 16.5q89 0 143 -56.5t54 -145.5q0 -91 -66.5 -162t-167.5 -71q-98 0 -164.5 64.5t-66.5 177.5q0 71 28.5 137t76 118.5t111.5 97.5t133.5 76.5t143.5 52.5zM267 364q-58 0 -102 -42q-12 -40 -12 -82
q0 -111 41.5 -169.5t103.5 -58.5q51 0 82 41.5t31 118.5q0 87 -40.5 139.5t-103.5 52.5z" />
    <glyph glyph-name="seven" unicode="7" horiz-adv-x="492" 
d="M95 -205l-54 28l352 589h-353v91h433v-9l-302 -550z" />
    <glyph glyph-name="eight" unicode="8" horiz-adv-x="509" 
d="M40 146q0 31 11 57.5t34.5 48t43.5 36t53 34.5q3 2 5.5 3.5t4.5 2.5l-38 27q-85 60 -85 148q0 72 61 125t149 53q75 0 125.5 -43.5t50.5 -103.5q0 -39 -23 -74t-47 -54t-69 -49l27 -18q64 -43 95 -83.5t31 -95.5q0 -79 -65.5 -129.5t-148.5 -50.5q-92 0 -153.5 46.5
t-61.5 119.5zM254 284l-43 30q-79 -66 -79 -153q0 -61 37 -106t96 -45q57 0 87 32t30 75q0 77 -128 167zM153 543q0 -42 22.5 -73t69.5 -63l50 -35q72 71 72 145q0 65 -32.5 100t-76.5 35t-74.5 -29t-30.5 -80z" />
    <glyph glyph-name="nine" unicode="9" horiz-adv-x="558" 
d="M23 -183q128 53 224 134.5t135 181.5q-64 -56 -133 -56q-89 0 -145 57.5t-56 146.5q0 90 67 162t167 72q95 0 162 -67t67 -180q0 -90 -39.5 -169.5t-108 -138.5t-152.5 -101.5t-179 -67.5zM298 127q53 0 95 40q12 48 12 88q0 113 -39 170.5t-98 57.5q-53 0 -85 -43
t-32 -120q0 -87 42 -140t105 -53z" />
    <glyph glyph-name="colon" unicode=":" horiz-adv-x="247" 
d="M125 -9q-26 0 -46 20t-20 47t20 47t46 20q27 0 47 -20t20 -47t-20 -47t-47 -20zM125 340q-27 0 -46.5 20t-19.5 47q0 26 19.5 46t46.5 20t47 -20t20 -46q0 -27 -20 -47t-47 -20z" />
    <glyph glyph-name="semicolon" unicode=";" horiz-adv-x="250" 
d="M56 -166l-16 21q87 62 87 125q0 27 -17 47.5t-46 28.5q-6 25 10.5 48t47.5 23q27 0 52 -27t25 -72q0 -56 -35.5 -101t-107.5 -93zM130 340q-27 0 -46.5 20t-19.5 47q0 26 19.5 46t46.5 20t47 -20t20 -46q0 -27 -20 -47t-47 -20z" />
    <glyph glyph-name="less" unicode="&#x3c;" horiz-adv-x="588" 
d="M529 431l-423 -195l423 -194v-43l-472 220v35l472 220v-43z" />
    <glyph glyph-name="equal" unicode="=" horiz-adv-x="586" 
d="M530 299h-474v39h474v-39zM530 158h-474v39h474v-39z" />
    <glyph glyph-name="greater" unicode="&#x3e;" horiz-adv-x="588" 
d="M58 41l423 195l-423 194v44l472 -221v-35l-472 -219v42z" />
    <glyph glyph-name="question" unicode="?" horiz-adv-x="360" 
d="M70 592v106l32 -7q82 -18 157 -86t75 -157q0 -94 -105 -131l-83 -30l4 -93h-36l-24 166l123 40q45 15 65.5 32.5t20.5 40.5q0 38 -52.5 71.5t-136.5 42.5zM132 -9q-27 0 -47 20t-20 47t20 47t47 20t47 -20t20 -47t-20 -47t-47 -20z" />
    <glyph glyph-name="at" unicode="@" horiz-adv-x="936" 
d="M508 158l12 40h-2l-42 -59q-89 -121 -157 -121q-37 0 -57 26t-20 66q0 84 54 170t126.5 137.5t129.5 51.5q30 0 64 -24l11 36h64l-99 -329q-31 -105 38 -105q26 0 58 16.5t63.5 47.5t52.5 87t21 124q1 129 -88 218.5t-223 89.5q-72 0 -142 -31t-124.5 -84.5t-88 -132
t-33.5 -167.5q0 -114 47 -196.5t125.5 -122t177.5 -39.5q69 0 144 28v-17q-5 -3 -25.5 -11t-66 -17.5t-91.5 -9.5q-75 0 -141.5 20t-122.5 60.5t-88.5 110.5t-32.5 162q0 128 71.5 239t182.5 173.5t228 62.5q163 0 258 -93t95 -229q0 -71 -29 -133t-73 -101.5t-93.5 -62
t-92.5 -22.5q-60 0 -86.5 36t-4.5 105zM372 86q39 0 104 89.5t88 163.5l19 60q-30 38 -59 38q-61 0 -123.5 -101t-62.5 -201q0 -49 34 -49z" />
    <glyph glyph-name="A" unicode="A" horiz-adv-x="669" 
d="M-8 0v23l74 19l231 627l32 7l39 8l236 -643l73 -18v-23h-265v23l79 18l-68 188h-246l-65 -183l116 -23v-23h-236zM299 574l-105 -296h212l-106 296h-1z" />
    <glyph glyph-name="B" unicode="B" horiz-adv-x="610" 
d="M36 0v23l77 19v579l-77 20v23h232q140 0 198.5 -36t58.5 -107q0 -66 -50 -104.5t-131 -52.5v-2q98 -5 164 -50t66 -128q0 -89 -75 -137.5t-214 -47.5zM312 343h-93v-278q38 -38 101 -38q67 0 104 37t37 106q0 71 -45 119t-104 54zM219 639v-270q201 5 201 139
q0 65 -51.5 98.5t-149.5 32.5z" />
    <glyph glyph-name="C" unicode="C" horiz-adv-x="717" 
d="M393 -24q-85 0 -153 29.5t-109 78t-62 106.5t-21 120q0 157 112.5 264t269.5 107q113 0 210 -53l5 -171h-27l-52 134q-75 56 -162 56q-101 0 -168.5 -85t-67.5 -215q0 -162 74 -249.5t184 -87.5q78 0 143 55l76 148h28l-28 -171q-130 -66 -252 -66z" />
    <glyph glyph-name="D" unicode="D" horiz-adv-x="757" 
d="M219 639v-574q35 -38 125 -36q116 2 185 87.5t69 211.5q0 158 -109.5 240t-269.5 71zM36 0v24l77 18v578l-77 21v23l297 4q167 -8 272 -92t105 -229q0 -165 -123.5 -258.5t-322.5 -91.5z" />
    <glyph glyph-name="E" unicode="E" horiz-adv-x="603" 
d="M352 326h-133v-266q18 -22 50 -25h177l101 165h27l-51 -200h-487v23l77 19v577l-77 22v23h425l73 4v-180h-27l-53 142h-235v-269h133l32 95h24v-219h-27z" />
    <glyph glyph-name="F" unicode="F" horiz-adv-x="563" 
d="M352 323h-133v-281l102 -14v-28h-285v24l77 18v577l-77 22v23h420l77 4v-180h-27l-53 142h-234v-272h133l34 96h23v-221h-24z" />
    <glyph glyph-name="G" unicode="G" horiz-adv-x="735" 
d="M407 -24q-89 0 -158.5 28.5t-112 76.5t-64 107.5t-21.5 125.5q0 97 54.5 181.5t146.5 135t197 50.5q111 0 203 -53l1 -166h-24l-59 137q-62 44 -133 44q-118 0 -190 -85.5t-72 -225.5q0 -156 77.5 -235.5t189.5 -79.5q66 0 114 21v198l-113 16v28h263v-25l-46 -12v-195
l-32 -16q-102 -56 -221 -56z" />
    <glyph glyph-name="H" unicode="H" horiz-adv-x="763" 
d="M462 0v23l82 19v286h-325v-286l82 -19v-23h-265v23l77 19v578l-77 21v23h265v-23l-82 -21v-259h325v259l-82 21v23h264v-23l-77 -21v-578l77 -19v-23h-264z" />
    <glyph glyph-name="I" unicode="I" horiz-adv-x="332" 
d="M36 0v24l77 18v578l-77 21v23h260v-23l-77 -21v-578l77 -19v-23h-260z" />
    <glyph glyph-name="J" unicode="J" horiz-adv-x="341" 
d="M228 620v-565q0 -120 -48.5 -189t-174.5 -89l-6 23q73 27 98.5 81t25.5 148v591l-87 21v23h269v-23z" />
    <glyph glyph-name="K" unicode="K" horiz-adv-x="667" 
d="M36 0v23l77 19v578l-77 21v23h265v-23l-82 -21v-578l82 -19v-23h-265zM501 0l-269 336v4l270 280l-91 21v23h216v-23l-75 -21l-233 -233l285 -349l62 -15v-23h-165z" />
    <glyph glyph-name="L" unicode="L" horiz-adv-x="590" 
d="M219 60q18 -23 51 -24h176l100 195h29l-48 -231h-491v24l77 18v577l-77 22v23h274v-23l-91 -21v-560z" />
    <glyph glyph-name="M" unicode="M" horiz-adv-x="886" 
d="M31 0v23l77 19l24 574l-76 25v23h197l202 -478l183 465l5 13h189v-23l-78 -20l23 -579l78 -19v-23h-280v23l97 19l-17 556l-193 -493l-29 -75h-19l-29 75l-214 491l-19 -551l110 -21v-24h-231z" />
    <glyph glyph-name="N" unicode="N" horiz-adv-x="723" 
d="M622 -10l-28 -1l-439 566l1 -508l89 -23v-24h-204v24l73 21v551q-24 27 -67 40l-17 6v22h173l376 -487l-1 441l-88 22v24h203v-24l-73 -21v-506z" />
    <glyph glyph-name="O" unicode="O" horiz-adv-x="781" 
d="M405 7q54 0 96.5 26t67.5 69.5t37.5 96.5t12.5 112q0 133 -70.5 236t-172.5 103q-105 0 -160.5 -86.5t-55.5 -211.5q0 -80 27 -157t84.5 -132.5t133.5 -55.5zM389 681q156 0 250 -101.5t94 -233.5q0 -169 -100.5 -269.5t-242.5 -100.5q-141 0 -242 98t-101 254
q0 157 101 255t241 98z" />
    <glyph glyph-name="P" unicode="P" horiz-adv-x="552" 
d="M266 278v28q75 8 121.5 49.5t46.5 108.5q0 70 -52 118t-163 56v-596l102 -18v-24h-285v24l77 18v578l-77 21v23h212q138 0 213.5 -49t75.5 -136q0 -86 -79.5 -141.5t-191.5 -59.5z" />
    <glyph glyph-name="Q" unicode="Q" horiz-adv-x="781" 
d="M389 681q79 0 146 -29t109 -77t65.5 -106t23.5 -119q0 -138 -75.5 -233t-190.5 -122q10 -7 42.5 -30.5t43.5 -31t39.5 -26.5t41.5 -26t38 -19t42.5 -17t39.5 -9t43 -4q107 0 184 63l15 -17l-26.5 -26.5t-33 -26.5t-47 -27t-59.5 -17t-79 -8q-30 0 -60.5 5.5t-52.5 10.5
t-56 22.5t-49 24.5t-54.5 35t-50.5 36t-59 44.5t-59 44.5q-112 27 -187.5 117.5t-75.5 219.5q0 153 101.5 250.5t240.5 97.5zM405 16q72 0 121.5 44t71 110t21.5 146q0 133 -70.5 233.5t-172.5 100.5q-106 0 -161 -84.5t-55 -209.5q0 -60 15.5 -118.5t44.5 -109t77.5 -81.5
t107.5 -31z" />
    <glyph glyph-name="R" unicode="R" horiz-adv-x="654" 
d="M36 0v23l77 19v579l-77 20v23l229 3q142 1 213.5 -42t71.5 -121q0 -118 -153 -166v-2l193 -294l67 -19v-23h-164l-158 245l-39 61h-77v-264l77 -19v-23h-260zM219 642v-303h82q63 7 102.5 46t39.5 97q0 73 -60.5 117.5t-163.5 42.5z" />
    <glyph glyph-name="S" unicode="S" horiz-adv-x="521" 
d="M56 33l-9 171h25l61 -152q48 -38 119 -38q61 0 98.5 36t37.5 94q0 43 -25.5 76.5t-94.5 65.5l-49 23q-87 41 -121 80.5t-34 104.5q0 81 65.5 135.5t164.5 54.5q78 0 154 -46l6 -153h-24l-57 131q-41 36 -90 36q-55 0 -88 -32.5t-33 -79.5q0 -48 24.5 -76t91.5 -60l48 -23
q96 -45 130.5 -87.5t34.5 -101.5q0 -92 -76.5 -151.5t-172.5 -59.5q-89 0 -186 52z" />
    <glyph glyph-name="T" unicode="T" horiz-adv-x="626" 
d="M95 664h436l64 7l2 -189h-26l-54 147h-151v-587l91 -19v-23h-290v23l93 19v587h-151l-54 -147h-26l2 189z" />
    <glyph glyph-name="U" unicode="U" horiz-adv-x="735" 
d="M365 -23q-262 0 -262 277v365l-78 22v23h273v-23l-86 -22v-346q0 -243 176 -243q186 0 197 217l-1 363l-115 31v23h241v-23l-78 -25v-357q0 -137 -74 -209.5t-193 -72.5z" />
    <glyph glyph-name="V" unicode="V" horiz-adv-x="625" 
d="M289 -12l-245 633l-49 20v23h242v-23l-78 -20l188 -510l183 501l-104 27v25h204v-23l-53 -25l-242 -628h-46z" />
    <glyph glyph-name="W" unicode="W" horiz-adv-x="886" 
d="M585 -7l-138 427l-154 -427h-57l-192 628l-49 19v24h237v-23l-78 -20l148 -495l125 355l-45 140l-67 20v23h253v-25l-77 -18l156 -486l143 477l-105 27v25h206v-23l-52 -24l-196 -624h-58z" />
    <glyph glyph-name="X" unicode="X" horiz-adv-x="655" 
d="M0 24l69 17l213 290l-189 289l-69 21v23h270v-23l-79 -21l140 -221h2l154 212l-96 28v25h222v-23l-69 -21l-188 -259l210 -319l65 -18v-24h-265v24l77 18l-161 254h-2l-173 -252l80 -20v-24h-211v24z" />
    <glyph glyph-name="Y" unicode="Y" horiz-adv-x="615" 
d="M557 620l-197 -322v-256l79 -18v-24h-265v24l80 18v233l-200 351l-52 15v23h254v-23l-80 -20l158 -295l172 290l-96 25v23h203v-23z" />
    <glyph glyph-name="Z" unicode="Z" horiz-adv-x="632" 
d="M30 0v20l400 608h-298l-61 -152h-26l5 194l77 -6h440v-4l-409 -622h334l95 180h30l-43 -218h-544z" />
    <glyph glyph-name="bracketleft" unicode="[" horiz-adv-x="302" 
d="M293 -181h-185v914h185v-30h-100v-854h100v-30z" />
    <glyph glyph-name="backslash" unicode="\" horiz-adv-x="423" 
d="M460 -194l-33 -15l-407 942l33 16z" />
    <glyph glyph-name="bracketright" unicode="]" horiz-adv-x="302" 
d="M9 733h185v-914h-185v30h100v854h-100v30z" />
    <glyph glyph-name="asciicircum" unicode="^" horiz-adv-x="430" 
d="M82 485h-37l152 271h37l151 -271h-41l-133 203z" />
    <glyph glyph-name="underscore" unicode="_" horiz-adv-x="408" 
d="M4 -207v38h400v-38h-400z" />
    <glyph glyph-name="grave" unicode="`" horiz-adv-x="262" 
d="M57 757h83l54 -203h-29l-108 195v8z" />
    <glyph glyph-name="a" unicode="a" horiz-adv-x="470" 
d="M156 -15q-48 0 -84.5 30.5t-36.5 87.5t40 90t123 54l99 25v57q0 56 -25.5 88.5t-66.5 32.5q-40 0 -64 -20l-5 -102q-18 -5 -41 -5q-22 0 -35.5 11.5t-13.5 30.5q0 40 61 80.5t139 40.5q76 0 110.5 -35.5t34.5 -109.5v-275q0 -17 6.5 -23t24.5 -6h50v-16q-59 -33 -98 -33
q-72 0 -75 79h-4q-23 -27 -39 -42t-42.5 -27.5t-57.5 -12.5zM207 49q50 0 90 53v144l-98 -33q-68 -22 -68 -81q0 -35 19.5 -59t56.5 -24z" />
    <glyph glyph-name="b" unicode="b" horiz-adv-x="530" 
d="M213 -16q-63 0 -113 21l-37 15v640l-62 27v12l156 47v-339q67 79 155 79q76 0 130 -56.5t54 -167.5q0 -110 -88.5 -194t-194.5 -84zM256 428q-56 0 -99 -43v-318q14 -18 42 -30t56 -12q64 0 105 51.5t41 153.5q0 84 -43 141t-102 57z" />
    <glyph glyph-name="c" unicode="c" horiz-adv-x="469" 
d="M249 -14q-91 0 -153 64.5t-62 180.5q0 110 75 183.5t169 73.5q64 0 114 -31t50 -74q0 -24 -17 -38.5t-45 -14.5q-5 0 -10.5 0.5t-8.5 1.5h-3l-29 93q-33 29 -73 29q-58 0 -95 -49t-37 -128q0 -95 49 -154.5t119 -59.5q79 0 142 70l17 -12q-39 -62 -74 -90
q-57 -45 -128 -45z" />
    <glyph glyph-name="d" unicode="d" horiz-adv-x="554" 
d="M300 688v15l168 43v-694l67 -18v-18l-148 -30l-10 67q-67 -69 -141 -69q-94 0 -148 67.5t-54 160.5q0 117 82.5 195t184.5 78q35 0 73 -15v185zM283 46q47 0 91 36v308q-36 56 -109 56q-59 0 -98.5 -48t-39.5 -145q0 -49 15 -94t51.5 -79t89.5 -34z" />
    <glyph glyph-name="e" unicode="e" horiz-adv-x="479" 
d="M245 -14q-99 0 -155 71t-56 169q0 107 69 184.5t159 77.5q160 0 182 -194h-322q-1 -8 -1 -25q0 -95 46 -150.5t122 -55.5t146 70l16 -12q-22 -36 -43.5 -61.5t-65.5 -49.5t-97 -24zM234 452q-42 0 -71 -34t-38 -94h210q-17 128 -101 128z" />
    <glyph glyph-name="f" unicode="f" horiz-adv-x="315" 
d="M29 0v22l60 20v384h-72v28l73 22v10q2 110 64.5 185.5t144.5 75.5q50 0 89 -26t39 -61q0 -31 -22.5 -43.5t-56.5 -8.5l-19 86q-25 20 -57 20q-38 0 -65 -37t-26 -116l1 -88h132v-41h-131v-390l74 -20v-22h-228z" />
    <glyph glyph-name="g" unicode="g" horiz-adv-x="496" 
d="M486 419l-120 8v-3q51 -49 51 -106q0 -73 -57.5 -120t-134.5 -47q-46 0 -86 17q-22 -25 -22 -46q0 -33 48 -36l191 -12q62 -4 95 -32.5t33 -72.5q0 -81 -88 -144.5t-204 -63.5q-80 0 -127 31t-47 90q0 32 26 62t66 51l11 5v4q-30 2 -52.5 20t-22.5 52q0 44 71 102v2
q-73 44 -73 134q0 77 53 124.5t132 47.5q43 0 116 -26l141 16v-57zM349 -14l-199 13q-41 -41 -41 -90q0 -48 36 -75.5t103 -27.5q79 0 120 37t41 80q0 24 -16.5 41t-43.5 22zM137 348q1 -78 28 -123t73 -45q36 0 60.5 32t24.5 85q-1 79 -30 121t-73 42q-39 0 -61 -30.5
t-22 -81.5z" />
    <glyph glyph-name="h" unicode="h" horiz-adv-x="560" 
d="M331 0v22l60 20v277q-5 101 -92 101q-48 0 -115 -52v-326l63 -20v-22h-217v22l61 20v603l-59 33v15l152 53v-351q87 91 170 91q68 0 99.5 -37.5t31.5 -129.5v-277l63 -21v-21h-217z" />
    <glyph glyph-name="i" unicode="i" horiz-adv-x="260" 
d="M24 0v22l61 20v344l-59 34v14l153 52v-444l69 -20v-22h-224zM126 607q-26 0 -45.5 19.5t-19.5 44.5t19.5 44t45.5 19q24 0 43.5 -19t19.5 -44t-19.5 -44.5t-43.5 -19.5z" />
    <glyph glyph-name="j" unicode="j" horiz-adv-x="255" 
d="M-8 -248l-5 17q59 33 77.5 81.5t20.5 163.5v372l-58 34v14l151 52v-454q0 -135 -35 -183q-50 -64 -151 -97zM127 607q-26 0 -45.5 19.5t-19.5 44.5t19.5 44t45.5 19q24 0 43.5 -19t19.5 -44t-19.5 -44.5t-43.5 -19.5z" />
    <glyph glyph-name="k" unicode="k" horiz-adv-x="510" 
d="M91 42v603l-59 33v15l152 53v-704l63 -20v-22h-217v22zM453 -12q-31 0 -56.5 15.5t-56.5 55.5l-149 192l187 170l-67 31v21h189v-18l-66 -27l-164 -145l240 -275q-24 -20 -57 -20z" />
    <glyph glyph-name="l" unicode="l" horiz-adv-x="271" 
d="M27 0v22l64 20v603l-59 33v15l152 53v-704l70 -20v-22h-227z" />
    <glyph glyph-name="m" unicode="m" horiz-adv-x="855" 
d="M627 0v22l60 20v277q-7 101 -92 101q-53 0 -115 -52v-326l62 -21v-21h-217v22l61 20v277q-7 101 -92 101q-53 0 -115 -52v-326l63 -20v-22h-218v22l61 20v344l-63 34v13l143 53h5l5 -92h2q88 92 172 92q54 0 84 -21t40 -74h2q89 95 175 95q67 0 98.5 -37.5t31.5 -129.5
v-277l63 -21v-21h-216z" />
    <glyph glyph-name="n" unicode="n" horiz-adv-x="554" 
d="M24 0v22l61 20v344l-63 34v13l143 53h5l5 -92h2q88 92 172 92q67 0 99 -38t32 -129v-277l62 -21v-21h-216v22l60 20v277q-7 101 -92 101q-53 0 -115 -52v-326l63 -20v-22h-218z" />
    <glyph glyph-name="o" unicode="o" horiz-adv-x="549" 
d="M259 455q-62 0 -92 -53t-30 -134q0 -62 16 -117.5t52 -94t85 -38.5q55 0 88.5 53t33.5 135q0 114 -43.5 181.5t-109.5 67.5zM275 -16q-110 0 -175.5 71t-65.5 170q0 108 70.5 185.5t170.5 77.5q108 0 174 -65.5t66 -173.5q0 -110 -70 -187.5t-170 -77.5z" />
    <glyph glyph-name="p" unicode="p" horiz-adv-x="548" 
d="M18 -238v23l63 20v581l-62 34v13l147 53h5v-92h2q60 92 156 92q76 0 130.5 -56.5t54.5 -167.5q0 -78 -42 -142.5t-104.5 -98t-128.5 -33.5q-28 0 -64 8v-190l102 -21v-23h-259zM276 423q-58 0 -101 -55v-309q40 -34 97 -34q64 0 105.5 52.5t41.5 152.5q0 84 -41.5 138.5
t-101.5 54.5z" />
    <glyph glyph-name="q" unicode="q" horiz-adv-x="536" 
d="M275 -238v20l99 24v244q-66 -66 -138 -66q-94 0 -148 67t-54 161q0 117 82.5 195t181.5 78q66 0 114 -38l47 41h9v-682l60 -21v-23h-253zM284 46q48 0 90 35v310q-35 55 -109 55q-60 0 -99 -49t-39 -153q0 -45 15 -88t52 -76.5t90 -33.5z" />
    <glyph glyph-name="r" unicode="r" horiz-adv-x="364" 
d="M24 0v22l61 20v344l-63 34v13l143 53h5l3 -129h4l12 21q36 66 61 88t56 22q23 0 38.5 -13.5t15.5 -36.5q0 -36 -37 -60l-67 26q-17 -4 -40 -30t-37 -62v-270l77 -20v-22h-232z" />
    <glyph glyph-name="s" unicode="s" horiz-adv-x="410" 
d="M176 -17q-66 0 -132 35l-6 145h20l50 -118q30 -30 75 -30q44 0 70.5 26t26.5 63q0 31 -17 50t-59 36l-67 28q-93 38 -93 125q0 64 53 104t131 40q64 0 121 -32l-1 -125h-19l-45 101q-33 25 -68 25q-38 0 -60.5 -23t-22.5 -55t18.5 -51t60.5 -35l44 -18q63 -25 89.5 -55
t26.5 -75q0 -70 -58.5 -115.5t-137.5 -45.5z" />
    <glyph glyph-name="t" unicode="t" horiz-adv-x="328" 
d="M188 -11q-59 0 -84 30t-24 87l3 318h-74v30l74 22l68 125h23v-128h138v-52h-138v-315q5 -36 24 -50t53 -14q16 0 33 3.5t26 6.5t10 4l6 -19l-6 -4l-13.5 -9t-20.5 -11.5t-27 -11.5t-33 -8.5t-38 -3.5z" />
    <glyph glyph-name="u" unicode="u" horiz-adv-x="556" 
d="M387 -15l-10 89q-73 -91 -159 -91q-68 0 -104 42.5t-36 116.5v272l-63 24v17l157 25v-318q0 -111 96 -111q57 0 108 45v318l-73 22v18l166 26v-426l71 -25v-18z" />
    <glyph glyph-name="v" unicode="v" horiz-adv-x="464" 
d="M254 -18h-43l-168 448l-56 19v24h222v-24l-65 -19l108 -306l10 -30h2l12 31l104 302l-70 23v23h167v-24l-58 -19z" />
    <glyph glyph-name="w" unicode="w" horiz-adv-x="719" 
d="M402 480l121 -354l10 -34h2q4 19 8 35l89 297l-72 26v23h171v-24l-61 -20l-139 -445h-55l-112 322l-11 36h-1q-6 -22 -11 -36l-109 -322h-48l-140 446l-57 19v24h224v-24l-65 -19l85 -300l8 -35h2q5 19 11 35l116 350h34z" />
    <glyph glyph-name="x" unicode="x" horiz-adv-x="482" 
d="M278 266l141 -224l58 -21v-21h-210v22l47 20l-94 154h-2l-100 -152l53 -23v-21h-165v21l64 21l133 182l-132 210l-57 18v21h213v-21l-48 -19l82 -138h3l86 135l-49 22v21h147v-21l-50 -18z" />
    <glyph glyph-name="y" unicode="y" horiz-adv-x="470" 
d="M386 427l-70 23v23h156v-24l-47 -19l-221 -596q-32 -84 -99 -84q-25 0 -42 17t-17 41t17 40.5t40 16.5q29 0 59 -37l4 -5l53 143l-178 468l-43 15v24h198v-24l-50 -18l122 -334z" />
    <glyph glyph-name="z" unicode="z" horiz-adv-x="462" 
d="M329 0h-293v25l270 415h-181l-50 -120h-22v159l76 -6h304v-4l-286 -439h190l64 135h20l-14 -169z" />
    <glyph glyph-name="braceleft" unicode="{" horiz-adv-x="335" 
d="M105 277v-2q63 -10 89.5 -33.5t26.5 -82.5v-190q0 -73 22 -101.5t78 -28.5v-20h-15q-102 -1 -138.5 42t-28.5 133l17 175q8 84 -73 88l-30 1v36l30 1q81 4 73 88l-17 175q-8 90 28.5 133t138.5 42h15v-20q-56 0 -78 -29t-22 -102v-189q0 -58 -26.5 -82t-89.5 -34z" />
    <glyph glyph-name="bar" unicode="|" horiz-adv-x="221" 
d="M128 -203h-35v937h35v-937z" />
    <glyph glyph-name="braceright" unicode="}" horiz-adv-x="335" 
d="M230 275v2q-63 10 -89.5 34t-26.5 82v190q0 73 -22 101.5t-78 28.5v20h15q103 1 139.5 -42t27.5 -133l-17 -175q-8 -84 74 -88l29 -1v-36l-29 -1q-82 -4 -74 -88l17 -175q9 -90 -27.5 -133t-139.5 -42h-15v20q56 0 78 29t22 102v189q0 58 26.5 82t89.5 34z" />
    <glyph glyph-name="asciitilde" unicode="~" horiz-adv-x="485" 
d="M37 207l-19 8l6 15q17 43 38 67.5t46 31.5t47.5 5t54.5 -12l80 -25q71 -20 99 -10.5t55 58.5l20 -9l-6 -14q-34 -79 -77.5 -101.5t-110.5 -0.5l-66 21q-81 26 -110.5 20t-56.5 -54z" />
    <glyph glyph-name="uni00A0" unicode="&#xa0;" horiz-adv-x="161" 
 />
    <glyph glyph-name="exclamdown" unicode="&#xa1;" horiz-adv-x="270" 
d="M187 -118h-106l41 503h25zM135 587q26 0 46 -20t20 -47q0 -26 -20 -46t-46 -20q-27 0 -47 20t-20 46q0 27 20 47t47 20z" />
    <glyph glyph-name="cent" unicode="&#xa2;" horiz-adv-x="475" 
d="M216 -119l6 105q-79 10 -135 73.5t-56 166.5q0 106 67 178.5t156 81.5l7 112h32l-7 -112q60 -3 106.5 -33t46.5 -71q0 -22 -15.5 -35t-40.5 -13q-4 0 -8.5 0.5t-7.5 1.5h-3l-36 88q-24 21 -45 26l-24 -388q15 -3 29 -3q34 0 66 13t43.5 22.5t30.5 26.5l14 -15
q-1 -1 -10.5 -13.5t-13 -17t-14 -16.5t-18 -18t-19.5 -16.5t-23.5 -16t-26 -11.5t-30.5 -9t-33 -4l-6 -103h-32zM120 267q0 -70 29.5 -122t78.5 -74l24 383q-59 -2 -95.5 -51.5t-36.5 -135.5z" />
    <glyph glyph-name="sterling" unicode="&#xa3;" horiz-adv-x="642" 
d="M125 264v33h125l23 91q31 125 107 195t140 70q39 0 69.5 -21.5t30.5 -54.5q0 -45 -70 -61q-9 51 -26.5 77t-38.5 26q-52 0 -87 -128l-51 -194h191v-33h-200q-38 -157 -159 -237q60 -29 123 -71l36 -24q113 -77 130 -85q15 -6 29 -6q30 0 39.5 39.5t-5.5 97.5
q38 1 58 -7.5t20 -35.5q0 -41 -50 -88t-119 -47q-37 0 -86 26.5t-81 52t-88 75.5l-54 47q-48 -20 -77 -20q-55 0 -55 37q0 18 19 30t44 12q34 0 87 -20q48 46 76 157l17 67h-117z" />
    <glyph glyph-name="yen" unicode="&#xa5;" horiz-adv-x="579" 
d="M61 261v31h165l-179 306l-52 16v22h252v-22l-78 -21l146 -280h3l161 275l-95 26v22h200v-23l-57 -21l-182 -300h168v-31h-174v-76h175v-31h-175v-111l74 -20v-23h-248v24l73 18v112h-177v31h177v76h-177z" />
    <glyph glyph-name="brokenbar" unicode="&#xa6;" horiz-adv-x="221" 
d="M128 313h-35v421h35v-421zM128 -203h-35v423h35v-423z" />
    <glyph glyph-name="section" unicode="&#xa7;" horiz-adv-x="474" 
d="M267 -103q0 25 -14 52.5t-75 128.5l-65 108q-62 103 -62 179q0 61 33.5 119t82 96.5t100.5 62t90 23.5q36 0 56.5 -16t20.5 -40q0 -17 -10.5 -30.5t-28.5 -16.5q-37 31 -87 40q-52 0 -98 -25q-6 -12 -6 -27q0 -22 12 -47t56 -98l7.5 -12t6.5 -10.5t7 -12.5l65 -109
q62 -105 62 -178q0 -61 -33.5 -119.5t-82 -96.5t-100.5 -61.5t-90 -23.5q-36 0 -56 16t-20 40q0 17 10 30.5t28 16.5q38 -32 88 -40q49 0 96 24q7 14 7 27zM121 424q0 -85 67 -198l55 -93q31 -53 47 -91.5t18 -52t2 -33.5q0 -30 -11 -54h5q46 48 46 123q0 81 -67 197l-54 94
q-34 59 -50 98t-17 48.5t-1 30.5q0 30 11 54h-5q-46 -48 -46 -123z" />
    <glyph glyph-name="dieresis" unicode="&#xa8;" 
d="M118 613q-25 0 -42 17t-17 41t17 41.5t42 17.5q24 0 41.5 -17.5t17.5 -41.5t-17.5 -41t-41.5 -17zM305 613q-24 0 -41.5 17t-17.5 41t17.5 41.5t41.5 17.5t42 -17.5t18 -41.5t-18 -41t-42 -17z" />
    <glyph glyph-name="copyright" unicode="&#xa9;" horiz-adv-x="791" 
d="M49 328q0 144 101 245t245 101t245.5 -101t101.5 -245q0 -145 -101.5 -245.5t-245.5 -100.5t-245 100.5t-101 245.5zM76 328q0 -134 93.5 -228.5t225.5 -94.5t225.5 94.5t93.5 228.5t-93.5 228.5t-225.5 94.5t-225.5 -94.5t-93.5 -228.5zM401 132q-99 0 -148.5 56
t-49.5 130q0 89 60.5 147t151.5 58q50 0 121 -32l2 -103h-22l-31 79q-35 33 -75 33q-53 0 -86.5 -44.5t-33.5 -124.5t34.5 -126.5t92.5 -46.5q46 0 77 33l29 79h23l-8 -100q-30 -15 -42.5 -20t-39.5 -11.5t-55 -6.5z" />
    <glyph glyph-name="ordfeminine" unicode="&#xaa;" horiz-adv-x="430" 
d="M140 236q-38 0 -69.5 26t-31.5 70q0 45 32.5 68t102.5 40l83 20v67q-2 32 -22.5 53t-53.5 21q-25 0 -45 -10l-11 -87q-12 -5 -30 -5q-44 0 -44 37q0 31 52 64.5t117 33.5q62 0 90.5 -29.5t28.5 -92.5v-206q0 -15 5.5 -20t22.5 -5h39v-20q-50 -23 -85 -23q-60 0 -62 63h-6
l-13.5 -13.5l-13.5 -13.5t-11.5 -10t-13.5 -10t-12.5 -7t-15 -6.5t-15 -3t-18.5 -1.5zM184 293q44 0 73 35v110l-69 -21q-64 -21 -64 -61q0 -29 17 -46t43 -17z" />
    <glyph glyph-name="guillemotleft" unicode="&#xab;" horiz-adv-x="465" 
d="M216 388l16 -15l-112 -168l111 -161l-15 -15l-166 169v15zM379 388l16 -15l-112 -168l111 -161l-15 -15l-166 169v15z" />
    <glyph glyph-name="logicalnot" unicode="&#xac;" horiz-adv-x="586" 
d="M56 258h474v-197h-43v158h-431v39z" />
    <glyph glyph-name="registered" unicode="&#xae;" horiz-adv-x="416" 
d="M8 558q0 82 59 139t143 57q83 0 140.5 -57t57.5 -139t-59 -138.5t-142 -56.5q-84 0 -141.5 56t-57.5 139zM37 558q0 -73 49.5 -122.5t121.5 -49.5q73 0 122.5 49.5t49.5 122.5t-49.5 122.5t-122.5 49.5t-122 -49.5t-49 -122.5zM104 461v12l28 7v168l-28 7v11h88
q108 0 108 -54q0 -34 -53 -58v-1l51 -74l31 -6v-12h-74l-28 43l-27 42h-21v-66l26 -7v-12h-101zM179 652v-90h41q29 11 29 42q0 23 -18 36t-52 12z" />
    <glyph glyph-name="macron" unicode="&#xaf;" 
d="M54 626v59h292v-59h-292z" />
    <glyph glyph-name="degree" unicode="&#xb0;" horiz-adv-x="298" 
d="M16 603q0 55 39.5 93.5t95.5 38.5t93 -38.5t37 -93.5t-39.5 -94t-94.5 -39q-56 0 -93.5 38.5t-37.5 94.5zM55 603q0 -43 26.5 -72t67.5 -29t68 29t27 72t-27 72t-68 29t-67.5 -29t-26.5 -72z" />
    <glyph glyph-name="plusminus" unicode="&#xb1;" horiz-adv-x="586" 
d="M530 328h-215v-218h-43v218h-216v38h216v218h43v-218h215v-38zM56 0v39h474v-39h-474z" />
    <glyph glyph-name="acute" unicode="&#xb4;" horiz-adv-x="262" 
d="M121 757h83v-8l-108 -195h-29z" />
    <glyph glyph-name="paragraph" unicode="&#xb6;" horiz-adv-x="541" 
d="M505 664v-23l-71 -21v-586q0 -125 -57.5 -182.5t-146.5 -57.5q-71 0 -118.5 44t-47.5 113q0 66 40.5 106.5t100.5 40.5q45 0 72.5 -27t27.5 -62q0 -41 -22 -63.5t-52 -22.5q-24 0 -40.5 18t-13.5 48q52 10 79 35v4q-5 17 -21.5 28t-40.5 11q-35 0 -63.5 -29.5
t-28.5 -80.5q0 -54 36.5 -92t97.5 -38q141 0 141 177v628h-53v-399h-53q-89 0 -152.5 63t-63.5 152t63.5 152.5t152.5 63.5h234z" />
    <glyph glyph-name="periodcentered" unicode="&#xb7;" horiz-adv-x="334" 
d="M166 206q-26 0 -46 20t-20 47q0 26 20 46t46 20q28 0 48 -20t20 -46q0 -27 -20 -47t-48 -20z" />
    <glyph glyph-name="cedilla" unicode="&#xb8;" horiz-adv-x="253" 
d="M55 -253l-6 17q90 33 90 83q0 44 -54 59l60 98h30l-34 -54q77 -18 77 -78q0 -51 -48 -81.5t-115 -43.5z" />
    <glyph glyph-name="ordmasculine" unicode="&#xba;" horiz-adv-x="457" 
d="M218 608q-46 0 -71.5 -44t-25.5 -112q0 -79 31 -135t87 -56q44 0 70.5 44t26.5 114q0 85 -32.5 137t-85.5 52zM228 233q-91 0 -143 56t-52 139q0 86 56.5 147t138.5 61q90 0 143 -52t53 -142q0 -88 -56.5 -148.5t-139.5 -60.5z" />
    <glyph glyph-name="guillemotright" unicode="&#xbb;" horiz-adv-x="465" 
d="M249 29l-16 15l112 167l-111 162l15 15l166 -169v-14zM86 29l-16 15l112 167l-111 162l15 15l166 -169v-14z" />
    <glyph glyph-name="onequarter" unicode="&#xbc;" horiz-adv-x="697" 
d="M611 369v-227h74v-49h-74v-62l54 -11v-20h-181v20l54 10v63h-171v26l218 257zM169 673v-342l71 -13v-20h-221v20l75 13v286h-77v22l145 34h7zM101 -80l-25 19l539 782l25 -17zM416 142h122v146z" />
    <glyph glyph-name="onehalf" unicode="&#xbd;" horiz-adv-x="747" 
d="M603 122l-76 -58h199v-64h-278v24l79 71q61 54 85.5 87t24.5 70q0 33 -22 53t-54 20q-28 0 -47 -14.5t-44 -46.5l-18 10q49 104 143 104q52 0 85 -27.5t33 -73.5q0 -47 -26 -79t-84 -76zM169 673v-342l71 -13v-20h-221v20l75 13v286h-77v22l145 34h7zM101 -80l-25 19
l539 782l25 -17z" />
    <glyph glyph-name="threequarters" unicode="&#xbe;" horiz-adv-x="701" 
d="M615 369v-227h74v-49h-74v-62l54 -11v-20h-181v20l54 10v63h-171v26l218 257zM128 311q33 0 54.5 21t21.5 52q0 39 -35 62t-99 23v25q56 6 87.5 29.5t31.5 52.5q0 24 -16 39t-45 15q-51 0 -93 -58l-18 11q47 93 141 93q49 0 76.5 -22t27.5 -56q0 -33 -24 -54.5t-71 -39.5
v-4q54 -3 83.5 -27t29.5 -64q0 -52 -48.5 -85.5t-108.5 -33.5q-55 0 -87 18.5t-32 45.5q0 15 11.5 25t31.5 11l40 -69q14 -10 41 -10zM105 -80l-25 19l539 782l25 -17zM420 142h122v146z" />
    <glyph glyph-name="questiondown" unicode="&#xbf;" horiz-adv-x="360" 
d="M291 -13v-106l-31 7q-82 17 -157 85t-75 158q0 93 104 131l84 29l-4 94h36l23 -166l-122 -41q-86 -28 -86 -72q0 -39 52 -72t137 -42zM230 587q26 0 46 -20t20 -47q0 -26 -20 -46t-46 -20q-27 0 -47 20t-20 46q0 27 20 47t47 20z" />
    <glyph glyph-name="Agrave" unicode="&#xc0;" horiz-adv-x="669" 
d="M-8 0v23l74 19l231 627l32 7l39 8l236 -643l73 -18v-23h-265v23l79 18l-68 188h-246l-65 -183l116 -23v-23h-236zM299 574l-105 -296h212l-106 296h-1zM179 865h91l83 -140h-39l-135 131v9z" />
    <glyph glyph-name="Aacute" unicode="&#xc1;" horiz-adv-x="669" 
d="M-8 0v23l74 19l231 627l32 7l39 8l236 -643l73 -18v-23h-265v23l79 18l-68 188h-246l-65 -183l116 -23v-23h-236zM299 574l-105 -296h212l-106 296h-1zM392 865h95v-9l-138 -131h-39z" />
    <glyph glyph-name="Acircumflex" unicode="&#xc2;" horiz-adv-x="669" 
d="M-8 0v23l74 19l231 627l32 7l39 8l236 -643l73 -18v-23h-265v23l79 18l-68 188h-246l-65 -183l116 -23v-23h-236zM299 574l-105 -296h212l-106 296h-1zM215 725h-42l118 131h82l110 -131h-45l-109 81z" />
    <glyph glyph-name="Atilde" unicode="&#xc3;" horiz-adv-x="669" 
d="M-8 0v23l74 19l231 627l32 7l39 8l236 -643l73 -18v-23h-265v23l79 18l-68 188h-246l-65 -183l116 -23v-23h-236zM299 574l-105 -296h212l-106 296h-1zM350 747l-36 15q-59 23 -79 18t-38 -46l-21 10l5 12q27 66 63.5 85t87.5 -3l44 -18q47 -18 67.5 -9.5t39.5 48.5
l21 -10l-5 -12q-30 -72 -63.5 -92t-85.5 2z" />
    <glyph glyph-name="Adieresis" unicode="&#xc4;" horiz-adv-x="669" 
d="M-8 0v23l74 19l231 627l32 7l39 8l236 -643l73 -18v-23h-265v23l79 18l-68 188h-246l-65 -183l116 -23v-23h-236zM299 574l-105 -296h212l-106 296h-1zM440 748q-24 0 -41.5 17t-17.5 41t17.5 41.5t41.5 17.5t41.5 -17.5t17.5 -41.5t-17.5 -41t-41.5 -17zM227 748
q-24 0 -41 17t-17 41t17 41.5t41 17.5t41.5 -17.5t17.5 -41.5t-17.5 -41t-41.5 -17z" />
    <glyph glyph-name="Aring" unicode="&#xc5;" horiz-adv-x="669" 
d="M-8 0v23l74 19l231 627l32 7l39 8l236 -643l73 -18v-23h-265v23l79 18l-68 188h-246l-65 -183l116 -23v-23h-236zM299 574l-105 -296h212l-106 296h-1zM231 832q0 41 29 69.5t71 28.5q43 0 71.5 -28t28.5 -70q0 -41 -29 -69.5t-71 -28.5q-43 0 -71.5 28t-28.5 70z
M267 832q0 -29 18.5 -47.5t45.5 -18.5t45.5 18.5t18.5 47.5t-18.5 47.5t-45.5 18.5t-45.5 -18.5t-18.5 -47.5z" />
    <glyph glyph-name="AE" unicode="&#xc6;" horiz-adv-x="936" 
d="M686 319h-133v-259q18 -23 50 -24h176l101 164h27l-51 -200h-476v23l71 19v277h-187l-149 -273l105 -23v-23h-221v23l65 19l332 571l-84 28v23h482l74 4v-180h-27l-54 142h-234v-276h133l31 95h24v-219h-27zM451 619h-15l-153 -266h168v266z" />
    <glyph glyph-name="Ccedilla" unicode="&#xc7;" horiz-adv-x="717" 
d="M290 -253l-6 17q90 33 90 83q0 44 -54 59l43 71q-78 5 -140 36t-99 78.5t-56.5 103.5t-19.5 115q0 157 112.5 264t269.5 107q113 0 210 -53l5 -171h-27l-52 134q-75 56 -162 56q-101 0 -168.5 -85t-67.5 -215q0 -162 74 -249.5t184 -87.5q78 0 143 55l76 148h28l-28 -171
q-130 -66 -252 -66h-1l-16 -26q77 -18 77 -78q0 -51 -48 -81.5t-115 -43.5z" />
    <glyph glyph-name="Egrave" unicode="&#xc8;" horiz-adv-x="603" 
d="M352 326h-133v-266q18 -22 50 -25h177l101 165h27l-51 -200h-487v23l77 19v577l-77 22v23h425l73 4v-180h-27l-53 142h-235v-269h133l32 95h24v-219h-27zM179 865h91l83 -140h-39l-135 131v9z" />
    <glyph glyph-name="Eacute" unicode="&#xc9;" horiz-adv-x="603" 
d="M352 326h-133v-266q18 -22 50 -25h177l101 165h27l-51 -200h-487v23l77 19v577l-77 22v23h425l73 4v-180h-27l-53 142h-235v-269h133l32 95h24v-219h-27zM381 865h95v-9l-138 -131h-39z" />
    <glyph glyph-name="Ecircumflex" unicode="&#xca;" horiz-adv-x="603" 
d="M352 326h-133v-266q18 -22 50 -25h177l101 165h27l-51 -200h-487v23l77 19v577l-77 22v23h425l73 4v-180h-27l-53 142h-235v-269h133l32 95h24v-219h-27zM204 725h-42l118 131h82l110 -131h-45l-109 81z" />
    <glyph glyph-name="Edieresis" unicode="&#xcb;" horiz-adv-x="603" 
d="M352 326h-133v-266q18 -22 50 -25h177l101 165h27l-51 -200h-487v23l77 19v577l-77 22v23h425l73 4v-180h-27l-53 142h-235v-269h133l32 95h24v-219h-27zM424 748q-24 0 -41.5 17t-17.5 41t17.5 41.5t41.5 17.5t41.5 -17.5t17.5 -41.5t-17.5 -41t-41.5 -17zM211 748
q-24 0 -41 17t-17 41t17 41.5t41 17.5t41.5 -17.5t17.5 -41.5t-17.5 -41t-41.5 -17z" />
    <glyph glyph-name="Igrave" unicode="&#xcc;" horiz-adv-x="332" 
d="M36 0v24l77 18v578l-77 21v23h260v-23l-77 -21v-578l77 -19v-23h-260zM15 865h91l83 -140h-39l-135 131v9z" />
    <glyph glyph-name="Iacute" unicode="&#xcd;" horiz-adv-x="332" 
d="M36 0v24l77 18v578l-77 21v23h260v-23l-77 -21v-578l77 -19v-23h-260zM218 865h95v-9l-138 -131h-39z" />
    <glyph glyph-name="Icircumflex" unicode="&#xce;" horiz-adv-x="332" 
d="M36 0v24l77 18v578l-77 21v23h260v-23l-77 -21v-578l77 -19v-23h-260zM70 725h-43l100 131h82l91 -131h-45l-90 79z" />
    <glyph glyph-name="Idieresis" unicode="&#xcf;" horiz-adv-x="332" 
d="M80 748q-24 0 -41 16.5t-17 41.5q0 24 17 41.5t41 17.5t42 -17.5t18 -41.5t-18 -41t-42 -17zM251 748q-24 0 -41.5 17t-17.5 41t17.5 41.5t41.5 17.5t41.5 -17.5t17.5 -41.5t-17.5 -41t-41.5 -17zM36 0v24l77 18v578l-77 21v23h260v-23l-77 -21v-578l77 -19v-23h-260z
" />
    <glyph glyph-name="Eth" unicode="&#xd0;" horiz-adv-x="757" 
d="M36 0v24l77 18v270h-83v35h83v273l-77 21v23l296 4q168 -8 273 -92t105 -229q0 -165 -123.5 -258.5t-322.5 -91.5zM390 312h-171v-247q33 -36 123 -36q116 0 186 86.5t70 212.5q0 158 -109.5 240t-269.5 71v-292h171v-35z" />
    <glyph glyph-name="Ntilde" unicode="&#xd1;" horiz-adv-x="723" 
d="M622 -10l-28 -1l-439 566l1 -508l89 -23v-24h-204v24l73 21v551q-24 27 -67 40l-17 6v22h173l376 -487l-1 441l-88 22v24h203v-24l-73 -21v-506zM402 747l-36 15q-59 23 -79 18t-38 -46l-21 10l5 12q27 66 63.5 85t87.5 -3l44 -18q47 -18 67.5 -9.5t39.5 48.5l21 -10
l-5 -12q-30 -72 -63.5 -92t-85.5 2z" />
    <glyph glyph-name="Ograve" unicode="&#xd2;" horiz-adv-x="781" 
d="M240 865h91l83 -140h-39l-135 131v9zM405 7q54 0 96.5 26t67.5 69.5t37.5 96.5t12.5 112q0 133 -70.5 236t-172.5 103q-105 0 -160.5 -86.5t-55.5 -211.5q0 -80 27 -157t84.5 -132.5t133.5 -55.5zM389 681q156 0 250 -101.5t94 -233.5q0 -169 -100.5 -269.5
t-242.5 -100.5q-141 0 -242 98t-101 254q0 157 101 255t241 98z" />
    <glyph glyph-name="Oacute" unicode="&#xd3;" horiz-adv-x="781" 
d="M442 865h95v-9l-138 -131h-39zM405 7q54 0 96.5 26t67.5 69.5t37.5 96.5t12.5 112q0 133 -70.5 236t-172.5 103q-105 0 -160.5 -86.5t-55.5 -211.5q0 -80 27 -157t84.5 -132.5t133.5 -55.5zM389 681q156 0 250 -101.5t94 -233.5q0 -169 -100.5 -269.5t-242.5 -100.5
q-141 0 -242 98t-101 254q0 157 101 255t241 98z" />
    <glyph glyph-name="Ocircumflex" unicode="&#xd4;" horiz-adv-x="781" 
d="M389 681q156 0 250 -101.5t94 -233.5q0 -169 -100.5 -269.5t-242.5 -100.5q-141 0 -242 98t-101 254q0 157 101 255t241 98zM405 7q54 0 96.5 26t67.5 69.5t37.5 96.5t12.5 112q0 133 -70.5 236t-172.5 103q-105 0 -160.5 -86.5t-55.5 -211.5q0 -80 27 -157t84.5 -132.5
t133.5 -55.5zM275 725h-42l118 131h82l110 -131h-45l-109 81z" />
    <glyph glyph-name="Otilde" unicode="&#xd5;" horiz-adv-x="781" 
d="M411 747l-36 15q-59 23 -79 18t-38 -46l-21 10l5 12q27 66 63.5 85t87.5 -3l44 -18q47 -18 67.5 -9.5t39.5 48.5l21 -10l-5 -12q-30 -72 -63.5 -92t-85.5 2zM405 7q54 0 96.5 26t67.5 69.5t37.5 96.5t12.5 112q0 133 -70.5 236t-172.5 103q-105 0 -160.5 -86.5
t-55.5 -211.5q0 -80 27 -157t84.5 -132.5t133.5 -55.5zM389 681q156 0 250 -101.5t94 -233.5q0 -169 -100.5 -269.5t-242.5 -100.5q-141 0 -242 98t-101 254q0 157 101 255t241 98z" />
    <glyph glyph-name="Odieresis" unicode="&#xd6;" horiz-adv-x="781" 
d="M283 748q-24 0 -41 17t-17 41t17 41.5t41 17.5t41.5 -17.5t17.5 -41.5t-17.5 -41t-41.5 -17zM496 748q-24 0 -41.5 17t-17.5 41t17.5 41.5t41.5 17.5t41.5 -17.5t17.5 -41.5t-17.5 -41t-41.5 -17zM405 7q54 0 96.5 26t67.5 69.5t37.5 96.5t12.5 112q0 133 -70.5 236
t-172.5 103q-105 0 -160.5 -86.5t-55.5 -211.5q0 -80 27 -157t84.5 -132.5t133.5 -55.5zM389 681q156 0 250 -101.5t94 -233.5q0 -169 -100.5 -269.5t-242.5 -100.5q-141 0 -242 98t-101 254q0 157 101 255t241 98z" />
    <glyph glyph-name="multiply" unicode="&#xd7;" horiz-adv-x="586" 
d="M480 20l-190 191l-187 -192l-29 29l189 191l-187 189l29 29l188 -188l189 194l28 -29l-190 -193l190 -192z" />
    <glyph glyph-name="Oslash" unicode="&#xd8;" horiz-adv-x="781" 
d="M74 -35l81 104q-108 100 -108 259q0 157 101 255t241 98q112 0 197 -58l62 79h43l-78 -100q57 -48 88.5 -116.5t31.5 -139.5q0 -169 -100.5 -269.5t-242.5 -100.5q-119 0 -210 71l-63 -82h-43zM405 7q54 0 96.5 26t67.5 69.5t37.5 96.5t12.5 112q0 126 -59 223l-332 -426
q67 -101 177 -101zM160 352q0 -119 49 -213l331 424q-69 87 -164 87q-105 0 -160.5 -86.5t-55.5 -211.5z" />
    <glyph glyph-name="Ugrave" unicode="&#xd9;" horiz-adv-x="735" 
d="M234 865h91l83 -140h-39l-135 131v9zM365 -23q-262 0 -262 277v365l-78 22v23h273v-23l-86 -22v-346q0 -243 176 -243q186 0 197 217l-1 363l-115 31v23h241v-23l-78 -25v-357q0 -137 -74 -209.5t-193 -72.5z" />
    <glyph glyph-name="Uacute" unicode="&#xda;" horiz-adv-x="735" 
d="M431 865h95v-9l-138 -131h-39zM365 -23q-262 0 -262 277v365l-78 22v23h273v-23l-86 -22v-346q0 -243 176 -243q186 0 197 217l-1 363l-115 31v23h241v-23l-78 -25v-357q0 -137 -74 -209.5t-193 -72.5z" />
    <glyph glyph-name="Ucircumflex" unicode="&#xdb;" horiz-adv-x="735" 
d="M365 -23q-262 0 -262 277v365l-78 22v23h273v-23l-86 -22v-346q0 -243 176 -243q186 0 197 217l-1 363l-115 31v23h241v-23l-78 -25v-357q0 -137 -74 -209.5t-193 -72.5zM277 725h-42l118 131h82l110 -131h-45l-109 81z" />
    <glyph glyph-name="Udieresis" unicode="&#xdc;" horiz-adv-x="735" 
d="M365 -23q-262 0 -262 277v365l-78 22v23h273v-23l-86 -22v-346q0 -243 176 -243q186 0 197 217l-1 363l-115 31v23h241v-23l-78 -25v-357q0 -137 -74 -209.5t-193 -72.5zM282 748q-24 0 -41 17t-17 41t17 41.5t41 17.5t41.5 -17.5t17.5 -41.5t-17.5 -41t-41.5 -17z
M495 748q-24 0 -41.5 17t-17.5 41t17.5 41.5t41.5 17.5t41.5 -17.5t17.5 -41.5t-17.5 -41t-41.5 -17z" />
    <glyph glyph-name="Yacute" unicode="&#xdd;" horiz-adv-x="615" 
d="M557 620l-197 -322v-256l79 -18v-24h-265v24l80 18v233l-200 351l-52 15v23h254v-23l-80 -20l158 -295l172 290l-96 25v23h203v-23zM386 865h95v-9l-138 -131h-39z" />
    <glyph glyph-name="Thorn" unicode="&#xde;" horiz-adv-x="586" 
d="M36 0v24l77 18v578l-77 21v23h260v-23l-77 -21v-106h44q140 0 216 -45.5t76 -117.5q0 -46 -27.5 -82t-72 -57t-95 -32t-101.5 -11v22q91 11 140 49t49 102q0 63 -56 104t-173 43v-447l77 -19v-23h-260z" />
    <glyph glyph-name="germandbls" unicode="&#xdf;" horiz-adv-x="598" 
d="M24 0v22l61 21v388h-64v23l65 22q2 113 70 192t179 79q81 0 128.5 -35t47.5 -94q0 -30 -16 -58t-30 -41.5t-45 -39.5l-21 -18t-19.5 -17t-15 -14.5t-13.5 -16t-7 -14.5t-3 -16q0 -18 11.5 -30t42.5 -31l79 -47q57 -35 78 -61t21 -69q0 -68 -57.5 -115t-132.5 -47
q-74 0 -134 38v133h16l47 -106q32 -34 83 -34q37 0 63 24t26 62q0 33 -21.5 57.5t-67.5 51.5l-57 33q-68 38 -68 95q0 12 4 23.5t8.5 20t15 21t16 18.5t20 20t19.5 19q38 37 53.5 70.5t15.5 75.5q0 46 -30 79t-81 33q-58 0 -95 -43t-37 -143v-531h-155z" />
    <glyph glyph-name="agrave" unicode="&#xe0;" horiz-adv-x="470" 
d="M156 -15q-48 0 -84.5 30.5t-36.5 87.5t40 90t123 54l99 25v57q0 56 -25.5 88.5t-66.5 32.5q-40 0 -64 -20l-5 -102q-18 -5 -41 -5q-22 0 -35.5 11.5t-13.5 30.5q0 40 61 80.5t139 40.5q76 0 110.5 -35.5t34.5 -109.5v-275q0 -17 6.5 -23t24.5 -6h50v-16q-59 -33 -98 -33
q-72 0 -75 79h-4q-23 -27 -39 -42t-42.5 -27.5t-57.5 -12.5zM207 49q50 0 90 53v144l-98 -33q-68 -22 -68 -81q0 -35 19.5 -59t56.5 -24zM113 757h83l54 -203h-29l-108 195v8z" />
    <glyph glyph-name="aacute" unicode="&#xe1;" horiz-adv-x="470" 
d="M156 -15q-48 0 -84.5 30.5t-36.5 87.5t40 90t123 54l99 25v57q0 56 -25.5 88.5t-66.5 32.5q-40 0 -64 -20l-5 -102q-18 -5 -41 -5q-22 0 -35.5 11.5t-13.5 30.5q0 40 61 80.5t139 40.5q76 0 110.5 -35.5t34.5 -109.5v-275q0 -17 6.5 -23t24.5 -6h50v-16q-59 -33 -98 -33
q-72 0 -75 79h-4q-23 -27 -39 -42t-42.5 -27.5t-57.5 -12.5zM207 49q50 0 90 53v144l-98 -33q-68 -22 -68 -81q0 -35 19.5 -59t56.5 -24zM268 757h83v-8l-108 -195h-29z" />
    <glyph glyph-name="acircumflex" unicode="&#xe2;" horiz-adv-x="470" 
d="M156 -15q-48 0 -84.5 30.5t-36.5 87.5t40 90t123 54l99 25v57q0 56 -25.5 88.5t-66.5 32.5q-40 0 -64 -20l-5 -102q-18 -5 -41 -5q-22 0 -35.5 11.5t-13.5 30.5q0 40 61 80.5t139 40.5q76 0 110.5 -35.5t34.5 -109.5v-275q0 -17 6.5 -23t24.5 -6h50v-16q-59 -33 -98 -33
q-72 0 -75 79h-4q-23 -27 -39 -42t-42.5 -27.5t-57.5 -12.5zM207 49q50 0 90 53v144l-98 -33q-68 -22 -68 -81q0 -35 19.5 -59t56.5 -24zM141 554h-35l107 203h43l107 -203h-37l-94 128z" />
    <glyph glyph-name="atilde" unicode="&#xe3;" horiz-adv-x="470" 
d="M156 -15q-48 0 -84.5 30.5t-36.5 87.5t40 90t123 54l99 25v57q0 56 -25.5 88.5t-66.5 32.5q-40 0 -64 -20l-5 -102q-18 -5 -41 -5q-22 0 -35.5 11.5t-13.5 30.5q0 40 61 80.5t139 40.5q76 0 110.5 -35.5t34.5 -109.5v-275q0 -17 6.5 -23t24.5 -6h50v-16q-59 -33 -98 -33
q-72 0 -75 79h-4q-23 -27 -39 -42t-42.5 -27.5t-57.5 -12.5zM207 49q50 0 90 53v144l-98 -33q-68 -22 -68 -81q0 -35 19.5 -59t56.5 -24zM249 603l-35 16q-59 25 -78.5 19.5t-38.5 -47.5l-20 10l5 12q27 65 63.5 84t87.5 -3l44 -18q48 -18 67.5 -9.5t38.5 49.5l21 -10
l-5 -13q-27 -70 -63 -91.5t-87 1.5z" />
    <glyph glyph-name="adieresis" unicode="&#xe4;" horiz-adv-x="470" 
d="M156 -15q-48 0 -84.5 30.5t-36.5 87.5t40 90t123 54l99 25v57q0 56 -25.5 88.5t-66.5 32.5q-40 0 -64 -20l-5 -102q-18 -5 -41 -5q-22 0 -35.5 11.5t-13.5 30.5q0 40 61 80.5t139 40.5q76 0 110.5 -35.5t34.5 -109.5v-275q0 -17 6.5 -23t24.5 -6h50v-16q-59 -33 -98 -33
q-72 0 -75 79h-4q-23 -27 -39 -42t-42.5 -27.5t-57.5 -12.5zM207 49q50 0 90 53v144l-98 -33q-68 -22 -68 -81q0 -35 19.5 -59t56.5 -24zM325 613q-24 0 -41.5 17t-17.5 41t17.5 41.5t41.5 17.5t42 -17.5t18 -41.5t-18 -41t-42 -17zM138 613q-25 0 -42 17t-17 41t17 41.5
t42 17.5q24 0 41.5 -17.5t17.5 -41.5t-17.5 -41t-41.5 -17z" />
    <glyph glyph-name="aring" unicode="&#xe5;" horiz-adv-x="470" 
d="M156 -15q-48 0 -84.5 30.5t-36.5 87.5t40 90t123 54l99 25v57q0 56 -25.5 88.5t-66.5 32.5q-40 0 -64 -20l-5 -102q-18 -5 -41 -5q-22 0 -35.5 11.5t-13.5 30.5q0 40 61 80.5t139 40.5q76 0 110.5 -35.5t34.5 -109.5v-275q0 -17 6.5 -23t24.5 -6h50v-16q-59 -33 -98 -33
q-72 0 -75 79h-4q-23 -27 -39 -42t-42.5 -27.5t-57.5 -12.5zM132 674q0 41 29 69t71 28q43 0 71.5 -27.5t28.5 -69.5q0 -41 -29 -69.5t-71 -28.5q-43 0 -71.5 27.5t-28.5 70.5zM207 49q50 0 90 53v144l-98 -33q-68 -22 -68 -81q0 -35 19.5 -59t56.5 -24zM168 674
q0 -29 18.5 -48t45.5 -19t45.5 19t18.5 48t-18.5 47.5t-45.5 18.5t-45.5 -18.5t-18.5 -47.5z" />
    <glyph glyph-name="ae" unicode="&#xe6;" horiz-adv-x="730" 
d="M154 -16q-50 0 -84.5 31t-34.5 87q0 58 48.5 88t150.5 55l63 15v91q-15 97 -90 97q-40 0 -66 -21l2 -93q-22 -11 -45 -11q-22 0 -35 12.5t-13 32.5q0 42 60 80t129 38q98 0 131 -78q19 34 56.5 56t84.5 22q78 0 122.5 -46.5t56.5 -127.5l-300 -63v-51q4 -63 45 -98.5
t107 -35.5q16 0 32 3.5t28.5 9.5t24 13.5t20.5 14.5t15 13l10 10l4 5l15 -10l-7 -12q-6 -12 -15 -26.5t-26 -33t-37 -33t-50.5 -24.5t-64.5 -10q-53 0 -99.5 28t-71.5 77q-29 -31 -35 -37t-28 -26t-33 -25t-30.5 -11t-39.5 -6zM390 327v-50l190 44q-3 58 -28 92.5t-68 34.5
q-83 0 -94 -121zM297 190v42l-60 -19q-61 -19 -82 -39.5t-21 -50.5q0 -35 20.5 -54t56.5 -19q79 5 88 110q-2 18 -2 30z" />
    <glyph glyph-name="ccedilla" unicode="&#xe7;" horiz-adv-x="469" 
d="M150 -248l-6 17q90 33 90 83q0 44 -54 59l46 76q-83 8 -137.5 71.5t-54.5 172.5q0 110 75 183.5t169 73.5q64 0 114 -31t50 -74q0 -24 -17 -38.5t-45 -14.5q-5 0 -10.5 0.5t-8.5 1.5h-3l-29 93q-33 29 -73 29q-58 0 -95 -49t-37 -128q0 -95 49 -154.5t119 -59.5
q79 0 142 70l17 -12q-39 -62 -75 -90q-54 -43 -121 -45l-19 -31q77 -18 77 -78q0 -51 -48 -81.5t-115 -43.5z" />
    <glyph glyph-name="egrave" unicode="&#xe8;" horiz-adv-x="479" 
d="M245 -14q-99 0 -155 71t-56 169q0 107 69 184.5t159 77.5q160 0 182 -194h-322q-1 -8 -1 -25q0 -95 46 -150.5t122 -55.5t146 70l16 -12q-22 -36 -43.5 -61.5t-65.5 -49.5t-97 -24zM234 452q-42 0 -71 -34t-38 -94h210q-17 128 -101 128zM138 757h83l54 -203h-29
l-108 195v8z" />
    <glyph glyph-name="eacute" unicode="&#xe9;" horiz-adv-x="479" 
d="M245 -14q-99 0 -155 71t-56 169q0 107 69 184.5t159 77.5q160 0 182 -194h-322q-1 -8 -1 -25q0 -95 46 -150.5t122 -55.5t146 70l16 -12q-22 -36 -43.5 -61.5t-65.5 -49.5t-97 -24zM234 452q-42 0 -71 -34t-38 -94h210q-17 128 -101 128zM292 757h83v-8l-108 -195h-29z
" />
    <glyph glyph-name="ecircumflex" unicode="&#xea;" horiz-adv-x="479" 
d="M245 -14q-99 0 -155 71t-56 169q0 107 69 184.5t159 77.5q160 0 182 -194h-322q-1 -8 -1 -25q0 -95 46 -150.5t122 -55.5t146 70l16 -12q-22 -36 -43.5 -61.5t-65.5 -49.5t-97 -24zM234 452q-42 0 -71 -34t-38 -94h210q-17 128 -101 128zM165 554h-35l107 203h43
l107 -203h-37l-94 128z" />
    <glyph glyph-name="edieresis" unicode="&#xeb;" horiz-adv-x="479" 
d="M245 -14q-99 0 -155 71t-56 169q0 107 69 184.5t159 77.5q160 0 182 -194h-322q-1 -8 -1 -25q0 -95 46 -150.5t122 -55.5t146 70l16 -12q-22 -36 -43.5 -61.5t-65.5 -49.5t-97 -24zM234 452q-42 0 -71 -34t-38 -94h210q-17 128 -101 128zM349 613q-24 0 -41.5 17
t-17.5 41t17.5 41.5t41.5 17.5t42 -17.5t18 -41.5t-18 -41t-42 -17zM162 613q-25 0 -42 17t-17 41t17 41.5t42 17.5q24 0 41.5 -17.5t17.5 -41.5t-17.5 -41t-41.5 -17z" />
    <glyph glyph-name="igrave" unicode="&#xec;" horiz-adv-x="260" 
d="M24 0v22l61 20v344l-59 34v14l153 52v-444l69 -20v-22h-224zM16 757h83l54 -203h-29l-108 195v8z" />
    <glyph glyph-name="iacute" unicode="&#xed;" horiz-adv-x="260" 
d="M171 757h83v-8l-108 -195h-29zM24 0v22l61 20v344l-59 34v14l153 52v-444l69 -20v-22h-224z" />
    <glyph glyph-name="icircumflex" unicode="&#xee;" horiz-adv-x="260" 
d="M24 0v22l61 20v344l-59 34v14l153 52v-444l69 -20v-22h-224zM46 554h-35l98 203h43l97 -203h-36l-85 123z" />
    <glyph glyph-name="idieresis" unicode="&#xef;" horiz-adv-x="260" 
d="M49 613q-25 0 -42 17t-17 41t17 41.5t42 17.5q24 0 41.5 -17.5t17.5 -41.5t-17.5 -41t-41.5 -17zM212 613q-24 0 -41 17t-17 41t17 41.5t41 17.5q25 0 42.5 -17.5t17.5 -41.5t-17.5 -41t-42.5 -17zM24 0v22l61 20v344l-59 34v14l153 52v-444l69 -20v-22h-224z" />
    <glyph glyph-name="eth" unicode="&#xf0;" horiz-adv-x="550" 
d="M109 537l-16 26l128 74q-61 54 -136 99l12 21q105 -40 177 -89l117 67l15 -25l-105 -61q104 -77 156 -174.5t52 -204.5q0 -127 -67.5 -206.5t-169.5 -79.5q-111 0 -174.5 70.5t-63.5 172.5q0 103 69.5 180t162.5 77q53 0 93 -30q-41 88 -115 162zM409 217q0 74 -18 148
q-58 86 -125 86q-58 0 -94 -49t-36 -136q0 -96 40.5 -172.5t112.5 -76.5q55 0 87.5 54.5t32.5 145.5z" />
    <glyph glyph-name="ntilde" unicode="&#xf1;" horiz-adv-x="554" 
d="M24 0v22l61 20v344l-63 34v13l143 53h5l5 -92h2q88 92 172 92q67 0 99 -38t32 -129v-277l62 -21v-21h-216v22l60 20v277q-7 101 -92 101q-53 0 -115 -52v-326l63 -20v-22h-218zM293 603l-35 16q-59 25 -78.5 19.5t-38.5 -47.5l-20 10l5 12q27 65 63.5 84t87.5 -3l44 -18
q48 -18 67.5 -9.5t38.5 49.5l21 -10l-5 -13q-27 -70 -63 -91.5t-87 1.5z" />
    <glyph glyph-name="ograve" unicode="&#xf2;" horiz-adv-x="549" 
d="M259 455q-62 0 -92 -53t-30 -134q0 -62 16 -117.5t52 -94t85 -38.5q55 0 88.5 53t33.5 135q0 114 -43.5 181.5t-109.5 67.5zM275 -16q-110 0 -175.5 71t-65.5 170q0 108 70.5 185.5t170.5 77.5q108 0 174 -65.5t66 -173.5q0 -110 -70 -187.5t-170 -77.5zM156 757h83
l54 -203h-29l-108 195v8z" />
    <glyph glyph-name="oacute" unicode="&#xf3;" horiz-adv-x="549" 
d="M311 757h83v-8l-108 -195h-29zM259 455q-62 0 -92 -53t-30 -134q0 -62 16 -117.5t52 -94t85 -38.5q55 0 88.5 53t33.5 135q0 114 -43.5 181.5t-109.5 67.5zM275 -16q-110 0 -175.5 71t-65.5 170q0 108 70.5 185.5t170.5 77.5q108 0 174 -65.5t66 -173.5
q0 -110 -70 -187.5t-170 -77.5z" />
    <glyph glyph-name="ocircumflex" unicode="&#xf4;" horiz-adv-x="549" 
d="M275 -16q-110 0 -175.5 71t-65.5 170q0 108 70.5 185.5t170.5 77.5q108 0 174 -65.5t66 -173.5q0 -110 -70 -187.5t-170 -77.5zM259 455q-62 0 -92 -53t-30 -134q0 -62 16 -117.5t52 -94t85 -38.5q55 0 88.5 53t33.5 135q0 114 -43.5 181.5t-109.5 67.5zM184 554h-35
l107 203h43l107 -203h-37l-94 128z" />
    <glyph glyph-name="otilde" unicode="&#xf5;" horiz-adv-x="549" 
d="M259 455q-62 0 -92 -53t-30 -134q0 -62 16 -117.5t52 -94t85 -38.5q55 0 88.5 53t33.5 135q0 114 -43.5 181.5t-109.5 67.5zM275 -16q-110 0 -175.5 71t-65.5 170q0 108 70.5 185.5t170.5 77.5q108 0 174 -65.5t66 -173.5q0 -110 -70 -187.5t-170 -77.5zM292 603l-35 16
q-59 25 -78.5 19.5t-38.5 -47.5l-20 10l5 12q27 65 63.5 84t87.5 -3l44 -18q48 -18 67.5 -9.5t38.5 49.5l21 -10l-5 -13q-27 -70 -63 -91.5t-87 1.5z" />
    <glyph glyph-name="odieresis" unicode="&#xf6;" horiz-adv-x="549" 
d="M181 613q-25 0 -42 17t-17 41t17 41.5t42 17.5q24 0 41.5 -17.5t17.5 -41.5t-17.5 -41t-41.5 -17zM368 613q-24 0 -41.5 17t-17.5 41t17.5 41.5t41.5 17.5t42 -17.5t18 -41.5t-18 -41t-42 -17zM259 455q-62 0 -92 -53t-30 -134q0 -62 16 -117.5t52 -94t85 -38.5
q55 0 88.5 53t33.5 135q0 114 -43.5 181.5t-109.5 67.5zM275 -16q-110 0 -175.5 71t-65.5 170q0 108 70.5 185.5t170.5 77.5q108 0 174 -65.5t66 -173.5q0 -110 -70 -187.5t-170 -77.5z" />
    <glyph glyph-name="divide" unicode="&#xf7;" horiz-adv-x="586" 
d="M530 219h-474v39h474v-39zM293 337q-23 0 -41.5 18.5t-18.5 42.5t18.5 42t41.5 18q25 0 43 -18t18 -42t-18 -42.5t-43 -18.5zM292 17q-24 0 -42 18.5t-18 42.5t18.5 42t41.5 18q25 0 43 -18t18 -42q0 -25 -18 -43t-43 -18z" />
    <glyph glyph-name="oslash" unicode="&#xf8;" horiz-adv-x="549" 
d="M74 -50h-37l72 95q-75 69 -75 180q0 108 70.5 185.5t170.5 77.5q82 0 142 -40l60 79h37l-74 -97q75 -67 75 -181q0 -110 -70 -187.5t-170 -77.5q-82 0 -143 42zM259 455q-62 0 -93 -54.5t-29 -134.5q2 -91 26 -151l208 273q-40 67 -112 67zM412 209q-1 92 -26 150
l-208 -273q40 -68 112 -68q56 0 89.5 54t32.5 137z" />
    <glyph glyph-name="ugrave" unicode="&#xf9;" horiz-adv-x="556" 
d="M387 -15l-10 89q-73 -91 -159 -91q-68 0 -104 42.5t-36 116.5v272l-63 24v17l157 25v-318q0 -111 96 -111q57 0 108 45v318l-73 22v18l166 26v-426l71 -25v-18zM157 757h83l54 -203h-29l-108 195v8z" />
    <glyph glyph-name="uacute" unicode="&#xfa;" horiz-adv-x="556" 
d="M387 -15l-10 89q-73 -91 -159 -91q-68 0 -104 42.5t-36 116.5v272l-63 24v17l157 25v-318q0 -111 96 -111q57 0 108 45v318l-73 22v18l166 26v-426l71 -25v-18zM312 757h83v-8l-108 -195h-29z" />
    <glyph glyph-name="ucircumflex" unicode="&#xfb;" horiz-adv-x="556" 
d="M387 -15l-10 89q-73 -91 -159 -91q-68 0 -104 42.5t-36 116.5v272l-63 24v17l157 25v-318q0 -111 96 -111q57 0 108 45v318l-73 22v18l166 26v-426l71 -25v-18zM185 554h-35l107 203h43l107 -203h-37l-94 128z" />
    <glyph glyph-name="udieresis" unicode="&#xfc;" horiz-adv-x="556" 
d="M387 -15l-10 89q-73 -91 -159 -91q-68 0 -104 42.5t-36 116.5v272l-63 24v17l157 25v-318q0 -111 96 -111q57 0 108 45v318l-73 22v18l166 26v-426l71 -25v-18zM368 613q-24 0 -41.5 17t-17.5 41t17.5 41.5t41.5 17.5t42 -17.5t18 -41.5t-18 -41t-42 -17zM181 613
q-25 0 -42 17t-17 41t17 41.5t42 17.5q24 0 41.5 -17.5t17.5 -41.5t-17.5 -41t-41.5 -17z" />
    <glyph glyph-name="yacute" unicode="&#xfd;" horiz-adv-x="470" 
d="M386 427l-70 23v23h156v-24l-47 -19l-221 -596q-32 -84 -99 -84q-25 0 -42 17t-17 41t17 40.5t40 16.5q29 0 59 -37l4 -5l53 143l-178 468l-43 15v24h198v-24l-50 -18l122 -334zM293 757h83v-8l-108 -195h-29z" />
    <glyph glyph-name="thorn" unicode="&#xfe;" horiz-adv-x="536" 
d="M221 -12q-29 0 -63 9v-191l102 -21v-23h-257v23l61 20v855l-62 27v12l156 47v-350q63 90 154 90q76 0 130 -56t54 -168q0 -114 -84.5 -194t-190.5 -80zM258 423q-61 0 -100 -53v-311q41 -34 96 -34q65 0 106 53.5t41 151.5q0 86 -42 139.5t-101 53.5z" />
    <glyph glyph-name="ydieresis" unicode="&#xff;" horiz-adv-x="470" 
d="M386 427l-70 23v23h156v-24l-47 -19l-221 -596q-32 -84 -99 -84q-25 0 -42 17t-17 41t17 40.5t40 16.5q29 0 59 -37l4 -5l53 143l-178 468l-43 15v24h198v-24l-50 -18l122 -334zM347 613q-24 0 -41.5 17t-17.5 41t17.5 41.5t41.5 17.5t42 -17.5t18 -41.5t-18 -41t-42 -17
zM160 613q-25 0 -42 17t-17 41t17 41.5t42 17.5q24 0 41.5 -17.5t17.5 -41.5t-17.5 -41t-41.5 -17z" />
    <glyph glyph-name="Amacron" unicode="&#x100;" horiz-adv-x="669" 
d="M-8 0v23l74 19l231 627l32 7l39 8l236 -643l73 -18v-23h-265v23l79 18l-68 188h-246l-65 -183l116 -23v-23h-236zM299 574l-105 -296h212l-106 296h-1zM184 770v60h292v-60h-292z" />
    <glyph glyph-name="amacron" unicode="&#x101;" horiz-adv-x="470" 
d="M156 -15q-48 0 -84.5 30.5t-36.5 87.5t40 90t123 54l99 25v57q0 56 -25.5 88.5t-66.5 32.5q-40 0 -64 -20l-5 -102q-18 -5 -41 -5q-22 0 -35.5 11.5t-13.5 30.5q0 40 61 80.5t139 40.5q76 0 110.5 -35.5t34.5 -109.5v-275q0 -17 6.5 -23t24.5 -6h50v-16q-59 -33 -98 -33
q-72 0 -75 79h-4q-23 -27 -39 -42t-42.5 -27.5t-57.5 -12.5zM207 49q50 0 90 53v144l-98 -33q-68 -22 -68 -81q0 -35 19.5 -59t56.5 -24zM86 626v59h292v-59h-292z" />
    <glyph glyph-name="Abreve" unicode="&#x102;" horiz-adv-x="669" 
d="M-8 0v23l74 19l231 627l32 7l39 8l236 -643l73 -18v-23h-265v23l79 18l-68 188h-246l-65 -183l116 -23v-23h-236zM299 574l-105 -296h212l-106 296h-1zM325 721q-65 0 -97.5 40t-30.5 95h18q25 -75 116 -75q86 0 111 75h18q3 -54 -33 -94.5t-102 -40.5z" />
    <glyph glyph-name="abreve" unicode="&#x103;" horiz-adv-x="470" 
d="M156 -15q-48 0 -84.5 30.5t-36.5 87.5t40 90t123 54l99 25v57q0 56 -25.5 88.5t-66.5 32.5q-40 0 -64 -20l-5 -102q-18 -5 -41 -5q-22 0 -35.5 11.5t-13.5 30.5q0 40 61 80.5t139 40.5q76 0 110.5 -35.5t34.5 -109.5v-275q0 -17 6.5 -23t24.5 -6h50v-16q-59 -33 -98 -33
q-72 0 -75 79h-4q-23 -27 -39 -42t-42.5 -27.5t-57.5 -12.5zM207 49q50 0 90 53v144l-98 -33q-68 -22 -68 -81q0 -35 19.5 -59t56.5 -24zM229 568q-55 0 -87 42t-32 123h22q24 -100 104 -100q34 0 61 25.5t37 74.5h21q-2 -81 -35 -123t-91 -42z" />
    <glyph glyph-name="Aogonek" unicode="&#x104;" horiz-adv-x="669" 
d="M-8 0v23l74 19l231 627l32 7l39 8l236 -643l73 -18v-23h-147q-96 -57 -96 -125q0 -25 13.5 -41.5t38.5 -16.5q37 0 81 47l16 -11q-17 -29 -31 -47.5t-41.5 -36t-59.5 -17.5q-42 0 -67.5 23.5t-25.5 59.5q0 41 31.5 77.5t112.5 99.5l-78 217h-247l-65 -183l116 -23v-23
h-236zM299 574l-105 -296h212l-106 296h-1z" />
    <glyph glyph-name="aogonek" unicode="&#x105;" horiz-adv-x="470" 
d="M376 -15v3q-74 0 -76 79h-5q-23 -27 -39 -42t-42.5 -27.5t-57.5 -12.5q-48 0 -84.5 30.5t-36.5 87.5q0 58 39.5 90.5t123.5 53.5l99 25v57q0 56 -25.5 88.5t-66.5 32.5q-40 0 -64 -20l-5 -102q-18 -5 -41 -5q-22 0 -35.5 11.5t-13.5 30.5q0 40 61 80.5t139 40.5
q76 0 110.5 -35.5t34.5 -109.5v-275q0 -17 6.5 -23t24.5 -6h50v-16q-92 -53 -125 -85t-33 -66q0 -21 14.5 -37t37.5 -16t39.5 10t42.5 37l15 -11q-17 -29 -30.5 -47.5t-41.5 -36t-60 -17.5q-42 0 -67 23.5t-25 59.5q0 41 33 75t104 75zM207 49q50 0 90 53v144l-98 -33
q-68 -22 -68 -81q0 -35 19.5 -59t56.5 -24z" />
    <glyph glyph-name="Cacute" unicode="&#x106;" horiz-adv-x="717" 
d="M393 -24q-85 0 -153 29.5t-109 78t-62 106.5t-21 120q0 157 112.5 264t269.5 107q113 0 210 -53l5 -171h-27l-52 134q-75 56 -162 56q-101 0 -168.5 -85t-67.5 -215q0 -162 74 -249.5t184 -87.5q78 0 143 55l76 148h28l-28 -171q-130 -66 -252 -66zM467 865h95v-9
l-138 -131h-39z" />
    <glyph glyph-name="cacute" unicode="&#x107;" horiz-adv-x="469" 
d="M300 757h83v-8l-108 -195h-29zM249 -14q-91 0 -153 64.5t-62 180.5q0 110 75 183.5t169 73.5q64 0 114 -31t50 -74q0 -24 -17 -38.5t-45 -14.5q-5 0 -10.5 0.5t-8.5 1.5h-3l-29 93q-33 29 -73 29q-58 0 -95 -49t-37 -128q0 -95 49 -154.5t119 -59.5q79 0 142 70l17 -12
q-39 -62 -74 -90q-57 -45 -128 -45z" />
    <glyph glyph-name="Ccircumflex" unicode="&#x108;" horiz-adv-x="717" 
d="M393 -24q-85 0 -153 29.5t-109 78t-62 106.5t-21 120q0 157 112.5 264t269.5 107q113 0 210 -53l5 -171h-27l-52 134q-75 56 -162 56q-101 0 -168.5 -85t-67.5 -215q0 -162 74 -249.5t184 -87.5q78 0 143 55l76 148h28l-28 -171q-130 -66 -252 -66zM297 725h-42l118 131
h82l110 -131h-45l-109 81z" />
    <glyph glyph-name="ccircumflex" unicode="&#x109;" horiz-adv-x="469" 
d="M249 -14q-91 0 -153 64.5t-62 180.5q0 110 75 183.5t169 73.5q64 0 114 -31t50 -74q0 -24 -17 -38.5t-45 -14.5q-5 0 -10.5 0.5t-8.5 1.5h-3l-29 93q-33 29 -73 29q-58 0 -95 -49t-37 -128q0 -95 49 -154.5t119 -59.5q79 0 142 70l17 -12q-39 -62 -74 -90
q-57 -45 -128 -45zM173 554h-35l107 203h43l107 -203h-37l-94 128z" />
    <glyph glyph-name="Cdotaccent" unicode="&#x10a;" horiz-adv-x="717" 
d="M393 -24q-85 0 -153 29.5t-109 78t-62 106.5t-21 120q0 157 112.5 264t269.5 107q113 0 210 -53l5 -171h-27l-52 134q-75 56 -162 56q-101 0 -168.5 -85t-67.5 -215q0 -162 74 -249.5t184 -87.5q78 0 143 55l76 148h28l-28 -171q-130 -66 -252 -66zM409 742q-26 0 -45 19
t-19 46q0 26 19 45t45 19t45.5 -19t19.5 -45q0 -27 -19.5 -46t-45.5 -19z" />
    <glyph glyph-name="cdotaccent" unicode="&#x10b;" horiz-adv-x="469" 
d="M249 -14q-91 0 -153 64.5t-62 180.5q0 110 75 183.5t169 73.5q64 0 114 -31t50 -74q0 -24 -17 -38.5t-45 -14.5q-5 0 -10.5 0.5t-8.5 1.5h-3l-29 93q-33 29 -73 29q-58 0 -95 -49t-37 -128q0 -95 49 -154.5t119 -59.5q79 0 142 70l17 -12q-39 -62 -74 -90
q-57 -45 -128 -45zM264 607q-26 0 -45 19t-19 45q0 25 19 44t45 19t45 -18.5t19 -44.5t-19 -45t-45 -19z" />
    <glyph glyph-name="Ccaron" unicode="&#x10c;" horiz-adv-x="717" 
d="M393 -24q-85 0 -153 29.5t-109 78t-62 106.5t-21 120q0 157 112.5 264t269.5 107q113 0 210 -53l5 -171h-27l-52 134q-75 56 -162 56q-101 0 -168.5 -85t-67.5 -215q0 -162 74 -249.5t184 -87.5q78 0 143 55l76 148h28l-28 -171q-130 -66 -252 -66zM527 856h43l-119 -131
h-82l-109 131h44l108 -82z" />
    <glyph glyph-name="ccaron" unicode="&#x10d;" horiz-adv-x="469" 
d="M249 -14q-91 0 -153 64.5t-62 180.5q0 110 75 183.5t169 73.5q64 0 114 -31t50 -74q0 -24 -17 -38.5t-45 -14.5q-5 0 -10.5 0.5t-8.5 1.5h-3l-29 93q-33 29 -73 29q-58 0 -95 -49t-37 -128q0 -95 49 -154.5t119 -59.5q79 0 142 70l17 -12q-39 -62 -74 -90
q-57 -45 -128 -45zM358 757h35l-107 -203h-43l-107 203h37l93 -128z" />
    <glyph glyph-name="Dcaron" unicode="&#x10e;" horiz-adv-x="757" 
d="M36 0v24l77 18v578l-77 21v23l297 4q167 -8 272 -92t105 -229q0 -165 -123.5 -258.5t-322.5 -91.5zM219 639v-574q35 -38 125 -36q116 2 185 87.5t69 211.5q0 158 -109.5 240t-269.5 71zM469 856h43l-119 -131h-82l-109 131h44l108 -82z" />
    <glyph glyph-name="dcaron" unicode="&#x10f;" horiz-adv-x="554" 
d="M300 688v15l168 43v-694l67 -18v-18l-148 -30l-10 67q-67 -69 -141 -69q-94 0 -148 67.5t-54 160.5q0 117 82.5 195t184.5 78q35 0 73 -15v185zM283 46q47 0 91 36v308q-36 56 -109 56q-59 0 -98.5 -48t-39.5 -145q0 -49 15 -94t51.5 -79t89.5 -34zM549 528h-21l11 198
h90v-5z" />
    <glyph glyph-name="Dcroat" unicode="&#x110;" horiz-adv-x="757" 
d="M36 0v24l77 18v270h-83v35h83v273l-77 21v23l296 4q168 -8 273 -92t105 -229q0 -165 -123.5 -258.5t-322.5 -91.5zM390 312h-171v-247q33 -36 123 -36q116 0 186 86.5t70 212.5q0 158 -109.5 240t-269.5 71v-292h171v-35z" />
    <glyph glyph-name="dcroat" unicode="&#x111;" horiz-adv-x="554" 
d="M300 688v15l168 43v-154h69v-33h-69v-507l67 -18v-18l-148 -30l-10 67q-67 -69 -141 -69q-94 0 -148 67.5t-54 160.5q0 117 82.5 195t184.5 78q35 0 73 -15v89h-191v33h191v65zM283 46q47 0 91 36v309q-36 55 -109 55q-59 0 -98.5 -48t-39.5 -145q0 -49 15 -94t51.5 -79
t89.5 -34z" />
    <glyph glyph-name="Emacron" unicode="&#x112;" horiz-adv-x="603" 
d="M352 326h-133v-266q18 -22 50 -25h177l101 165h27l-51 -200h-487v23l77 19v577l-77 22v23h425l73 4v-180h-27l-53 142h-235v-269h133l32 95h24v-219h-27zM175 770v60h292v-60h-292z" />
    <glyph glyph-name="emacron" unicode="&#x113;" horiz-adv-x="479" 
d="M245 -14q-99 0 -155 71t-56 169q0 107 69 184.5t159 77.5q160 0 182 -194h-322q-1 -8 -1 -25q0 -95 46 -150.5t122 -55.5t146 70l16 -12q-22 -36 -43.5 -61.5t-65.5 -49.5t-97 -24zM234 452q-42 0 -71 -34t-38 -94h210q-17 128 -101 128zM109 626v59h292v-59h-292z" />
    <glyph glyph-name="Ebreve" unicode="&#x114;" horiz-adv-x="603" 
d="M352 326h-133v-266q18 -22 50 -25h177l101 165h27l-51 -200h-487v23l77 19v577l-77 22v23h425l73 4v-180h-27l-53 142h-235v-269h133l32 95h24v-219h-27zM315 721q-65 0 -97.5 40t-30.5 95h18q25 -75 116 -75q86 0 111 75h18q3 -54 -33 -94.5t-102 -40.5z" />
    <glyph glyph-name="ebreve" unicode="&#x115;" horiz-adv-x="479" 
d="M245 -14q-99 0 -155 71t-56 169q0 107 69 184.5t159 77.5q160 0 182 -194h-322q-1 -8 -1 -25q0 -95 46 -150.5t122 -55.5t146 70l16 -12q-22 -36 -43.5 -61.5t-65.5 -49.5t-97 -24zM234 452q-42 0 -71 -34t-38 -94h210q-17 128 -101 128zM254 568q-55 0 -87 42t-32 123
h22q24 -100 104 -100q34 0 61 25.5t37 74.5h21q-2 -81 -35 -123t-91 -42z" />
    <glyph glyph-name="Edotaccent" unicode="&#x116;" horiz-adv-x="603" 
d="M352 326h-133v-266q18 -22 50 -25h177l101 165h27l-51 -200h-487v23l77 19v577l-77 22v23h425l73 4v-180h-27l-53 142h-235v-269h133l32 95h24v-219h-27zM324 742q-26 0 -45 19t-19 46q0 26 19 45t45 19t45.5 -19t19.5 -45q0 -27 -19.5 -46t-45.5 -19z" />
    <glyph glyph-name="edotaccent" unicode="&#x117;" horiz-adv-x="479" 
d="M245 -14q-99 0 -155 71t-56 169q0 107 69 184.5t159 77.5q160 0 182 -194h-322q-1 -8 -1 -25q0 -95 46 -150.5t122 -55.5t146 70l16 -12q-22 -36 -43.5 -61.5t-65.5 -49.5t-97 -24zM234 452q-42 0 -71 -34t-38 -94h210q-17 128 -101 128zM256 607q-26 0 -45 19t-19 45
q0 25 19 44t45 19t45 -18.5t19 -44.5t-19 -45t-45 -19z" />
    <glyph glyph-name="Eogonek" unicode="&#x118;" horiz-adv-x="603" 
d="M352 326h-133v-266q18 -22 50 -25h177l101 165h27l-51 -200h-67q-86 -71 -86 -125q0 -26 14 -42t38 -16q23 0 39 10t42 37l16 -11q-17 -29 -30.5 -47.5t-41.5 -36t-60 -17.5q-42 0 -67.5 23.5t-25.5 60.5q0 39 32 76.5t98 87.5h-388v23l77 19v577l-77 22v23h425l73 4
v-180h-27l-53 142h-235v-269h133l32 95h24v-219h-27z" />
    <glyph glyph-name="eogonek" unicode="&#x119;" horiz-adv-x="479" 
d="M245 -14q-99 0 -155 71t-56 169q0 107 69 184.5t159 77.5q160 0 182 -194h-322q-1 -8 -1 -25q0 -95 46 -150.5t122 -55.5t146 70l16 -12q-32 -53 -63 -81q-2 -2 -34.5 -32.5t-48.5 -48t-33.5 -45t-17.5 -48.5q0 -20 13 -34.5t37 -14.5q22 0 38.5 10t42.5 37l16 -11
q-14 -23 -23.5 -36t-26.5 -30.5t-37.5 -26t-45.5 -8.5q-42 0 -67 23.5t-25 59.5q0 40 31.5 72t112.5 90v2q-36 -13 -75 -13zM234 452q-42 0 -71 -34t-38 -94h210q-17 128 -101 128z" />
    <glyph glyph-name="Ecaron" unicode="&#x11a;" horiz-adv-x="603" 
d="M352 326h-133v-266q18 -22 50 -25h177l101 165h27l-51 -200h-487v23l77 19v577l-77 22v23h425l73 4v-180h-27l-53 142h-235v-269h133l32 95h24v-219h-27zM432 856h43l-119 -131h-82l-109 131h44l108 -82z" />
    <glyph glyph-name="ecaron" unicode="&#x11b;" horiz-adv-x="479" 
d="M245 -14q-99 0 -155 71t-56 169q0 107 69 184.5t159 77.5q160 0 182 -194h-322q-1 -8 -1 -25q0 -95 46 -150.5t122 -55.5t146 70l16 -12q-22 -36 -43.5 -61.5t-65.5 -49.5t-97 -24zM234 452q-42 0 -71 -34t-38 -94h210q-17 128 -101 128zM350 757h35l-107 -203h-43
l-107 203h37l93 -128z" />
    <glyph glyph-name="Gcircumflex" unicode="&#x11c;" horiz-adv-x="735" 
d="M407 -24q-89 0 -158.5 28.5t-112 76.5t-64 107.5t-21.5 125.5q0 97 54.5 181.5t146.5 135t197 50.5q111 0 203 -53l1 -166h-24l-59 137q-62 44 -133 44q-118 0 -190 -85.5t-72 -225.5q0 -156 77.5 -235.5t189.5 -79.5q66 0 114 21v198l-113 16v28h263v-25l-46 -12v-195
l-32 -16q-102 -56 -221 -56zM310 725h-42l118 131h82l110 -131h-45l-109 81z" />
    <glyph glyph-name="gcircumflex" unicode="&#x11d;" horiz-adv-x="496" 
d="M486 419l-120 8v-3q51 -49 51 -106q0 -73 -57.5 -120t-134.5 -47q-46 0 -86 17q-22 -25 -22 -46q0 -33 48 -36l191 -12q62 -4 95 -32.5t33 -72.5q0 -81 -88 -144.5t-204 -63.5q-80 0 -127 31t-47 90q0 32 26 62t66 51l11 5v4q-30 2 -52.5 20t-22.5 52q0 44 71 102v2
q-73 44 -73 134q0 77 53 124.5t132 47.5q43 0 116 -26l141 16v-57zM349 -14l-199 13q-41 -41 -41 -90q0 -48 36 -75.5t103 -27.5q79 0 120 37t41 80q0 24 -16.5 41t-43.5 22zM137 348q1 -78 28 -123t73 -45q36 0 60.5 32t24.5 85q-1 79 -30 121t-73 42q-39 0 -61 -30.5
t-22 -81.5zM143 554h-35l107 203h43l107 -203h-37l-94 128z" />
    <glyph glyph-name="Gbreve" unicode="&#x11e;" horiz-adv-x="735" 
d="M423 721q-65 0 -97.5 40t-30.5 95h18q25 -75 116 -75q86 0 111 75h18q3 -54 -33 -94.5t-102 -40.5zM407 -24q-89 0 -158.5 28.5t-112 76.5t-64 107.5t-21.5 125.5q0 97 54.5 181.5t146.5 135t197 50.5q111 0 203 -53l1 -166h-24l-59 137q-62 44 -133 44
q-118 0 -190 -85.5t-72 -225.5q0 -156 77.5 -235.5t189.5 -79.5q66 0 114 21v198l-113 16v28h263v-25l-46 -12v-195l-32 -16q-102 -56 -221 -56z" />
    <glyph glyph-name="gbreve" unicode="&#x11f;" horiz-adv-x="496" 
d="M486 419l-120 8v-3q51 -49 51 -106q0 -73 -57.5 -120t-134.5 -47q-46 0 -86 17q-22 -25 -22 -46q0 -33 48 -36l191 -12q62 -4 95 -32.5t33 -72.5q0 -81 -88 -144.5t-204 -63.5q-80 0 -127 31t-47 90q0 32 26 62t66 51l11 5v4q-30 2 -52.5 20t-22.5 52q0 44 71 102v2
q-73 44 -73 134q0 77 53 124.5t132 47.5q43 0 116 -26l141 16v-57zM349 -14l-199 13q-41 -41 -41 -90q0 -48 36 -75.5t103 -27.5q79 0 120 37t41 80q0 24 -16.5 41t-43.5 22zM137 348q1 -78 28 -123t73 -45q36 0 60.5 32t24.5 85q-1 79 -30 121t-73 42q-39 0 -61 -30.5
t-22 -81.5zM231 568q-55 0 -87 42t-32 123h22q24 -100 104 -100q34 0 61 25.5t37 74.5h21q-2 -81 -35 -123t-91 -42z" />
    <glyph glyph-name="Gdotaccent" unicode="&#x120;" horiz-adv-x="735" 
d="M425 742q-26 0 -45 19t-19 46q0 26 19 45t45 19t45.5 -19t19.5 -45q0 -27 -19.5 -46t-45.5 -19zM407 -24q-89 0 -158.5 28.5t-112 76.5t-64 107.5t-21.5 125.5q0 97 54.5 181.5t146.5 135t197 50.5q111 0 203 -53l1 -166h-24l-59 137q-62 44 -133 44q-118 0 -190 -85.5
t-72 -225.5q0 -156 77.5 -235.5t189.5 -79.5q66 0 114 21v198l-113 16v28h263v-25l-46 -12v-195l-32 -16q-102 -56 -221 -56z" />
    <glyph glyph-name="gdotaccent" unicode="&#x121;" horiz-adv-x="496" 
d="M486 419l-120 8v-3q51 -49 51 -106q0 -73 -57.5 -120t-134.5 -47q-46 0 -86 17q-22 -25 -22 -46q0 -33 48 -36l191 -12q62 -4 95 -32.5t33 -72.5q0 -81 -88 -144.5t-204 -63.5q-80 0 -127 31t-47 90q0 32 26 62t66 51l11 5v4q-30 2 -52.5 20t-22.5 52q0 44 71 102v2
q-73 44 -73 134q0 77 53 124.5t132 47.5q43 0 116 -26l141 16v-57zM349 -14l-199 13q-41 -41 -41 -90q0 -48 36 -75.5t103 -27.5q79 0 120 37t41 80q0 24 -16.5 41t-43.5 22zM137 348q1 -78 28 -123t73 -45q36 0 60.5 32t24.5 85q-1 79 -30 121t-73 42q-39 0 -61 -30.5
t-22 -81.5zM234 607q-26 0 -45 19t-19 45q0 25 19 44t45 19t45 -18.5t19 -44.5t-19 -45t-45 -19z" />
    <glyph glyph-name="Gcommaaccent" unicode="&#x122;" horiz-adv-x="735" 
d="M324 -258l-7 20q93 29 93 73q0 21 -16 33.5t-42 14.5v2q9 55 65 55q33 0 51.5 -20t18.5 -52q0 -92 -163 -126zM407 -24q-89 0 -158.5 28.5t-112 76.5t-64 107.5t-21.5 125.5q0 97 54.5 181.5t146.5 135t197 50.5q111 0 203 -53l1 -166h-24l-59 137q-62 44 -133 44
q-118 0 -190 -85.5t-72 -225.5q0 -156 77.5 -235.5t189.5 -79.5q66 0 114 21v198l-113 16v28h263v-25l-46 -12v-195l-32 -16q-102 -56 -221 -56z" />
    <glyph glyph-name="gcommaaccent" unicode="&#x123;" horiz-adv-x="496" 
d="M486 419l-120 8v-3q51 -49 51 -106q0 -73 -57.5 -120t-134.5 -47q-46 0 -86 17q-22 -25 -22 -46q0 -33 48 -36l191 -12q62 -4 95 -32.5t33 -72.5q0 -81 -88 -144.5t-204 -63.5q-80 0 -127 31t-47 90q0 32 26 62t66 51l11 5v4q-30 2 -52.5 20t-22.5 52q0 44 71 102v2
q-73 44 -73 134q0 77 53 124.5t132 47.5q43 0 116 -26l141 16v-57zM349 -14l-199 13q-41 -41 -41 -90q0 -48 36 -75.5t103 -27.5q79 0 120 37t41 80q0 24 -16.5 41t-43.5 22zM137 348q1 -78 28 -123t73 -45q36 0 60.5 32t24.5 85q-1 79 -30 121t-73 42q-39 0 -61 -30.5
t-22 -81.5zM326 801l6 -19q-92 -30 -92 -74q0 -42 57 -47v-3q-11 -54 -64 -54q-33 0 -52 20t-19 52q0 92 164 125z" />
    <glyph glyph-name="Hcircumflex" unicode="&#x124;" horiz-adv-x="763" 
d="M462 0v23l82 19v286h-325v-286l82 -19v-23h-265v23l77 19v578l-77 21v23h265v-23l-82 -21v-259h325v259l-82 21v23h264v-23l-77 -21v-578l77 -19v-23h-264zM266 725h-42l118 131h82l110 -131h-45l-109 81z" />
    <glyph glyph-name="hcircumflex" unicode="&#x125;" horiz-adv-x="560" 
d="M331 0v22l60 20v277q-5 101 -92 101q-48 0 -115 -52v-326l63 -20v-22h-217v22l61 20v603l-59 33v15l152 53v-351q87 91 170 91q68 0 99.5 -37.5t31.5 -129.5v-277l63 -21v-21h-217zM174 763h-42l118 131h82l110 -131h-45l-109 81z" />
    <glyph glyph-name="Hbar" unicode="&#x126;" horiz-adv-x="763" 
d="M462 0v23l82 19v286h-325v-286l82 -19v-23h-265v23l77 19v447h-96v33h96v98l-77 21v23h265v-23l-82 -21v-98h325v98l-82 21v23h264v-23l-77 -21v-98h97v-33h-97v-447l77 -19v-23h-264zM219 489v-128h325v128h-325z" />
    <glyph glyph-name="hbar" unicode="&#x127;" horiz-adv-x="560" 
d="M337 0v22l54 20v277q-5 101 -92 101q-48 0 -115 -52v-326l63 -20v-22h-217v22l61 21v516h-70v33h70v64l-59 22v15l152 53v-154h191v-33h-191v-164q87 91 170 91q68 0 99.5 -37.5t31.5 -129.5v-277l63 -21v-21h-211z" />
    <glyph glyph-name="Itilde" unicode="&#x128;" horiz-adv-x="332" 
d="M36 0v24l77 18v578l-77 21v23h260v-23l-77 -21v-578l77 -19v-23h-260zM185 747l-36 15q-59 23 -79 18t-38 -46l-21 10l5 12q27 66 63.5 85t87.5 -3l44 -18q47 -18 67.5 -9.5t39.5 48.5l21 -10l-5 -12q-30 -72 -63.5 -92t-85.5 2z" />
    <glyph glyph-name="itilde" unicode="&#x129;" horiz-adv-x="260" 
d="M117 616l-10 5q-30 15 -46.5 18t-32 -7.5t-29.5 -39.5l-20 10l5 11q30 66 65.5 84.5t86.5 -5.5l17 -8q38 -18 58 -10t40 49l21 -10l-5 -13q-26 -66 -60.5 -87.5t-89.5 3.5zM24 0v22l61 20v344l-59 34v14l153 52v-444l69 -20v-22h-224z" />
    <glyph glyph-name="Imacron" unicode="&#x12a;" horiz-adv-x="332" 
d="M36 0v24l77 18v578l-77 21v23h260v-23l-77 -21v-578l77 -19v-23h-260zM34 770v60h265v-60h-265z" />
    <glyph glyph-name="imacron" unicode="&#x12b;" horiz-adv-x="260" 
d="M24 0v22l61 20v344l-59 34v14l153 52v-444l69 -20v-22h-224zM11 626v59h238v-59h-238z" />
    <glyph glyph-name="Ibreve" unicode="&#x12c;" horiz-adv-x="332" 
d="M36 0v24l77 18v578l-77 21v23h260v-23l-77 -21v-578l77 -19v-23h-260zM163 721q-65 0 -97.5 40t-30.5 95h18q25 -75 116 -75q86 0 111 75h18q3 -54 -33 -94.5t-102 -40.5z" />
    <glyph glyph-name="ibreve" unicode="&#x12d;" horiz-adv-x="260" 
d="M24 0v22l61 20v344l-59 34v14l153 52v-444l69 -20v-22h-224zM131 568q-55 0 -87 42t-32 123h22q24 -100 104 -100q34 0 61 25.5t37 74.5h21q-2 -81 -35 -123t-91 -42z" />
    <glyph glyph-name="Iogonek" unicode="&#x12e;" horiz-adv-x="332" 
d="M36 0v24l77 18v578l-77 21v23h260v-23l-77 -21v-578l77 -19v-23h-121q-47 -88 -47 -125q0 -26 13.5 -42t37.5 -16q23 0 39.5 10t42.5 37l16 -11q-18 -30 -31.5 -48t-41 -35.5t-59.5 -17.5q-42 0 -67.5 23.5t-25.5 60.5q0 32 20.5 65t76.5 99h-113z" />
    <glyph glyph-name="iogonek" unicode="&#x12f;" horiz-adv-x="260" 
d="M24 0v22l61 20v344l-59 34v14l153 52v-444l69 -20v-22h-105q-47 -88 -47 -125q0 -26 13.5 -42t37.5 -16q23 0 39.5 10t42.5 37l15 -11q-17 -29 -30.5 -47.5t-41.5 -36t-60 -17.5q-42 0 -67 23.5t-25 60.5q0 32 20.5 65t76.5 99h-93zM126 607q-26 0 -45.5 19.5t-19.5 44.5
t19.5 44t45.5 19q24 0 43.5 -19t19.5 -44t-19.5 -44.5t-43.5 -19.5z" />
    <glyph glyph-name="Idotaccent" unicode="&#x130;" horiz-adv-x="332" 
d="M36 0v24l77 18v578l-77 21v23h260v-23l-77 -21v-578l77 -19v-23h-260zM166 742q-26 0 -45 19t-19 46q0 26 19 45t45 19t45.5 -19t19.5 -45q0 -27 -19.5 -46t-45.5 -19z" />
    <glyph glyph-name="dotlessi" unicode="&#x131;" horiz-adv-x="260" 
d="M24 0v22l61 20v344l-59 34v14l153 52v-444l69 -20v-22h-224z" />
    <glyph glyph-name="IJ" unicode="&#x132;" horiz-adv-x="655" 
d="M36 0v24l77 18v578l-77 21v23h260v-23l-77 -21v-578l77 -19v-23h-260zM542 620v-565q0 -120 -48.5 -189t-174.5 -89l-6 23q73 27 98.5 81t25.5 148v591l-87 21v23h269v-23z" />
    <glyph glyph-name="ij" unicode="&#x133;" horiz-adv-x="500" 
d="M24 0v22l61 20v344l-59 34v14l153 52v-444l69 -20v-22h-224zM126 607q-26 0 -45.5 19.5t-19.5 44.5t19.5 44t45.5 19q24 0 43.5 -19t19.5 -44t-19.5 -44.5t-43.5 -19.5zM238 -248l-5 17q59 33 77.5 81.5t20.5 163.5v372l-58 34v14l151 52v-454q0 -135 -35 -183
q-50 -64 -151 -97zM373 607q-26 0 -45.5 19.5t-19.5 44.5t19.5 44t45.5 19q24 0 43.5 -19t19.5 -44t-19.5 -44.5t-43.5 -19.5z" />
    <glyph glyph-name="Jcircumflex" unicode="&#x134;" horiz-adv-x="341" 
d="M228 620v-565q0 -120 -48.5 -189t-174.5 -89l-6 23q73 27 98.5 81t25.5 148v591l-87 21v23h269v-23zM61 725h-42l118 131h82l110 -131h-45l-109 81z" />
    <glyph glyph-name="jcircumflex" unicode="&#x135;" horiz-adv-x="255" 
d="M-8 -248l-5 17q59 33 77.5 81.5t20.5 163.5v372l-58 34v14l151 52v-454q0 -135 -35 -183q-50 -64 -151 -97zM47 554h-35l97 203h44l97 -203h-36l-85 123z" />
    <glyph glyph-name="Kcommaaccent" unicode="&#x136;" horiz-adv-x="667" 
d="M36 0v23l77 19v578l-77 21v23h265v-23l-82 -21v-578l82 -19v-23h-265zM501 0l-269 336v4l270 280l-91 21v23h216v-23l-75 -21l-233 -233l285 -349l62 -15v-23h-165zM270 -258l-7 20q93 29 93 73q0 21 -16 33.5t-42 14.5v2q9 55 65 55q33 0 51.5 -20t18.5 -52
q0 -92 -163 -126z" />
    <glyph glyph-name="kcommaaccent" unicode="&#x137;" horiz-adv-x="510" 
d="M91 42v603l-59 33v15l152 53v-704l63 -20v-22h-217v22zM453 -12q-31 0 -56.5 15.5t-56.5 55.5l-149 192l187 170l-67 31v21h189v-18l-66 -27l-164 -145l240 -275q-24 -20 -57 -20zM187 -258l-7 20q93 29 93 73q0 21 -16 33.5t-42 14.5v2q9 55 65 55q33 0 51.5 -20
t18.5 -52q0 -92 -163 -126z" />
    <glyph glyph-name="kgreenlandic" unicode="&#x138;" horiz-adv-x="505" 
d="M24 0v22l61 20v344l-63 34v13l157 53v-444l63 -20v-22h-218zM447 -12q-30 0 -55.5 15.5t-56.5 55.5l-149 192l186 170l-66 31v21h188v-18l-65 -27l-164 -144l240 -276q-25 -20 -58 -20z" />
    <glyph glyph-name="Lacute" unicode="&#x139;" horiz-adv-x="590" 
d="M230 865h95v-9l-138 -131h-39zM219 60q18 -23 51 -24h176l100 195h29l-48 -231h-491v24l77 18v577l-77 22v23h274v-23l-91 -21v-560z" />
    <glyph glyph-name="lacute" unicode="&#x13a;" horiz-adv-x="271" 
d="M183 905h95v-9l-138 -131h-39zM27 0v22l64 20v603l-59 33v15l152 53v-704l70 -20v-22h-227z" />
    <glyph glyph-name="Lcommaaccent" unicode="&#x13b;" horiz-adv-x="590" 
d="M210 -258l-7 20q93 29 93 73q0 21 -16 33.5t-42 14.5v2q9 55 65 55q33 0 51.5 -20t18.5 -52q0 -92 -163 -126zM219 60q18 -23 51 -24h176l100 195h29l-48 -231h-491v24l77 18v577l-77 22v23h274v-23l-91 -21v-560z" />
    <glyph glyph-name="lcommaaccent" unicode="&#x13c;" horiz-adv-x="271" 
d="M36 -258l-7 20q93 29 93 73q0 21 -16 33.5t-42 14.5v2q9 55 65 55q33 0 51.5 -20t18.5 -52q0 -92 -163 -126zM27 0v22l64 20v603l-59 33v15l152 53v-704l70 -20v-22h-227z" />
    <glyph glyph-name="Lcaron" unicode="&#x13d;" horiz-adv-x="590" 
d="M435 528h-21l11 198h90v-5zM219 60q18 -23 51 -24h176l100 195h29l-48 -231h-491v24l77 18v577l-77 22v23h274v-23l-91 -21v-560z" />
    <glyph glyph-name="lcaron" unicode="&#x13e;" horiz-adv-x="271" 
d="M257 528h-21l11 198h90v-5zM27 0v22l64 20v603l-59 33v15l152 53v-704l70 -20v-22h-227z" />
    <glyph glyph-name="Ldot" unicode="&#x13f;" horiz-adv-x="597" 
d="M497 300q-25 0 -43.5 19t-18.5 44t18.5 43.5t43.5 18.5t44 -18.5t19 -43.5t-19 -44t-44 -19zM219 60q18 -23 51 -24h176l94 173h30l-43 -209h-491v24l77 18v577l-77 22v23h274v-23l-91 -21v-560z" />
    <glyph glyph-name="ldot" unicode="&#x140;" horiz-adv-x="313" 
d="M293 305q-25 0 -43 18.5t-18 43.5t18 43.5t43 18.5q26 0 44.5 -18t18.5 -44t-18.5 -44t-44.5 -18zM27 0v22l64 20v603l-59 33v15l152 53v-704l70 -20v-22h-227z" />
    <glyph glyph-name="Lslash" unicode="&#x141;" horiz-adv-x="590" 
d="M30 259v33l83 23v304l-77 22v23h274v-23l-91 -21v-274l217 62v-33l-217 -62v-253q18 -21 51 -24h176l100 195h29l-48 -231h-491v24l77 18v240z" />
    <glyph glyph-name="lslash" unicode="&#x142;" horiz-adv-x="271" 
d="M10 287v35l81 44v279l-59 33v15l152 53v-329l89 49v-36l-89 -49v-339l70 -20v-22h-227v22l64 20v289z" />
    <glyph glyph-name="Nacute" unicode="&#x143;" horiz-adv-x="723" 
d="M622 -10l-28 -1l-439 566l1 -508l89 -23v-24h-204v24l73 21v551q-24 27 -67 40l-17 6v22h173l376 -487l-1 441l-88 22v24h203v-24l-73 -21v-506zM434 865h95v-9l-138 -131h-39z" />
    <glyph glyph-name="nacute" unicode="&#x144;" horiz-adv-x="554" 
d="M24 0v22l61 20v344l-63 34v13l143 53h5l5 -92h2q88 92 172 92q67 0 99 -38t32 -129v-277l62 -21v-21h-216v22l60 20v277q-7 101 -92 101q-53 0 -115 -52v-326l63 -20v-22h-218zM313 757h83v-8l-108 -195h-29z" />
    <glyph glyph-name="Ncommaaccent" unicode="&#x145;" horiz-adv-x="723" 
d="M622 -10l-28 -1l-439 566l1 -508l89 -23v-24h-204v24l73 21v551q-24 27 -67 40l-17 6v22h173l376 -487l-1 441l-88 22v24h203v-24l-73 -21v-506zM287 -258l-7 20q93 29 93 73q0 21 -16 33.5t-42 14.5v2q9 55 65 55q33 0 51.5 -20t18.5 -52q0 -92 -163 -126z" />
    <glyph glyph-name="ncommaaccent" unicode="&#x146;" horiz-adv-x="554" 
d="M24 0v22l61 20v344l-63 34v13l143 53h5l5 -92h2q88 92 172 92q67 0 99 -38t32 -129v-277l62 -21v-21h-216v22l60 20v277q-7 101 -92 101q-53 0 -115 -52v-326l63 -20v-22h-218zM187 -258l-7 20q93 29 93 73q0 21 -16 33.5t-42 14.5v2q9 55 65 55q33 0 51.5 -20t18.5 -52
q0 -92 -163 -126z" />
    <glyph glyph-name="Ncaron" unicode="&#x147;" horiz-adv-x="723" 
d="M622 -10l-28 -1l-439 566l1 -508l89 -23v-24h-204v24l73 21v551q-24 27 -67 40l-17 6v22h173l376 -487l-1 441l-88 22v24h203v-24l-73 -21v-506zM494 856h43l-119 -131h-82l-109 131h44l108 -82z" />
    <glyph glyph-name="ncaron" unicode="&#x148;" horiz-adv-x="554" 
d="M24 0v22l61 20v344l-63 34v13l143 53h5l5 -92h2q88 92 172 92q67 0 99 -38t32 -129v-277l62 -21v-21h-216v22l60 20v277q-7 101 -92 101q-53 0 -115 -52v-326l63 -20v-22h-218zM376 757h35l-107 -203h-43l-107 203h37l93 -128z" />
    <glyph glyph-name="napostrophe" unicode="&#x149;" horiz-adv-x="554" 
d="M24 0v22l61 20v344l-63 34v13l143 53h5l5 -92h2q88 92 172 92q67 0 99 -38t32 -129v-277l62 -21v-21h-216v22l60 20v277q-7 101 -92 101q-53 0 -115 -52v-326l63 -20v-22h-218zM-32 544l-7 20q93 29 93 73q0 21 -16 33.5t-42 14.5v2q9 55 65 55q33 0 51.5 -20t18.5 -52
q0 -92 -163 -126z" />
    <glyph glyph-name="Eng" unicode="&#x14a;" horiz-adv-x="724" 
d="M693 640l-73 -21v-562q0 -59 -10 -102.5t-34 -82t-70 -62.5t-113 -33l-5 24q167 40 167 219v19l-400 516l1 -508l89 -23v-24h-204v24l73 21v551q-24 27 -67 40l-17 6v22h173l376 -487l-1 441l-88 22v24h203v-24z" />
    <glyph glyph-name="eng" unicode="&#x14b;" horiz-adv-x="556" 
d="M387 14v305q-9 101 -93 101q-53 0 -115 -52v-326l63 -20v-22h-218v22l61 20v344l-63 34v13l143 53h5l5 -92h2q88 92 172 92q67 0 99 -38t32 -129v-287q0 -127 -41 -183q-50 -64 -151 -97l-6 17q61 33 81.5 83t23.5 162z" />
    <glyph glyph-name="Omacron" unicode="&#x14c;" horiz-adv-x="781" 
d="M244 770v60h292v-60h-292zM405 7q54 0 96.5 26t67.5 69.5t37.5 96.5t12.5 112q0 133 -70.5 236t-172.5 103q-105 0 -160.5 -86.5t-55.5 -211.5q0 -80 27 -157t84.5 -132.5t133.5 -55.5zM389 681q156 0 250 -101.5t94 -233.5q0 -169 -100.5 -269.5t-242.5 -100.5
q-141 0 -242 98t-101 254q0 157 101 255t241 98z" />
    <glyph glyph-name="omacron" unicode="&#x14d;" horiz-adv-x="549" 
d="M129 626v59h292v-59h-292zM259 455q-62 0 -92 -53t-30 -134q0 -62 16 -117.5t52 -94t85 -38.5q55 0 88.5 53t33.5 135q0 114 -43.5 181.5t-109.5 67.5zM275 -16q-110 0 -175.5 71t-65.5 170q0 108 70.5 185.5t170.5 77.5q108 0 174 -65.5t66 -173.5q0 -110 -70 -187.5
t-170 -77.5z" />
    <glyph glyph-name="Obreve" unicode="&#x14e;" horiz-adv-x="781" 
d="M386 721q-65 0 -97.5 40t-30.5 95h18q25 -75 116 -75q86 0 111 75h18q3 -54 -33 -94.5t-102 -40.5zM405 7q54 0 96.5 26t67.5 69.5t37.5 96.5t12.5 112q0 133 -70.5 236t-172.5 103q-105 0 -160.5 -86.5t-55.5 -211.5q0 -80 27 -157t84.5 -132.5t133.5 -55.5zM389 681
q156 0 250 -101.5t94 -233.5q0 -169 -100.5 -269.5t-242.5 -100.5q-141 0 -242 98t-101 254q0 157 101 255t241 98z" />
    <glyph glyph-name="obreve" unicode="&#x14f;" horiz-adv-x="549" 
d="M259 455q-62 0 -92 -53t-30 -134q0 -62 16 -117.5t52 -94t85 -38.5q55 0 88.5 53t33.5 135q0 114 -43.5 181.5t-109.5 67.5zM275 -16q-110 0 -175.5 71t-65.5 170q0 108 70.5 185.5t170.5 77.5q108 0 174 -65.5t66 -173.5q0 -110 -70 -187.5t-170 -77.5zM271 568
q-55 0 -87 42t-32 123h22q24 -100 104 -100q34 0 61 25.5t37 74.5h21q-2 -81 -35 -123t-91 -42z" />
    <glyph glyph-name="Ohungarumlaut" unicode="&#x150;" horiz-adv-x="781" 
d="M340 865h80v-9l-109 -131h-36zM517 865h79v-9l-108 -131h-37zM405 7q54 0 96.5 26t67.5 69.5t37.5 96.5t12.5 112q0 133 -70.5 236t-172.5 103q-105 0 -160.5 -86.5t-55.5 -211.5q0 -80 27 -157t84.5 -132.5t133.5 -55.5zM389 681q156 0 250 -101.5t94 -233.5
q0 -169 -100.5 -269.5t-242.5 -100.5q-141 0 -242 98t-101 254q0 157 101 255t241 98z" />
    <glyph glyph-name="ohungarumlaut" unicode="&#x151;" horiz-adv-x="549" 
d="M238 757h76v-9l-97 -194h-27zM372 757h77v-9l-98 -194h-27zM259 455q-62 0 -92 -53t-30 -134q0 -62 16 -117.5t52 -94t85 -38.5q55 0 88.5 53t33.5 135q0 114 -43.5 181.5t-109.5 67.5zM275 -16q-110 0 -175.5 71t-65.5 170q0 108 70.5 185.5t170.5 77.5q108 0 174 -65.5
t66 -173.5q0 -110 -70 -187.5t-170 -77.5z" />
    <glyph glyph-name="OE" unicode="&#x152;" horiz-adv-x="1013" 
d="M711 664h144l76 4v-180h-27l-54 142h-228v-269h127l31 95h24v-219h-27l-28 89h-127v-266q18 -23 50 -24h170l102 164h26l-50 -200h-279q-46 0 -115.5 -3t-122.5 -3q-167 0 -261.5 91t-94.5 242q0 157 101.5 250t265.5 93q30 0 110 -3t187 -3zM393 25q74 0 100.5 26.5
t26.5 95.5v470q-58 23 -115 23q-113 0 -179 -76t-66 -213q0 -79 24 -151t79 -123.5t130 -51.5z" />
    <glyph glyph-name="oe" unicode="&#x153;" horiz-adv-x="880" 
d="M637 -16q-127 0 -179 116q-29 -54 -76 -85t-108 -31q-111 0 -175.5 71t-64.5 170q0 108 70.5 185.5t170.5 77.5q141 0 192 -114q30 53 81.5 82.5t114.5 29.5q79 0 125 -55t52 -158h-341v-7q0 -91 53 -146.5t128 -55.5q18 0 35 3.5t30.5 9.5t25.5 13.5t21 14.5t15.5 13
t10.5 10l4 5l15 -10l-7 -12q-6 -12 -14.5 -26.5t-25.5 -33t-37 -33t-50.5 -24.5t-65.5 -10zM259 455q-62 0 -92.5 -54.5t-28.5 -134.5q1 -62 16.5 -116.5t51 -93.5t84.5 -39q56 0 89.5 54.5t32.5 137.5q-1 113 -44 179.5t-109 66.5zM631 448q-49 0 -85.5 -39t-44.5 -106h226
q-1 62 -24.5 103.5t-71.5 41.5z" />
    <glyph glyph-name="Racute" unicode="&#x154;" horiz-adv-x="654" 
d="M36 0v23l77 19v579l-77 20v23l229 3q142 1 213.5 -42t71.5 -121q0 -118 -153 -166v-2l193 -294l67 -19v-23h-164l-158 245l-39 61h-77v-264l77 -19v-23h-260zM219 642v-303h82q63 7 102.5 46t39.5 97q0 73 -60.5 117.5t-163.5 42.5zM367 865h95v-9l-138 -131h-39z" />
    <glyph glyph-name="racute" unicode="&#x155;" horiz-adv-x="364" 
d="M24 0v22l61 20v344l-63 34v13l143 53h5l3 -129h4l12 21q36 66 61 88t56 22q23 0 38.5 -13.5t15.5 -36.5q0 -36 -37 -60l-67 26q-17 -4 -40 -30t-37 -62v-270l77 -20v-22h-232zM229 757h83v-8l-108 -195h-29z" />
    <glyph glyph-name="Rcommaaccent" unicode="&#x156;" horiz-adv-x="654" 
d="M36 0v23l77 19v579l-77 20v23l229 3q142 1 213.5 -42t71.5 -121q0 -118 -153 -166v-2l193 -294l67 -19v-23h-164l-158 245l-39 61h-77v-264l77 -19v-23h-260zM219 642v-303h82q63 7 102.5 46t39.5 97q0 73 -60.5 117.5t-163.5 42.5zM259 -258l-7 20q93 29 93 73
q0 21 -16 33.5t-42 14.5v2q9 55 65 55q33 0 51.5 -20t18.5 -52q0 -92 -163 -126z" />
    <glyph glyph-name="rcommaaccent" unicode="&#x157;" horiz-adv-x="364" 
d="M24 0v22l61 20v344l-63 34v13l143 53h5l3 -129h4l12 21q36 66 61 88t56 22q23 0 38.5 -13.5t15.5 -36.5q0 -36 -37 -60l-67 26q-17 -4 -40 -30t-37 -62v-270l77 -20v-22h-232zM35 -258l-7 20q93 29 93 73q0 21 -16 33.5t-42 14.5v2q9 55 65 55q33 0 51.5 -20t18.5 -52
q0 -92 -163 -126z" />
    <glyph glyph-name="Rcaron" unicode="&#x158;" horiz-adv-x="654" 
d="M36 0v23l77 19v579l-77 20v23l229 3q142 1 213.5 -42t71.5 -121q0 -118 -153 -166v-2l193 -294l67 -19v-23h-164l-158 245l-39 61h-77v-264l77 -19v-23h-260zM219 642v-303h82q63 7 102.5 46t39.5 97q0 73 -60.5 117.5t-163.5 42.5zM428 856h43l-119 -131h-82l-109 131
h44l108 -82z" />
    <glyph glyph-name="rcaron" unicode="&#x159;" horiz-adv-x="364" 
d="M24 0v22l61 20v344l-63 34v13l143 53h5l3 -129h4l12 21q36 66 61 88t56 22q23 0 38.5 -13.5t15.5 -36.5q0 -36 -37 -60l-67 26q-17 -4 -40 -30t-37 -62v-270l77 -20v-22h-232zM287 757h35l-107 -203h-43l-107 203h37l93 -128z" />
    <glyph glyph-name="Sacute" unicode="&#x15a;" horiz-adv-x="521" 
d="M56 33l-9 171h25l61 -152q48 -38 119 -38q61 0 98.5 36t37.5 94q0 43 -25.5 76.5t-94.5 65.5l-49 23q-87 41 -121 80.5t-34 104.5q0 81 65.5 135.5t164.5 54.5q78 0 154 -46l6 -153h-24l-57 131q-41 36 -90 36q-55 0 -88 -32.5t-33 -79.5q0 -48 24.5 -76t91.5 -60l48 -23
q96 -45 130.5 -87.5t34.5 -101.5q0 -92 -76.5 -151.5t-172.5 -59.5q-89 0 -186 52zM324 865h95v-9l-138 -131h-39z" />
    <glyph glyph-name="sacute" unicode="&#x15b;" horiz-adv-x="410" 
d="M248 757h83v-8l-108 -195h-29zM176 -17q-66 0 -132 35l-6 145h20l50 -118q30 -30 75 -30q44 0 70.5 26t26.5 63q0 31 -17 50t-59 36l-67 28q-93 38 -93 125q0 64 53 104t131 40q64 0 121 -32l-1 -125h-19l-45 101q-33 25 -68 25q-38 0 -60.5 -23t-22.5 -55t18.5 -51
t60.5 -35l44 -18q63 -25 89.5 -55t26.5 -75q0 -70 -58.5 -115.5t-137.5 -45.5z" />
    <glyph glyph-name="Scircumflex" unicode="&#x15c;" horiz-adv-x="521" 
d="M56 33l-9 171h25l61 -152q48 -38 119 -38q61 0 98.5 36t37.5 94q0 43 -25.5 76.5t-94.5 65.5l-49 23q-87 41 -121 80.5t-34 104.5q0 81 65.5 135.5t164.5 54.5q78 0 154 -46l6 -153h-24l-57 131q-41 36 -90 36q-55 0 -88 -32.5t-33 -79.5q0 -48 24.5 -76t91.5 -60l48 -23
q96 -45 130.5 -87.5t34.5 -101.5q0 -92 -76.5 -151.5t-172.5 -59.5q-89 0 -186 52zM166 725h-42l118 131h82l110 -131h-45l-109 81z" />
    <glyph glyph-name="scircumflex" unicode="&#x15d;" horiz-adv-x="410" 
d="M176 -17q-66 0 -132 35l-6 145h20l50 -118q30 -30 75 -30q44 0 70.5 26t26.5 63q0 31 -17 50t-59 36l-67 28q-93 38 -93 125q0 64 53 104t131 40q64 0 121 -32l-1 -125h-19l-45 101q-33 25 -68 25q-38 0 -60.5 -23t-22.5 -55t18.5 -50.5t60.5 -35.5l44 -18
q63 -25 89.5 -55t26.5 -75q0 -70 -58.5 -115.5t-137.5 -45.5zM120 554h-35l107 203h43l107 -203h-37l-94 128z" />
    <glyph glyph-name="Scedilla" unicode="&#x15e;" horiz-adv-x="521" 
d="M164 -253l-6 17q90 33 90 83q0 44 -54 59l46 75q-91 1 -184 52l-9 171h25l61 -152q48 -38 119 -38q61 0 98.5 36t37.5 94q0 43 -25.5 76.5t-94.5 65.5l-49 23q-87 41 -121 80.5t-34 104.5q0 81 65.5 135.5t164.5 54.5q78 0 154 -46l6 -153h-24l-57 131q-41 36 -90 36
q-55 0 -88 -32.5t-33 -79.5q0 -48 24.5 -76t91.5 -60l48 -23q96 -45 130.5 -87.5t34.5 -101.5q0 -84 -66 -142t-154 -67l-21 -33q77 -18 77 -78q0 -51 -48 -81.5t-115 -43.5z" />
    <glyph glyph-name="scedilla" unicode="&#x15f;" horiz-adv-x="410" 
d="M98 -248l-6 17q90 33 90 83q0 44 -54 59l44 72q-67 1 -128 35l-6 145h20l50 -118q30 -30 75 -30q44 0 70.5 26t26.5 63q0 31 -17 50t-59 36l-67 28q-93 38 -93 125q0 64 53 104t131 40q64 0 121 -32l-1 -125h-19l-45 101q-33 25 -68 25q-38 0 -60.5 -23t-22.5 -55
t18.5 -50.5t60.5 -35.5l44 -18q63 -25 89.5 -55t26.5 -75q0 -64 -49 -107.5t-121 -51.5l-18 -30q77 -18 77 -78q0 -51 -48 -81.5t-115 -43.5z" />
    <glyph glyph-name="Scaron" unicode="&#x160;" horiz-adv-x="521" 
d="M56 33l-9 171h25l61 -152q48 -38 119 -38q61 0 98.5 36t37.5 94q0 43 -25.5 76.5t-94.5 65.5l-49 23q-87 41 -121 80.5t-34 104.5q0 81 65.5 135.5t164.5 54.5q78 0 154 -46l6 -153h-24l-57 131q-41 36 -90 36q-55 0 -88 -32.5t-33 -79.5q0 -48 24.5 -76t91.5 -60l48 -23
q96 -45 130.5 -87.5t34.5 -101.5q0 -92 -76.5 -151.5t-172.5 -59.5q-89 0 -186 52zM394 856h43l-119 -131h-82l-109 131h44l108 -82z" />
    <glyph glyph-name="scaron" unicode="&#x161;" horiz-adv-x="410" 
d="M176 -17q-66 0 -132 35l-6 145h20l50 -118q30 -30 75 -30q44 0 70.5 26t26.5 63q0 31 -17 50t-59 36l-67 28q-93 38 -93 125q0 64 53 104t131 40q64 0 121 -32l-1 -125h-19l-45 101q-33 25 -68 25q-38 0 -60.5 -23t-22.5 -55t18.5 -50.5t60.5 -35.5l44 -18
q63 -25 89.5 -55t26.5 -75q0 -70 -58.5 -115.5t-137.5 -45.5zM305 757h35l-107 -203h-43l-107 203h37l93 -128z" />
    <glyph glyph-name="Tcommaaccent" unicode="&#x162;" horiz-adv-x="626" 
d="M95 664h436l64 7l2 -189h-26l-54 147h-151v-587l91 -19v-23h-290v23l93 19v587h-151l-54 -147h-26l2 189zM214 -258l-7 20q93 29 93 73q0 21 -16 33.5t-42 14.5v2q9 55 65 55q33 0 51.5 -20t18.5 -52q0 -92 -163 -126z" />
    <glyph glyph-name="tcommaaccent" unicode="&#x163;" horiz-adv-x="328" 
d="M188 -11q-59 0 -84 30t-24 87l3 318h-74v30l74 22l68 125h23v-128h138v-52h-138v-315q5 -36 24 -50t53 -14q16 0 33 3.5t26 6.5t10 4l6 -19l-6 -4l-13.5 -9t-20.5 -11.5t-27 -11.5t-33 -8.5t-38 -3.5zM84 -258l-7 20q93 29 93 73q0 21 -16 33.5t-42 14.5v2q9 55 65 55
q33 0 51.5 -20t18.5 -52q0 -92 -163 -126z" />
    <glyph glyph-name="Tcaron" unicode="&#x164;" horiz-adv-x="626" 
d="M95 664h436l64 7l2 -189h-26l-54 147h-151v-587l91 -19v-23h-290v23l93 19v587h-151l-54 -147h-26l2 189zM421 856h43l-119 -131h-82l-109 131h44l108 -82z" />
    <glyph glyph-name="tcaron" unicode="&#x165;" horiz-adv-x="328" 
d="M188 -11q-59 0 -84 30t-24 87l3 318h-74v30l74 22l68 125h23v-128h138v-52h-138v-315q5 -36 24 -50t53 -14q16 0 33 3.5t26 6.5t10 4l6 -19l-6 -4l-13.5 -9t-20.5 -11.5t-27 -11.5t-33 -8.5t-38 -3.5zM269 545h-21l11 198h90v-5z" />
    <glyph glyph-name="Tbar" unicode="&#x166;" horiz-adv-x="626" 
d="M87 344v32h173v252h-151l-54 -146h-26l2 189l64 -7h436l64 7l2 -189h-26l-54 146h-151v-252h172v-32h-172v-302l91 -19v-23h-290v23l93 19v302h-173z" />
    <glyph glyph-name="tbar" unicode="&#x167;" horiz-adv-x="328" 
d="M15 282v40h67l1 102h-74v30l74 22l68 125h23v-128h138v-52h-138v-99h137v-40h-137v-176q5 -36 24 -50t53 -14q16 0 33 3.5t26 6.5t10 4l6 -19l-6 -4l-13.5 -9t-20.5 -11.5t-27 -11.5t-33 -8.5t-38 -3.5q-59 0 -84 30t-24 87l2 176h-67z" />
    <glyph glyph-name="Utilde" unicode="&#x168;" horiz-adv-x="735" 
d="M365 -23q-262 0 -262 277v365l-78 22v23h273v-23l-86 -22v-346q0 -243 176 -243q186 0 197 217l-1 363l-115 31v23h241v-23l-78 -25v-357q0 -137 -74 -209.5t-193 -72.5zM399 747l-36 15q-59 23 -79 18t-38 -46l-21 10l5 12q27 66 63.5 85t87.5 -3l44 -18
q47 -18 67.5 -9.5t39.5 48.5l21 -10l-5 -12q-30 -72 -63.5 -92t-85.5 2z" />
    <glyph glyph-name="utilde" unicode="&#x169;" horiz-adv-x="556" 
d="M387 -15l-10 89q-73 -91 -159 -91q-68 0 -104 42.5t-36 116.5v272l-63 24v17l157 25v-318q0 -111 96 -111q57 0 108 45v318l-73 22v18l166 26v-426l71 -25v-18zM293 603l-35 16q-59 25 -78.5 19.5t-38.5 -47.5l-20 10l5 12q27 65 63.5 84t87.5 -3l44 -18
q48 -18 67.5 -9.5t38.5 49.5l21 -10l-5 -13q-27 -70 -63 -91.5t-87 1.5z" />
    <glyph glyph-name="Umacron" unicode="&#x16a;" horiz-adv-x="735" 
d="M365 -23q-262 0 -262 277v365l-78 22v23h273v-23l-86 -22v-346q0 -243 176 -243q186 0 197 217l-1 363l-115 31v23h241v-23l-78 -25v-357q0 -137 -74 -209.5t-193 -72.5zM233 770v60h292v-60h-292z" />
    <glyph glyph-name="umacron" unicode="&#x16b;" horiz-adv-x="556" 
d="M387 -15l-10 89q-73 -91 -159 -91q-68 0 -104 42.5t-36 116.5v272l-63 24v17l157 25v-318q0 -111 96 -111q57 0 108 45v318l-73 22v18l166 26v-426l71 -25v-18zM129 626v59h292v-59h-292z" />
    <glyph glyph-name="Ubreve" unicode="&#x16c;" horiz-adv-x="735" 
d="M365 -23q-262 0 -262 277v365l-78 22v23h273v-23l-86 -22v-346q0 -243 176 -243q186 0 197 217l-1 363l-115 31v23h241v-23l-78 -25v-357q0 -137 -74 -209.5t-193 -72.5zM374 721q-65 0 -97.5 40t-30.5 95h18q25 -75 116 -75q86 0 111 75h18q3 -54 -33 -94.5t-102 -40.5z
" />
    <glyph glyph-name="ubreve" unicode="&#x16d;" horiz-adv-x="556" 
d="M387 -15l-10 89q-73 -91 -159 -91q-68 0 -104 42.5t-36 116.5v272l-63 24v17l157 25v-318q0 -111 96 -111q57 0 108 45v318l-73 22v18l166 26v-426l71 -25v-18zM272 568q-55 0 -87 42t-32 123h22q24 -100 104 -100q34 0 61 25.5t37 74.5h21q-2 -81 -35 -123t-91 -42z" />
    <glyph glyph-name="Uring" unicode="&#x16e;" horiz-adv-x="735" 
d="M365 -23q-262 0 -262 277v365l-78 22v23h273v-23l-86 -22v-346q0 -243 176 -243q186 0 197 217l-1 363l-115 31v23h241v-23l-78 -25v-357q0 -137 -74 -209.5t-193 -72.5zM283 813q0 41 29 69.5t71 28.5q43 0 71.5 -28t28.5 -70q0 -41 -29 -69.5t-71 -28.5q-43 0 -71.5 28
t-28.5 70zM319 813q0 -29 18.5 -47.5t45.5 -18.5t45.5 18.5t18.5 47.5t-18.5 47.5t-45.5 18.5t-45.5 -18.5t-18.5 -47.5z" />
    <glyph glyph-name="uring" unicode="&#x16f;" horiz-adv-x="556" 
d="M387 -15l-10 89q-73 -91 -159 -91q-68 0 -104 42.5t-36 116.5v272l-63 24v17l157 25v-318q0 -111 96 -111q57 0 108 45v318l-73 22v18l166 26v-426l71 -25v-18zM175 674q0 41 29 69t71 28q43 0 71.5 -27.5t28.5 -69.5q0 -41 -29 -69.5t-71 -28.5q-43 0 -71.5 27.5
t-28.5 70.5zM211 674q0 -29 18.5 -48t45.5 -19t45.5 19t18.5 48t-18.5 47.5t-45.5 18.5t-45.5 -18.5t-18.5 -47.5z" />
    <glyph glyph-name="Uhungarumlaut" unicode="&#x170;" horiz-adv-x="735" 
d="M328 865h80v-9l-109 -131h-36zM505 865h79v-9l-108 -131h-37zM365 -23q-262 0 -262 277v365l-78 22v23h273v-23l-86 -22v-346q0 -243 176 -243q186 0 197 217l-1 363l-115 31v23h241v-23l-78 -25v-357q0 -137 -74 -209.5t-193 -72.5z" />
    <glyph glyph-name="uhungarumlaut" unicode="&#x171;" horiz-adv-x="556" 
d="M387 -15l-10 89q-73 -91 -159 -91q-68 0 -104 42.5t-36 116.5v272l-63 24v17l157 25v-318q0 -111 96 -111q57 0 108 45v318l-73 22v18l166 26v-426l71 -25v-18zM373 757h77v-9l-98 -194h-27zM239 757h76v-9l-97 -194h-27z" />
    <glyph glyph-name="Uogonek" unicode="&#x172;" horiz-adv-x="735" 
d="M365 -23q-262 0 -262 277v365l-78 22v23h273v-23l-86 -22v-346q0 -243 176 -243q186 0 197 217l-1 363l-115 31v23h241v-23l-78 -25v-357q0 -120 -57 -190.5t-153 -86.5q-66 -60 -66 -107q0 -26 14 -42t38 -16q23 0 39 10t42 37l16 -11q-17 -29 -30.5 -47.5t-41.5 -36
t-60 -17.5q-42 0 -67.5 23.5t-25.5 60.5q0 62 101 141h-16z" />
    <glyph glyph-name="uogonek" unicode="&#x173;" horiz-adv-x="556" 
d="M218 -17q-68 0 -104 42.5t-36 116.5v272l-63 24v17l157 25v-318q0 -111 96 -111q57 0 108 45v318l-73 22v18l166 26v-426l71 -25v-18l-112 -19q-77 -67 -77 -117q0 -26 14 -42t38 -16q23 0 39 10t42 37l16 -11q-17 -29 -30.5 -47.5t-41.5 -36t-60 -17.5q-42 0 -67.5 23.5
t-25.5 60.5q0 36 28 70.5t84 79.5l-10 88q-73 -91 -159 -91z" />
    <glyph glyph-name="Wcircumflex" unicode="&#x174;" horiz-adv-x="886" 
d="M585 -7l-138 427l-154 -427h-57l-192 628l-49 19v24h237v-23l-78 -20l148 -495l125 355l-45 140l-67 20v23h253v-25l-77 -18l156 -486l143 477l-105 27v25h206v-23l-52 -24l-196 -624h-58zM332 725h-42l118 131h82l110 -131h-45l-109 81z" />
    <glyph glyph-name="wcircumflex" unicode="&#x175;" horiz-adv-x="719" 
d="M402 480l121 -354l10 -34h2q4 19 8 35l89 297l-72 26v23h171v-24l-61 -20l-139 -445h-55l-112 322l-11 36h-1q-6 -22 -11 -36l-109 -322h-48l-140 446l-57 19v24h224v-24l-65 -19l85 -300l8 -35h2q5 19 11 35l116 350h34zM294 554h-35l107 203h43l107 -203h-37l-94 128z
" />
    <glyph glyph-name="Ycircumflex" unicode="&#x176;" horiz-adv-x="615" 
d="M557 620l-197 -322v-256l79 -18v-24h-265v24l80 18v233l-200 351l-52 15v23h254v-23l-80 -20l158 -295l172 290l-96 25v23h203v-23zM220 725h-42l118 131h82l110 -131h-45l-109 81z" />
    <glyph glyph-name="ycircumflex" unicode="&#x177;" horiz-adv-x="470" 
d="M386 427l-70 23v23h156v-24l-47 -19l-221 -596q-32 -84 -99 -84q-25 0 -42 17t-17 41t17 40.5t40 16.5q29 0 59 -37l4 -5l53 143l-178 468l-43 15v24h198v-24l-50 -18l122 -334zM166 554h-35l107 203h43l107 -203h-37l-94 128z" />
    <glyph glyph-name="Ydieresis" unicode="&#x178;" horiz-adv-x="615" 
d="M557 620l-197 -322v-256l79 -18v-24h-265v24l80 18v233l-200 351l-52 15v23h254v-23l-80 -20l158 -295l172 290l-96 25v23h203v-23zM439 748q-24 0 -41.5 17t-17.5 41t17.5 41.5t41.5 17.5t41.5 -17.5t17.5 -41.5t-17.5 -41t-41.5 -17zM226 748q-24 0 -41 17t-17 41
t17 41.5t41 17.5t41.5 -17.5t17.5 -41.5t-17.5 -41t-41.5 -17z" />
    <glyph glyph-name="Zacute" unicode="&#x179;" horiz-adv-x="632" 
d="M30 0v20l400 608h-298l-61 -152h-26l5 194l77 -6h440v-4l-409 -622h334l95 180h30l-43 -218h-544zM369 865h95v-9l-138 -131h-39z" />
    <glyph glyph-name="zacute" unicode="&#x17a;" horiz-adv-x="462" 
d="M329 0h-293v25l270 415h-181l-50 -120h-22v159l76 -6h304v-4l-286 -439h190l64 135h20l-14 -169zM272 757h83v-8l-108 -195h-29z" />
    <glyph glyph-name="Zdotaccent" unicode="&#x17b;" horiz-adv-x="632" 
d="M30 0v20l400 608h-298l-61 -152h-26l5 194l77 -6h440v-4l-409 -622h334l95 180h30l-43 -218h-544zM317 742q-26 0 -45 19t-19 46q0 26 19 45t45 19t45.5 -19t19.5 -45q0 -27 -19.5 -46t-45.5 -19z" />
    <glyph glyph-name="zdotaccent" unicode="&#x17c;" horiz-adv-x="462" 
d="M329 0h-293v25l270 415h-181l-50 -120h-22v159l76 -6h304v-4l-286 -439h190l64 135h20l-14 -169zM237 607q-26 0 -45 19t-19 45q0 25 19 44t45 19t45 -18.5t19 -44.5t-19 -45t-45 -19z" />
    <glyph glyph-name="Zcaron" unicode="&#x17d;" horiz-adv-x="632" 
d="M30 0v20l400 608h-298l-61 -152h-26l5 194l77 -6h440v-4l-409 -622h334l95 180h30l-43 -218h-544zM430 856h43l-119 -131h-82l-109 131h44l108 -82z" />
    <glyph glyph-name="zcaron" unicode="&#x17e;" horiz-adv-x="462" 
d="M329 0h-293v25l270 415h-181l-50 -120h-22v159l76 -6h304v-4l-286 -439h190l64 135h20l-14 -169zM329 757h35l-107 -203h-43l-107 203h37l93 -128z" />
    <glyph glyph-name="florin" unicode="&#x192;" horiz-adv-x="466" 
d="M45 280l5 34h92q31 123 109.5 205.5t161.5 82.5q33 0 49 -15.5t16 -38.5q0 -34 -37 -66q-3 3 -11 13t-11 13.5t-10.5 12t-11.5 12t-11 9t-12 8t-11.5 4.5t-12.5 2q-19 0 -35 -15.5t-38 -72t-43 -154.5h135l-7 -34h-135l-56 -282q-20 -103 -85 -179.5t-141 -76.5
q-24 0 -48 16.5t-24 42.5q0 41 38 61q41 -77 85 -77q43 0 74 156l65 339h-90z" />
    <glyph glyph-name="Aringacute" unicode="&#x1fa;" horiz-adv-x="669" 
d="M-8 0v23l74 19l231 627l32 7l39 8l236 -643l73 -18v-23h-265v23l79 18l-68 188h-246l-65 -183l116 -23v-23h-236zM299 574l-105 -296h212l-106 296h-1zM242 810q0 41 29 69.5t71 28.5q43 0 71.5 -28t28.5 -70q0 -41 -29 -69.5t-71 -28.5q-43 0 -71.5 28t-28.5 70z
M278 810q0 -29 18.5 -47.5t45.5 -18.5t45.5 18.5t18.5 47.5t-18.5 47.5t-45.5 18.5t-45.5 -18.5t-18.5 -47.5zM405 1082h95v-9l-138 -131h-39z" />
    <glyph glyph-name="aringacute" unicode="&#x1fb;" horiz-adv-x="470" 
d="M156 -15q-48 0 -84.5 30.5t-36.5 87.5t40 90t123 54l99 25v57q0 56 -25.5 88.5t-66.5 32.5q-40 0 -64 -20l-5 -102q-18 -5 -41 -5q-22 0 -35.5 11.5t-13.5 30.5q0 40 61 80.5t139 40.5q76 0 110.5 -35.5t34.5 -109.5v-275q0 -17 6.5 -23t24.5 -6h50v-16q-59 -33 -98 -33
q-72 0 -75 79h-4q-23 -27 -39 -42t-42.5 -27.5t-57.5 -12.5zM132 627q0 41 29 69t71 28q43 0 71.5 -27.5t28.5 -69.5q0 -41 -29 -69.5t-71 -28.5q-43 0 -71.5 27.5t-28.5 70.5zM207 49q50 0 90 53v144l-98 -33q-68 -22 -68 -81q0 -35 19.5 -59t56.5 -24zM168 627
q0 -29 18.5 -48t45.5 -19t45.5 19t18.5 48t-18.5 47.5t-45.5 18.5t-45.5 -18.5t-18.5 -47.5zM297 899h95v-9l-138 -131h-39z" />
    <glyph glyph-name="AEacute" unicode="&#x1fc;" horiz-adv-x="936" 
d="M686 319h-133v-259q18 -23 50 -24h176l101 164h27l-51 -200h-476v23l71 19v277h-187l-149 -273l105 -23v-23h-221v23l65 19l332 571l-84 28v23h482l74 4v-180h-27l-54 142h-234v-276h133l31 95h24v-219h-27zM451 619h-15l-153 -266h168v266zM600 865h95v-9l-138 -131h-39
z" />
    <glyph glyph-name="aeacute" unicode="&#x1fd;" horiz-adv-x="730" 
d="M154 -16q-50 0 -84.5 31t-34.5 87q0 58 48.5 88t150.5 55l63 15v91q-15 97 -90 97q-40 0 -66 -21l2 -93q-22 -11 -45 -11q-22 0 -35 12.5t-13 32.5q0 42 60 80t129 38q98 0 131 -78q19 34 56.5 56t84.5 22q78 0 122.5 -46.5t56.5 -127.5l-300 -63v-51q4 -63 45 -98.5
t107 -35.5q16 0 32 3.5t28.5 9.5t24 13.5t20.5 14.5t15 13l10 10l4 5l15 -10l-7 -12q-6 -12 -15 -26.5t-26 -33t-37 -33t-50.5 -24.5t-64.5 -10q-53 0 -99.5 28t-71.5 77q-29 -31 -35 -37t-28 -26t-33 -25t-30.5 -11t-39.5 -6zM390 327v-50l190 44q-3 58 -28 92.5t-68 34.5
q-83 0 -94 -121zM297 190v42l-60 -19q-61 -19 -82 -39.5t-21 -50.5q0 -35 20.5 -54t56.5 -19q39 0 62.5 32t25.5 78q-2 18 -2 30zM411 757h83v-8l-108 -195h-29z" />
    <glyph glyph-name="Oslashacute" unicode="&#x1fe;" horiz-adv-x="781" 
d="M74 -35l81 104q-108 100 -108 259q0 157 101 255t241 98q112 0 197 -58l62 79h43l-78 -100q57 -48 88.5 -116.5t31.5 -139.5q0 -169 -100.5 -269.5t-242.5 -100.5q-119 0 -210 71l-63 -82h-43zM405 7q54 0 96.5 26t67.5 69.5t37.5 96.5t12.5 112q0 126 -59 223l-332 -426
q67 -101 177 -101zM160 352q0 -119 49 -213l331 424q-69 87 -164 87q-105 0 -160.5 -86.5t-55.5 -211.5zM442 865h95v-9l-138 -131h-39z" />
    <glyph glyph-name="oslashacute" unicode="&#x1ff;" horiz-adv-x="549" 
d="M74 -50h-37l72 95q-75 69 -75 180q0 108 70.5 185.5t170.5 77.5q82 0 142 -40l60 79h37l-74 -97q75 -67 75 -181q0 -110 -70 -187.5t-170 -77.5q-82 0 -143 42zM259 455q-62 0 -93 -54.5t-29 -134.5q2 -91 26 -151l208 273q-40 67 -112 67zM412 209q-1 92 -26 150
l-208 -273q40 -68 112 -68q56 0 89.5 54t32.5 137zM311 757h83v-8l-108 -195h-29z" />
    <glyph glyph-name="Scommaaccent" unicode="&#x218;" horiz-adv-x="521" 
d="M56 33l-9 171h25l61 -152q48 -38 119 -38q61 0 98.5 36t37.5 94q0 43 -25.5 76.5t-94.5 65.5l-49 23q-87 41 -121 80.5t-34 104.5q0 81 65.5 135.5t164.5 54.5q78 0 154 -46l6 -153h-24l-57 131q-41 36 -90 36q-55 0 -88 -32.5t-33 -79.5q0 -48 24.5 -76t91.5 -60l48 -23
q96 -45 130.5 -87.5t34.5 -101.5q0 -92 -76.5 -151.5t-172.5 -59.5q-89 0 -186 52zM156 -258l-7 20q93 29 93 73q0 21 -16 33.5t-42 14.5v2q9 55 65 55q33 0 51.5 -20t18.5 -52q0 -92 -163 -126z" />
    <glyph glyph-name="scommaaccent" unicode="&#x219;" horiz-adv-x="410" 
d="M100 -258l-7 20q93 29 93 73q0 21 -16 33.5t-42 14.5v2q9 55 65 55q33 0 51.5 -20t18.5 -52q0 -92 -163 -126zM176 -17q-66 0 -132 35l-6 145h20l50 -118q30 -30 75 -30q44 0 70.5 26t26.5 63q0 31 -17 50t-59 36l-67 28q-93 38 -93 125q0 64 53 104t131 40q64 0 121 -32
l-1 -125h-19l-45 101q-33 25 -68 25q-38 0 -60.5 -23t-22.5 -55t18.5 -51t60.5 -35l44 -18q63 -25 89.5 -55t26.5 -75q0 -70 -58.5 -115.5t-137.5 -45.5z" />
    <glyph glyph-name="uni021A" unicode="&#x21a;" horiz-adv-x="626" 
d="M95 664h436l64 7l2 -189h-26l-54 147h-151v-587l91 -19v-23h-290v23l93 19v587h-151l-54 -147h-26l2 189zM214 -258l-7 20q93 29 93 73q0 21 -16 33.5t-42 14.5v2q9 55 65 55q33 0 51.5 -20t18.5 -52q0 -92 -163 -126z" />
    <glyph glyph-name="uni021B" unicode="&#x21b;" horiz-adv-x="328" 
d="M188 -11q-59 0 -84 30t-24 87l3 318h-74v30l74 22l68 125h23v-128h138v-52h-138v-315q5 -36 24 -50t53 -14q16 0 33 3.5t26 6.5t10 4l6 -19l-6 -4l-13.5 -9t-20.5 -11.5t-27 -11.5t-33 -8.5t-38 -3.5zM84 -258l-7 20q93 29 93 73q0 21 -16 33.5t-42 14.5v2q9 55 65 55
q33 0 51.5 -20t18.5 -52q0 -92 -163 -126z" />
    <glyph glyph-name="uni0237" unicode="&#x237;" horiz-adv-x="255" 
d="M-8 -248l-5 17q59 33 77.5 81.5t20.5 163.5v372l-58 34v14l151 52v-454q0 -135 -35 -183q-50 -64 -151 -97z" />
    <glyph glyph-name="circumflex" unicode="&#x2c6;" horiz-adv-x="262" 
d="M38 554h-35l107 203h43l107 -203h-37l-94 128z" />
    <glyph glyph-name="caron" unicode="&#x2c7;" horiz-adv-x="262" 
d="M225 757h35l-107 -203h-43l-107 203h37l93 -128z" />
    <glyph glyph-name="breve" unicode="&#x2d8;" 
d="M196 568q-55 0 -87 42t-32 123h22q24 -100 104 -100q34 0 61 25.5t37 74.5h21q-2 -81 -35 -123t-91 -42z" />
    <glyph glyph-name="dotaccent" unicode="&#x2d9;" horiz-adv-x="262" 
d="M131 607q-26 0 -45 19t-19 45q0 25 19 44t45 19t45 -18.5t19 -44.5t-19 -45t-45 -19z" />
    <glyph glyph-name="ring" unicode="&#x2da;" horiz-adv-x="262" 
d="M31 674q0 41 29 69t71 28q43 0 71.5 -27.5t28.5 -69.5q0 -41 -29 -69.5t-71 -28.5q-43 0 -71.5 27.5t-28.5 70.5zM67 674q0 -29 18.5 -48t45.5 -19t45.5 19t18.5 48t-18.5 47.5t-45.5 18.5t-45.5 -18.5t-18.5 -47.5z" />
    <glyph glyph-name="ogonek" unicode="&#x2db;" 
d="M218 1h32q-88 -73 -88 -126q0 -26 14 -42t38 -16q23 0 39 10t42 37l16 -11q-17 -29 -30.5 -47.5t-41.5 -36t-60 -17.5q-42 0 -67.5 23.5t-25.5 60.5q0 39 32.5 76.5t99.5 88.5z" />
    <glyph glyph-name="tilde" unicode="&#x2dc;" horiz-adv-x="262" 
d="M140 603l-35 16q-59 25 -78.5 19.5t-38.5 -47.5l-20 10l5 12q27 65 63.5 84t87.5 -3l44 -18q48 -18 67.5 -9.5t38.5 49.5l21 -10l-5 -13q-27 -70 -63 -91.5t-87 1.5z" />
    <glyph glyph-name="hungarumlaut" unicode="&#x2dd;" 
d="M118 757h76v-9l-97 -194h-27zM252 757h77v-9l-98 -194h-27z" />
    <glyph glyph-name="Wgrave" unicode="&#x1e80;" horiz-adv-x="886" 
d="M585 -7l-138 427l-154 -427h-57l-192 628l-49 19v24h237v-23l-78 -20l148 -495l125 355l-45 140l-67 20v23h253v-25l-77 -18l156 -486l143 477l-105 27v25h206v-23l-52 -24l-196 -624h-58zM296 865h91l83 -140h-39l-135 131v9z" />
    <glyph glyph-name="wgrave" unicode="&#x1e81;" horiz-adv-x="719" 
d="M402 480l121 -354l10 -34h2q4 19 8 35l89 297l-72 26v23h171v-24l-61 -20l-139 -445h-55l-112 322l-11 36h-1q-6 -22 -11 -36l-109 -322h-48l-140 446l-57 19v24h224v-24l-65 -19l85 -300l8 -35h2q5 19 11 35l116 350h34zM267 757h83l54 -203h-29l-108 195v8z" />
    <glyph glyph-name="Wacute" unicode="&#x1e82;" horiz-adv-x="886" 
d="M585 -7l-138 427l-154 -427h-57l-192 628l-49 19v24h237v-23l-78 -20l148 -495l125 355l-45 140l-67 20v23h253v-25l-77 -18l156 -486l143 477l-105 27v25h206v-23l-52 -24l-196 -624h-58zM498 865h95v-9l-138 -131h-39z" />
    <glyph glyph-name="wacute" unicode="&#x1e83;" horiz-adv-x="719" 
d="M422 757h83v-8l-108 -195h-29zM402 480l121 -354l10 -34h2q4 19 8 35l89 297l-72 26v23h171v-24l-61 -20l-139 -445h-55l-112 322l-11 36h-1q-6 -22 -11 -36l-109 -322h-48l-140 446l-57 19v24h224v-24l-65 -19l85 -300l8 -35h2q5 19 11 35l116 350h34z" />
    <glyph glyph-name="Wdieresis" unicode="&#x1e84;" horiz-adv-x="886" 
d="M585 -7l-138 427l-154 -427h-57l-192 628l-49 19v24h237v-23l-78 -20l148 -495l125 355l-45 140l-67 20v23h253v-25l-77 -18l156 -486l143 477l-105 27v25h206v-23l-52 -24l-196 -624h-58zM553 748q-24 0 -41.5 17t-17.5 41t17.5 41.5t41.5 17.5t41.5 -17.5t17.5 -41.5
t-17.5 -41t-41.5 -17zM340 748q-24 0 -41 17t-17 41t17 41.5t41 17.5t41.5 -17.5t17.5 -41.5t-17.5 -41t-41.5 -17z" />
    <glyph glyph-name="wdieresis" unicode="&#x1e85;" horiz-adv-x="719" 
d="M291 613q-25 0 -42 17t-17 41t17 41.5t42 17.5q24 0 41.5 -17.5t17.5 -41.5t-17.5 -41t-41.5 -17zM478 613q-24 0 -41.5 17t-17.5 41t17.5 41.5t41.5 17.5t42 -17.5t18 -41.5t-18 -41t-42 -17zM402 480l121 -354l10 -34h2q4 19 8 35l89 297l-72 26v23h171v-24l-61 -20
l-139 -445h-55l-112 322l-11 36h-1q-6 -22 -11 -36l-109 -322h-48l-140 446l-57 19v24h224v-24l-65 -19l85 -300l8 -35h2q5 19 11 35l116 350h34z" />
    <glyph glyph-name="Ygrave" unicode="&#x1ef2;" horiz-adv-x="615" 
d="M557 620l-197 -322v-256l79 -18v-24h-265v24l80 18v233l-200 351l-52 15v23h254v-23l-80 -20l158 -295l172 290l-96 25v23h203v-23zM184 865h91l83 -140h-39l-135 131v9z" />
    <glyph glyph-name="ygrave" unicode="&#x1ef3;" horiz-adv-x="470" 
d="M386 427l-70 23v23h156v-24l-47 -19l-221 -596q-32 -84 -99 -84q-25 0 -42 17t-17 41t17 40.5t40 16.5q29 0 59 -37l4 -5l53 143l-178 468l-43 15v24h198v-24l-50 -18l122 -334zM138 757h83l54 -203h-29l-108 195v8z" />
    <glyph glyph-name="uni2009" unicode="&#x2009;" horiz-adv-x="68" 
 />
    <glyph glyph-name="endash" unicode="&#x2013;" horiz-adv-x="488" 
d="M44 251v38h400v-38h-400z" />
    <glyph glyph-name="emdash" unicode="&#x2014;" horiz-adv-x="888" 
d="M44 251v38h800v-38h-800z" />
    <glyph glyph-name="quoteleft" unicode="&#x2018;" horiz-adv-x="265" 
d="M178 735l13 -18q-67 -46 -67 -101q0 -26 17.5 -44t48.5 -22q5 -33 -10.5 -52.5t-45.5 -19.5q-28 0 -48.5 24t-20.5 69q0 50 32.5 94t80.5 70z" />
    <glyph glyph-name="quoteright" unicode="&#x2019;" horiz-adv-x="265" 
d="M86 478l-12 18q67 46 67 102q0 25 -18 43.5t-48 22.5q-6 33 9.5 52t46.5 19q28 0 48.5 -24t20.5 -69q0 -49 -33 -93.5t-81 -70.5z" />
    <glyph glyph-name="quotesinglbase" unicode="&#x201a;" horiz-adv-x="265" 
d="M86 -102l-12 18q67 46 67 102q0 25 -18 43.5t-48 22.5q-6 33 9.5 52t46.5 19q28 0 48.5 -24t20.5 -69q0 -49 -33 -93.5t-81 -70.5z" />
    <glyph glyph-name="quotedblleft" unicode="&#x201c;" horiz-adv-x="451" 
d="M178 735l13 -18q-67 -46 -67 -101q0 -26 17.5 -44t48.5 -22q5 -33 -10.5 -52.5t-45.5 -19.5q-28 0 -48.5 24t-20.5 69q0 50 32.5 94t80.5 70zM365 735l13 -18q-67 -46 -67 -101q0 -26 17.5 -44t48.5 -22q5 -33 -10.5 -52.5t-45.5 -19.5q-28 0 -48.5 24t-20.5 69
q0 50 32.5 94t80.5 70z" />
    <glyph glyph-name="quotedblright" unicode="&#x201d;" horiz-adv-x="451" 
d="M86 478l-12 18q67 46 67 102q0 25 -18 43.5t-48 22.5q-6 33 9.5 52t46.5 19q28 0 48.5 -24t20.5 -69q0 -49 -33 -93.5t-81 -70.5zM273 478l-12 18q67 46 67 102q0 25 -18 43.5t-48 22.5q-6 33 9.5 52t46.5 19q28 0 48.5 -24t20.5 -69q0 -49 -33 -93.5t-81 -70.5z" />
    <glyph glyph-name="quotedblbase" unicode="&#x201e;" horiz-adv-x="452" 
d="M86 -102l-12 18q67 46 67 102q0 25 -18 43.5t-48 22.5q-6 33 9.5 52t46.5 19q28 0 48.5 -24t20.5 -69q0 -49 -33 -93.5t-81 -70.5zM274 -102l-12 18q67 46 67 102q0 25 -18 43.5t-48 22.5q-6 33 9.5 52t46.5 19q28 0 48.5 -24t20.5 -69q0 -49 -33 -93.5t-81 -70.5z" />
    <glyph glyph-name="dagger" unicode="&#x2020;" horiz-adv-x="323" 
d="M40 583v52l100 -7l-7 105h56l-8 -105l102 7v-52l-103 6l9 -249h-56l8 249z" />
    <glyph glyph-name="daggerdbl" unicode="&#x2021;" horiz-adv-x="301" 
d="M29 583v51l100 -6l-7 105h55l-6 -105l101 6v-51l-102 6v-105l102 8v-52l-101 6l6 -108l-55 -1l7 109l-100 -6v52l101 -8v105z" />
    <glyph glyph-name="bullet" unicode="&#x2022;" horiz-adv-x="338" 
d="M169 193q-32 0 -55.5 23.5t-23.5 56.5q0 32 23.5 55t55.5 23t55.5 -23t23.5 -55q0 -33 -23.5 -56.5t-55.5 -23.5z" />
    <glyph glyph-name="ellipsis" unicode="&#x2026;" horiz-adv-x="749" 
d="M123 -9q-26 0 -46 20t-20 47t20 47t46 20q28 0 47.5 -20t19.5 -47t-19.5 -47t-47.5 -20zM376 -9q-26 0 -46 20t-20 47t20 47t46 20q27 0 47 -20t20 -47t-20 -47t-47 -20zM628 -9q-26 0 -46 20t-20 47t20 47t46 20q28 0 47.5 -20t19.5 -47t-19.5 -47t-47.5 -20z" />
    <glyph glyph-name="perthousand" unicode="&#x2030;" horiz-adv-x="1147" 
d="M145 -50l442 680h38l-443 -680h-37zM195 577q-35 0 -54.5 -38t-19.5 -85q0 -61 24 -106t63 -45q34 0 53.5 37.5t19.5 86.5q0 63 -25 106.5t-61 43.5zM198 275q-63 0 -105.5 44.5t-42.5 114.5q0 72 46.5 121.5t107.5 49.5q67 0 108 -48.5t41 -111.5q0 -73 -45 -121.5
t-110 -48.5zM565 284q-35 0 -54.5 -38t-19.5 -85q0 -61 24 -106t63 -45q34 0 53.5 37.5t19.5 86.5q0 63 -25 106.5t-61 43.5zM568 -19q-63 0 -105.5 45t-42.5 115q0 72 46.5 122t107.5 50q67 0 108 -49t41 -113q0 -72 -45.5 -121t-109.5 -49zM925 284q-35 0 -54 -38t-19 -85
q0 -61 24 -106t63 -45q34 0 53.5 37.5t19.5 86.5q0 63 -25.5 106.5t-61.5 43.5zM929 -19q-63 0 -106 45t-43 115q0 72 46.5 122t107.5 50q67 0 108.5 -49t41.5 -113q0 -72 -45.5 -121t-109.5 -49z" />
    <glyph glyph-name="uni2032" unicode="&#x2032;" horiz-adv-x="241" 
d="M70 512l34 234h89v-8l-100 -226h-23z" />
    <glyph glyph-name="uni2033" unicode="&#x2033;" horiz-adv-x="409" 
d="M70 512l34 234h89v-8l-100 -226h-23zM238 512l34 234h89v-8l-100 -226h-23z" />
    <glyph glyph-name="guilsinglleft" unicode="&#x2039;" horiz-adv-x="302" 
d="M216 388l16 -15l-112 -168l111 -161l-15 -15l-166 169v15z" />
    <glyph glyph-name="guilsinglright" unicode="&#x203a;" horiz-adv-x="302" 
d="M86 29l-16 15l112 167l-111 162l15 15l166 -169v-14z" />
    <glyph glyph-name="fraction" unicode="&#x2044;" horiz-adv-x="241" 
d="M-136 -80l-25 19l539 782l25 -17z" />
    <glyph glyph-name="Euro" unicode="&#x20ac;" horiz-adv-x="624" 
d="M42 341l4 32h79q32 104 117.5 166t184.5 62q58 0 103.5 -27.5t45.5 -72.5q0 -36 -56 -53q-30 61 -61.5 89t-78.5 28q-62 0 -108.5 -52t-59.5 -140h247l-5 -32h-245q-1 -10 -1 -31q0 -30 3 -56h232l-5 -32h-221q19 -84 73.5 -130t129.5 -46q85 0 145 54l13 -12
q-86 -111 -200 -111q-117 0 -185.5 69t-81.5 176h-85l4 32h79v12q0 41 7 75h-74z" />
    <glyph glyph-name="trademark" unicode="&#x2122;" horiz-adv-x="696" 
d="M307 385v16l32 7v233l-32 8v15h113l68 -183v-1l67 184h109v-15l-32 -8v-233l33 -7v-16h-131v17l35 7v223h-4l-76 -203l-10 -34h-26l-11 33l-78 204h-3v-221l42 -11v-15h-96zM34 664h245l4 -90h-15l-26 69h-54v-234l38 -8v-16h-137v16l37 8v234h-52l-26 -69h-17z" />
    <glyph glyph-name="onethird" unicode="&#x2153;" horiz-adv-x="739" 
d="M567 12q33 0 54.5 21.5t21.5 51.5q0 40 -35 63t-99 23v24q56 7 87.5 30.5t31.5 51.5q0 25 -16 40t-45 15q-51 0 -93 -59l-18 11q46 94 141 94q49 0 76.5 -22t27.5 -56q0 -33 -24 -55t-71 -40v-4q54 -2 83.5 -26t29.5 -64q0 -52 -48.5 -85.5t-108.5 -33.5q-55 0 -87 18.5
t-32 44.5q0 34 43 37l40 -69q13 -11 41 -11zM169 673v-342l71 -13v-20h-221v20l75 13v286h-77v22l145 34h7zM102 -80l-25 19l539 782l25 -17z" />
    <glyph glyph-name="twothirds" unicode="&#x2154;" horiz-adv-x="800" 
d="M183 420l-75 -57h198v-65h-278v24l79 71q61 55 85.5 87.5t24.5 69.5q0 33 -22 53t-54 20q-28 0 -47 -14.5t-44 -46.5l-18 11q50 103 143 103q53 0 85.5 -27t32.5 -74t-26 -79t-84 -76zM628 12q33 0 54.5 21.5t21.5 51.5q0 40 -35 63t-99 23v24q56 7 87.5 30.5t31.5 51.5
q0 25 -16 40t-45 15q-51 0 -93 -59l-18 11q46 94 141 94q49 0 76.5 -22t27.5 -56q0 -33 -24 -55t-71 -40v-4q54 -2 83.5 -26t29.5 -64q0 -52 -48.5 -85.5t-108.5 -33.5q-55 0 -87 18.5t-32 44.5q0 34 43 37l40 -69q13 -11 41 -11zM163 -80l-25 19l539 782l25 -17z" />
    <glyph glyph-name="oneeighth" unicode="&#x215b;" horiz-adv-x="755" 
d="M439 86q0 62 93 91q-41 21 -57.5 44t-16.5 55q0 40 38 71t96 31q59 0 93.5 -23t34.5 -59q0 -59 -86 -89l6 -2q92 -42 92 -102q0 -52 -46 -82.5t-101 -30.5q-62 0 -104 25.5t-42 70.5zM169 673v-342l71 -13v-20h-221v20l75 13v286h-77v22l145 34h7zM102 -80l-25 19
l539 782l25 -17zM602 143l-52 25q-39 -30 -39 -73q0 -35 23 -60t57 -25q29 0 48 17.5t19 45.5q0 45 -56 70zM525 301q0 -43 57 -70l33 -15q36 29 36 74q0 30 -19 49t-46 19q-26 0 -43.5 -15.5t-17.5 -41.5z" />
    <glyph glyph-name="threeeighths" unicode="&#x215c;" horiz-adv-x="753" 
d="M437 86q0 62 93 91q-41 21 -57.5 44t-16.5 55q0 40 38 71t96 31q59 0 93.5 -23t34.5 -59q0 -59 -86 -89l6 -2q92 -42 92 -102q0 -52 -46 -82.5t-101 -30.5q-62 0 -104 25.5t-42 70.5zM128 311q33 0 54.5 21t21.5 52q0 39 -35 62t-99 23v25q56 6 87.5 29.5t31.5 52.5
q0 24 -16 39t-45 15q-51 0 -93 -58l-18 11q47 93 141 93q49 0 76.5 -22t27.5 -56q0 -33 -24 -54.5t-71 -39.5v-4q54 -3 83.5 -27t29.5 -64q0 -52 -48.5 -85.5t-108.5 -33.5q-55 0 -87 18.5t-32 45.5q0 15 11.5 25t31.5 11l40 -69q14 -10 41 -10zM100 -80l-25 19l539 782
l25 -17zM600 143l-52 25q-39 -30 -39 -73q0 -35 23 -60t57 -25q29 0 48 17.5t19 45.5q0 45 -56 70zM523 301q0 -43 57 -70l33 -15q36 29 36 74q0 30 -19 49t-46 19q-26 0 -43.5 -15.5t-17.5 -41.5z" />
    <glyph glyph-name="fiveeighths" unicode="&#x215d;" horiz-adv-x="758" 
d="M442 86q0 62 93 91q-41 21 -57.5 44t-16.5 55q0 40 38 71t96 31q59 0 93.5 -23t34.5 -59q0 -59 -86 -89l6 -2q92 -42 92 -102q0 -52 -46 -82.5t-101 -30.5q-62 0 -104 25.5t-42 70.5zM266 597h-199l-4 -85q46 19 88 19q63 0 99.5 -29.5t36.5 -77.5q0 -63 -49.5 -98.5
t-112.5 -35.5q-49 0 -83.5 17t-34.5 46q0 16 12.5 26t30.5 10l41 -71q16 -8 39 -8q34 0 57.5 21.5t23.5 57.5t-24.5 58t-63.5 22q-36 0 -84 -22l-3 1l11 216h219v-67zM105 -80l-25 19l539 782l25 -17zM605 143l-52 25q-39 -30 -39 -73q0 -35 23 -60t57 -25q29 0 48 17.5
t19 45.5q0 45 -56 70zM528 301q0 -43 57 -70l33 -15q36 29 36 74q0 30 -19 49t-46 19q-26 0 -43.5 -15.5t-17.5 -41.5z" />
    <glyph glyph-name="seveneighths" unicode="&#x215e;" horiz-adv-x="681" 
d="M365 86q0 62 93 91q-41 21 -57.5 44t-16.5 55q0 40 38 71t96 31q59 0 93.5 -23t34.5 -59q0 -59 -86 -89l6 -2q92 -42 92 -102q0 -52 -46 -82.5t-101 -30.5q-62 0 -104 25.5t-42 70.5zM107 298h-62l189 294h-210v72h274v-5q-62 -110 -109.5 -200.5t-64.5 -125.5zM28 -80
l-25 19l539 782l25 -17zM528 143l-52 25q-39 -30 -39 -73q0 -35 23 -60t57 -25q29 0 48 17.5t19 45.5q0 45 -56 70zM451 301q0 -43 57 -70l33 -15q36 29 36 74q0 30 -19 49t-46 19q-26 0 -43.5 -15.5t-17.5 -41.5z" />
    <glyph glyph-name="minus" unicode="&#x2212;" horiz-adv-x="586" 
d="M530 219h-474v39h474v-39z" />
    <glyph glyph-name="approxequal" unicode="&#x2248;" horiz-adv-x="586" 
d="M86 285l-31 16q45 88 125 88q35 0 98 -20l48 -15q53 -17 89 -17q51 0 85 62l31 -16q-24 -43 -51.5 -64.5t-71.5 -21.5q-37 0 -98 18l-50 15q-61 19 -87 19q-50 0 -87 -64zM86 136l-31 16q45 88 125 88q42 0 98 -19l48 -16q50 -17 89 -17q51 0 85 62l31 -16
q-24 -43 -51.5 -64.5t-71.5 -21.5q-42 0 -98 18l-50 16q-58 18 -87 18q-50 0 -87 -64z" />
    <glyph glyph-name="notequal" unicode="&#x2260;" horiz-adv-x="586" 
d="M174 37h-39l79 121h-158v39h183l67 102h-250v39h275l78 120h43l-79 -120h157v-39h-183l-67 -102h250v-39h-276z" />
    <glyph glyph-name="lessequal" unicode="&#x2264;" horiz-adv-x="588" 
d="M529 0h-472v39h472v-39zM529 471l-408 -155l408 -155v-42l-473 181v32l473 180v-41z" />
    <glyph glyph-name="greaterequal" unicode="&#x2265;" horiz-adv-x="588" 
d="M529 0h-472v39h472v-39zM57 160l409 155l-409 155v42l473 -180v-32l-473 -181v41z" />
    <glyph glyph-name="uni24C5" unicode="&#x24c5;" horiz-adv-x="793" 
d="M391 308q59 2 87.5 27.5t28.5 67.5q0 88 -134 92v-321l73 -11v-23h-211v23l59 11v311l-59 11v22h158q100 1 149 -28t49 -80q0 -60 -57.5 -93.5t-142.5 -29.5v21zM49 328q0 144 101 245t245 101t245.5 -101t101.5 -245q0 -145 -101.5 -245.5t-245.5 -100.5t-245 100.5
t-101 245.5zM76 328q0 -134 93.5 -228.5t225.5 -94.5t225.5 94.5t93.5 228.5t-93.5 228.5t-225.5 94.5t-225.5 -94.5t-93.5 -228.5z" />
    <glyph glyph-name="space_uni0326" 
d="M115 -258l-7 20q93 29 93 73q0 21 -16 33.5t-42 14.5v2q9 55 65 55q33 0 51.5 -20t18.5 -52q0 -92 -163 -126z" />
    <glyph glyph-name="caron.alt" 
d="M176 528h-21l11 198h90v-5z" />
    <glyph glyph-name="space_uni0326.alt" 
d="M289 801l6 -19q-92 -30 -92 -74q0 -42 57 -47v-3q-11 -54 -64 -54q-33 0 -52 20t-19 52q0 92 164 125z" />
    <glyph glyph-name="grave.uc" 
d="M86 865h91l83 -140h-39l-135 131v9z" />
    <glyph glyph-name="dieresis.uc" 
d="M93 748q-24 0 -41 17t-17 41t17 41.5t41 17.5t41.5 -17.5t17.5 -41.5t-17.5 -41t-41.5 -17zM306 748q-24 0 -41.5 17t-17.5 41t17.5 41.5t41.5 17.5t41.5 -17.5t17.5 -41.5t-17.5 -41t-41.5 -17z" />
    <glyph glyph-name="macron.uc" 
d="M54 770v60h292v-60h-292z" />
    <glyph glyph-name="acute.uc" 
d="M218 865h95v-9l-138 -131h-39z" />
    <glyph glyph-name="circumflex.uc" 
d="M84 725h-42l118 131h82l110 -131h-45l-109 81z" />
    <glyph glyph-name="caron.uc" 
d="M313 856h43l-119 -131h-82l-109 131h44l108 -82z" />
    <glyph glyph-name="breve.uc" 
d="M197 721q-65 0 -97.5 40t-30.5 95h18q25 -75 116 -75q86 0 111 75h18q3 -54 -33 -94.5t-102 -40.5z" />
    <glyph glyph-name="dotaccent.uc" 
d="M200 742q-26 0 -45 19t-19 46q0 26 19 45t45 19t45.5 -19t19.5 -45q0 -27 -19.5 -46t-45.5 -19z" />
    <glyph glyph-name="ring.uc" 
d="M100 832q0 41 29 69.5t71 28.5q43 0 71.5 -28t28.5 -70q0 -41 -29 -69.5t-71 -28.5q-43 0 -71.5 28t-28.5 70zM136 832q0 -29 18.5 -47.5t45.5 -18.5t45.5 18.5t18.5 47.5t-18.5 47.5t-45.5 18.5t-45.5 -18.5t-18.5 -47.5z" />
    <glyph glyph-name="tilde.uc" 
d="M215 747l-36 15q-59 23 -79 18t-38 -46l-21 10l5 12q27 66 63.5 85t87.5 -3l44 -18q47 -18 67.5 -9.5t39.5 48.5l21 -10l-5 -12q-30 -72 -63.5 -92t-85.5 2z" />
    <glyph glyph-name="hungarumlaut.uc" 
d="M124 865h80v-9l-109 -131h-36zM301 865h79v-9l-108 -131h-37z" />
    <glyph glyph-name="cedilla.uc" horiz-adv-x="253" 
d="M55 -253l-6 17q90 33 90 83q0 44 -54 59l60 98h30l-34 -54q77 -18 77 -78q0 -51 -48 -81.5t-115 -43.5z" />
    <glyph glyph-name="idotaccent" horiz-adv-x="260" 
d="M24 0v22l61 20v344l-59 34v14l153 52v-444l69 -20v-22h-224zM126 607q-26 0 -45.5 19.5t-19.5 44.5t19.5 44t45.5 19q24 0 43.5 -19t19.5 -44t-19.5 -44.5t-43.5 -19.5z" />
    <glyph glyph-name="dollar.lin" horiz-adv-x="537" 
d="M49 34l-9 167h24l55 -139q40 -36 109 -41l15 270l-41 11q-157 40 -157 178q0 81 64.5 138t156.5 62l6 107h33l-6 -107q78 -3 147 -42l3 -149h-25l-53 126q-33 28 -74 33l-15 -261l57 -15q79 -21 116.5 -64.5t37.5 -100.5q0 -92 -71.5 -153.5t-161.5 -67.5l-6 -105h-34
l6 104q-95 4 -177 49zM289 280l-13 3l-14 -263q56 5 92.5 43t36.5 91q0 99 -102 126zM139 520q0 -92 97 -120l13 -4l15 252q-53 -5 -89 -41t-36 -87z" />
    <glyph glyph-name="Euro.lin" horiz-adv-x="624" 
d="M38 391l4 32h72q31 118 120 188t198 70q53 0 100 -29.5t47 -70.5q0 -21 -13.5 -33.5t-44.5 -19.5q-28 59 -62.5 87.5t-80.5 28.5q-63 0 -110 -60.5t-61 -160.5h248l-4 -32h-247q-2 -30 -2 -47q0 -30 3 -55h232l-4 -32h-222q21 -91 79 -144.5t131 -53.5q81 0 142 59
l14 -13q-82 -120 -206 -120q-106 0 -179.5 74.5t-88.5 197.5h-83l4 32h77q-1 7 -1 22q0 44 7 80h-69z" />
    <glyph glyph-name="sterling.lin" horiz-adv-x="654" 
d="M137 285v34h125l34 149q15 66 45.5 119t66 82.5t70 45t62.5 15.5q39 0 69.5 -21.5t30.5 -55.5q0 -46 -71 -60q-22 103 -68 103q-53 0 -86 -144l-53 -233h188v-34h-195q-30 -161 -172 -250q67 -25 128 -58l40 -23q85 -49 116.5 -63.5t51.5 -14.5q30 0 39 40t-6 97
q39 1 58.5 -7t19.5 -36q0 -41 -49.5 -88t-119.5 -47q-62 0 -123 30t-138 86l-74 55q-45 -19 -74 -19q-55 0 -55 38q0 17 16 29t40 12q38 0 98 -20q57 45 85 161l18 78h-117z" />
    <glyph glyph-name="yen.lin" horiz-adv-x="581" 
d="M66 272v32h161l-179 322l-52 15v23h251v-23l-78 -20l144 -291h3l161 286l-95 25v23h203v-23l-57 -21l-185 -316h168v-32h-171v-76h171v-32h-171v-121l81 -20v-23h-266v23l84 20v121h-173v32h173v76h-173z" />
    <glyph glyph-name="florin.lin" horiz-adv-x="467" 
d="M39 279l6 34h90l9 43q26 135 108 229.5t171 94.5q34 0 49.5 -15.5t15.5 -38.5q0 -33 -37 -68q-3 4 -12 15t-13.5 16t-12 13.5t-13 12.5t-12.5 9t-14 7t-14 2q-19 0 -35.5 -16t-39 -74t-42.5 -158l-15 -72h135l-6 -34h-135l-51 -256q-26 -131 -91.5 -206t-140.5 -75
q-24 0 -48 16.5t-24 42.5q0 41 39 61q40 -77 84 -77t73 152l66 342h-90z" />
    <glyph glyph-name="zero.lin" horiz-adv-x="646" 
d="M322 681q87 0 150 -50.5t91.5 -126t28.5 -164.5q0 -163 -77 -260.5t-192 -97.5q-118 0 -193.5 94.5t-75.5 246.5q0 162 77 260t191 98zM313 652q-51 0 -86.5 -45.5t-50 -109t-14.5 -136.5q0 -84 18 -161.5t59 -133t98 -55.5q48 0 82.5 45.5t49.5 111.5t15 142
q0 138 -49 240t-122 102z" />
    <glyph glyph-name="one.lin" horiz-adv-x="379" 
d="M255 681v-637l103 -16v-28h-309v28l107 15v542l-120 -17l-8 28l222 85h5z" />
    <glyph glyph-name="two.lin" horiz-adv-x="508" 
d="M197 166l-79 -80h355v-86h-443v33l128 143q4 4 38 41.5t42.5 48t33.5 43.5t34 52.5t18 49t9 56.5q0 61 -36 97t-88 36q-47 0 -82 -25t-69 -79l-21 10q24 76 78 125.5t129 49.5q80 0 133.5 -50t53.5 -124q0 -17 -3.5 -34.5t-7.5 -32.5t-15 -33.5t-17.5 -31t-24 -33.5
t-26 -31.5t-31.5 -34.5t-33 -34l-37.5 -37.5z" />
    <glyph glyph-name="three.lin" horiz-adv-x="473" 
d="M200 17q64 0 106 35.5t42 96.5q0 74 -66 118.5t-161 45.5v35q101 36 143.5 75.5t42.5 90.5q0 46 -27 71t-69 25q-80 0 -147 -82l-21 17q37 62 84 99.5t118 37.5q69 0 111.5 -38.5t42.5 -96.5q0 -59 -38.5 -98t-115.5 -81v-3q82 -11 137.5 -56t55.5 -113
q0 -94 -81.5 -152.5t-183.5 -58.5q-67 0 -107.5 27.5t-40.5 66.5q0 49 61 56q18 -50 49 -99q19 -19 65 -19z" />
    <glyph glyph-name="four.lin" horiz-adv-x="555" 
d="M393 661v-411h134v-71h-134v-137l84 -19v-23h-267v23l85 19v137h-280v24l356 466zM91 250h204v269z" />
    <glyph glyph-name="five.lin" horiz-adv-x="506" 
d="M423 570h-300l-13 -171q59 26 129 26q98 0 159 -54.5t61 -142.5q0 -110 -83.5 -177t-190.5 -67q-60 0 -104.5 26.5t-44.5 67.5q0 48 61 56q22 -66 47 -103q21 -16 60 -16q74 0 118.5 43t44.5 115q0 73 -43.5 120t-120.5 47q-66 0 -124 -33l-7 1l24 356h327v-94z" />
    <glyph glyph-name="six.lin" horiz-adv-x="562" 
d="M481 667q-264 -114 -313 -324q76 69 152 69q88 0 141.5 -56.5t53.5 -143.5q0 -90 -66.5 -161t-166.5 -71q-98 0 -164 66.5t-66 185.5q0 120 57.5 215.5t149.5 154.5t213 91zM271 361q-51 0 -109 -48q-5 -40 -5 -74q0 -111 40.5 -169t101.5 -58q51 0 82 41t31 119
q0 86 -40 137.5t-101 51.5z" />
    <glyph glyph-name="seven.lin" horiz-adv-x="469" 
d="M140 0h-68l308 567h-359v97h435v-10z" />
    <glyph glyph-name="eight.lin" horiz-adv-x="544" 
d="M49 147q0 61 40 100.5t116 81.5l-32 22q-48 34 -71 67t-23 86q0 71 62.5 124.5t153.5 53.5q76 0 129 -43.5t53 -103.5q0 -29 -11 -54.5t-34 -48t-43.5 -37.5t-54.5 -37l34 -23q44 -30 65.5 -48t39.5 -51t18 -75q0 -80 -68 -130.5t-150 -50.5q-97 0 -160.5 44.5
t-63.5 122.5zM270 284l-46 31q-81 -65 -81 -154q0 -61 38 -106t99 -45q60 0 91 33t31 80q0 26 -9 47.5t-32 43t-38.5 33.5t-52.5 37zM166 543q0 -46 21.5 -73.5t73.5 -62.5l51 -35q74 70 74 145q0 66 -33.5 100.5t-82.5 34.5q-42 0 -73 -29t-31 -80z" />
    <glyph glyph-name="nine.lin" horiz-adv-x="559" 
d="M72 0q127 45 207 124t108 185q-67 -62 -141 -62q-88 0 -143.5 57t-55.5 146q0 90 66.5 161.5t166.5 71.5q95 0 161 -70t66 -194q0 -168 -112 -282.5t-314 -162.5zM294 298q58 0 100 47q7 44 7 78q0 113 -38 170.5t-94 57.5q-55 0 -87.5 -43t-32.5 -119q0 -86 41.5 -138.5
t103.5 -52.5z" />
    <glyph glyph-name="percent.lin" horiz-adv-x="742" 
d="M104 -50l489 763h41l-490 -763h-40zM199 652q-35 0 -54.5 -37.5t-19.5 -84.5q0 -62 24 -106.5t64 -44.5q34 0 53 37t19 86q0 64 -25 107t-61 43zM202 350q-63 0 -105.5 44.5t-42.5 114.5q0 73 46 122.5t108 49.5q67 0 108 -48.5t41 -112.5q0 -73 -45 -121.5t-110 -48.5z
M521 283q-35 0 -54.5 -37.5t-19.5 -84.5q0 -62 23.5 -106.5t63.5 -44.5q34 0 53.5 37t19.5 86q0 63 -25 106.5t-61 43.5zM524 -19q-63 0 -105.5 44.5t-42.5 114.5q0 73 45 122.5t109 49.5q67 0 108 -48.5t41 -112.5q0 -72 -46.5 -121t-108.5 -49z" />
    <glyph glyph-name="perthousand.lin" horiz-adv-x="1099" 
d="M104 -50l489 763h41l-490 -763h-40zM199 652q-35 0 -54.5 -37.5t-19.5 -84.5q0 -62 24 -106.5t64 -44.5q34 0 53 37t19 86q0 64 -25 107t-61 43zM202 350q-63 0 -105.5 44.5t-42.5 114.5q0 73 46 122.5t108 49.5q67 0 108 -48.5t41 -112.5q0 -73 -45 -121.5t-110 -48.5z
M521 283q-35 0 -54.5 -37.5t-19.5 -84.5q0 -62 23.5 -106.5t63.5 -44.5q34 0 53.5 37t19.5 86q0 63 -25 106.5t-61 43.5zM524 -19q-63 0 -105.5 44.5t-42.5 114.5q0 73 45 122.5t109 49.5q67 0 108 -48.5t41 -112.5q0 -72 -46.5 -121t-108.5 -49zM878 280q-35 0 -54.5 -37.5
t-19.5 -84.5q0 -61 24 -106t63 -45q34 0 53.5 37.5t19.5 85.5q0 63 -25 106.5t-61 43.5zM881 -22q-63 0 -105.5 45t-42.5 114q0 73 45 122.5t109 49.5q67 0 108 -48.5t41 -112.5q0 -72 -46.5 -121t-108.5 -49z" />
    <glyph glyph-name="plus.lin" horiz-adv-x="586" 
d="M530 288h-215v-217h-43v217h-216v39h216v217h43v-217h215v-39z" />
    <glyph glyph-name="minus.lin" horiz-adv-x="586" 
d="M530 288h-474v39h474v-39z" />
    <glyph glyph-name="multiply.lin" horiz-adv-x="586" 
d="M480 90l-190 190l-187 -191l-29 28l189 191l-187 190l29 29l188 -189l189 194l28 -29l-190 -193l190 -191z" />
    <glyph glyph-name="divide.lin" horiz-adv-x="586" 
d="M530 288h-474v39h474v-39zM293 406q-23 0 -41.5 18.5t-18.5 43.5q0 23 18.5 41.5t41.5 18.5q25 0 43 -18t18 -42q0 -25 -18 -43.5t-43 -18.5zM292 86q-23 0 -41.5 18.5t-18.5 42.5t18.5 42.5t41.5 18.5q25 0 43 -18.5t18 -42.5t-18 -42.5t-43 -18.5z" />
    <glyph glyph-name="equal.lin" horiz-adv-x="586" 
d="M530 368h-474v39h474v-39zM530 227h-474v39h474v-39z" />
    <glyph glyph-name="less.lin" horiz-adv-x="588" 
d="M529 501l-423 -195l423 -195v-43l-472 221v34l472 220v-42z" />
    <glyph glyph-name="greater.lin" horiz-adv-x="588" 
d="M58 111l423 195l-423 194v43l472 -221v-34l-472 -220v43z" />
    <glyph glyph-name="plusminus.lin" horiz-adv-x="586" 
d="M530 397h-215v-218h-43v218h-216v39h216v217h43v-217h215v-39zM56 0v38h474v-38h-474z" />
    <glyph glyph-name="notequal.lin" horiz-adv-x="586" 
d="M119 106h-40l110 121h-133v39h169l94 102h-263v39h298l110 120h43l-111 -120h134v-39h-170l-94 -102h264v-39h-300z" />
    <glyph glyph-name="approxequal.lin" horiz-adv-x="586" 
d="M86 354l-31 16q45 88 125 88q35 0 98 -20l48 -15q53 -17 89 -17q51 0 85 62l31 -16q-24 -43 -51.5 -64.5t-71.5 -21.5q-42 0 -98 18l-50 16q-58 18 -87 18q-50 0 -87 -64zM86 205l-31 16q44 88 125 88q38 0 98 -19l48 -15q57 -18 89 -18q52 0 85 63l31 -17
q-24 -43 -51.5 -64.5t-71.5 -21.5q-33 0 -98 19l-50 15q-58 18 -87 18q-50 0 -87 -64z" />
    <glyph glyph-name="lessequal.lin" horiz-adv-x="588" 
d="M529 0h-472v38h472v-38zM529 540l-408 -155l408 -155v-41l-473 180v32l473 180v-41z" />
    <glyph glyph-name="greaterequal.lin" horiz-adv-x="588" 
d="M529 0h-472v38h472v-38zM57 230l409 155l-409 155v41l473 -180v-32l-473 -180v41z" />
    <glyph glyph-name="numbersign.lin" horiz-adv-x="591" 
d="M85 471v39h126l27 153h37l-27 -153h157l27 153h36l-27 -153h123v-39h-130l-34 -193h120v-39h-127l-30 -170h-36l30 170h-157l-30 -170h-37l30 170h-122v39h129l34 193h-119zM241 471l-34 -193h157l34 193h-157z" />
    <glyph glyph-name="ordfeminine.lin" horiz-adv-x="430" 
d="M140 288q-38 0 -69.5 26t-31.5 70q0 45 32 67.5t103 40.5l83 21v66q-2 32 -22.5 53t-53.5 21q-30 0 -45 -10l-11 -87q-12 -5 -30 -5q-44 0 -44 38q0 31 52 64t117 33q62 0 90.5 -29.5t28.5 -92.5v-206q0 -15 5.5 -20t22.5 -5h39v-20q-50 -23 -85 -23q-60 0 -62 63h-6
l-13.5 -13.5l-13.5 -13.5t-11.5 -10t-13.5 -10t-12.5 -7t-15 -6.5t-15 -3t-18.5 -1.5zM184 345q44 0 73 35v110l-69 -21q-64 -19 -64 -61q0 -29 17 -46t43 -17z" />
    <glyph glyph-name="ordmasculine.lin" horiz-adv-x="457" 
d="M218 660q-46 0 -71.5 -43.5t-25.5 -112.5q0 -78 31 -134t87 -56q44 0 70.5 43.5t26.5 113.5q0 85 -32.5 137t-85.5 52zM228 285q-91 0 -143 56.5t-52 138.5q0 86 56.5 147t138.5 61q90 0 143 -52t53 -142q0 -87 -56.5 -148t-139.5 -61z" />
    <glyph glyph-name="zero.num" 
d="M199 676q78 0 124.5 -55t46.5 -131q0 -89 -50.5 -145t-119.5 -56q-76 0 -123.5 55.5t-47.5 139.5q0 83 50.5 137.5t119.5 54.5zM193 656q-38 0 -58 -47.5t-20 -114.5q0 -70 25 -127.5t69 -57.5q36 0 55.5 49.5t19.5 120.5q0 69 -26 123t-65 54z" />
    <glyph glyph-name="one.num" horiz-adv-x="250" 
d="M169 673v-342l71 -13v-20h-221v20l75 13v286h-77v22l145 34h7z" />
    <glyph glyph-name="two.num" horiz-adv-x="318" 
d="M174 420l-75 -57h198v-65h-278v24l79 71q61 55 85.5 87.5t24.5 69.5q0 33 -22 53t-54 20q-28 0 -47 -14.5t-44 -46.5l-18 11q50 103 143 103q53 0 85.5 -27t32.5 -74t-26 -79t-84 -76z" />
    <glyph glyph-name="three.num" horiz-adv-x="300" 
d="M128 311q33 0 54.5 21t21.5 52q0 39 -35 62t-99 23v25q56 6 87.5 29.5t31.5 52.5q0 24 -16 39t-45 15q-51 0 -93 -58l-18 11q47 93 141 93q49 0 76.5 -22t27.5 -56q0 -33 -24 -54.5t-71 -39.5v-4q54 -3 83.5 -27t29.5 -64q0 -52 -48.5 -85.5t-108.5 -33.5q-55 0 -87 18.5
t-32 45.5q0 15 11.5 25t31.5 11l40 -69q14 -10 41 -10z" />
    <glyph glyph-name="four.num" horiz-adv-x="333" 
d="M247 668v-228h74v-48h-74v-63l54 -11v-20h-181v20l54 11v63h-171v25l218 257zM52 440h122v146z" />
    <glyph glyph-name="five.num" horiz-adv-x="310" 
d="M266 597h-199l-4 -85q46 19 88 19q63 0 99.5 -29.5t36.5 -77.5q0 -63 -49.5 -98.5t-112.5 -35.5q-49 0 -83.5 17t-34.5 46q0 16 12.5 26t30.5 10l41 -71q16 -8 39 -8q34 0 57.5 21.5t23.5 57.5t-24.5 58t-63.5 22q-36 0 -84 -22l-3 1l11 216h219v-67z" />
    <glyph glyph-name="six.num" horiz-adv-x="343" 
d="M301 663q-157 -54 -185 -161q41 34 90 34q55 0 87 -32t32 -81q0 -58 -44 -96.5t-99 -38.5q-68 0 -111 40.5t-43 109.5q0 71 41 125t99.5 82t128.5 36zM169 503q-33 0 -58 -25q-2 -22 -2 -34q0 -65 22 -100.5t56 -35.5q26 0 42.5 21.5t16.5 63.5q0 49 -21.5 79.5
t-55.5 30.5z" />
    <glyph glyph-name="seven.num" horiz-adv-x="284" 
d="M98 298h-62l189 294h-210v72h274v-5q-62 -110 -109.5 -200.5t-64.5 -125.5z" />
    <glyph glyph-name="eight.num" horiz-adv-x="334" 
d="M18 385q0 60 93 90q-42 21 -58 43.5t-16 55.5q0 40 38 71t96 31q59 0 93.5 -22.5t34.5 -59.5q0 -59 -86 -89l6 -2q92 -42 92 -102q0 -52 -46 -82.5t-101 -30.5q-62 0 -104 25.5t-42 71.5zM181 442l-53 25q-38 -32 -38 -74q0 -35 23 -59.5t57 -24.5q29 0 48 17.5t19 44.5
q0 44 -56 71zM104 599q0 -43 57 -69l33 -16q36 31 36 75q0 29 -19 48.5t-46 19.5q-26 0 -43.5 -16t-17.5 -42z" />
    <glyph glyph-name="nine.num" horiz-adv-x="345" 
d="M34 305q160 41 193 158q-38 -33 -85 -33q-53 0 -88 31t-35 84q0 56 43.5 94t104.5 38q64 0 107 -41.5t43 -111.5q0 -105 -78.5 -166.5t-200.5 -70.5zM177 463q32 0 55 25q3 15 3 32q0 67 -22.5 102t-55.5 35q-27 0 -43 -22t-16 -59q0 -50 22 -81.5t57 -31.5z" />
    <glyph glyph-name="zero.den" 
d="M199 378q78 0 124.5 -55.5t46.5 -131.5q0 -89 -50.5 -144.5t-119.5 -55.5q-76 0 -123.5 55t-47.5 139q0 83 50.5 138t119.5 55zM193 358q-38 0 -58 -48t-20 -115q0 -69 25 -126.5t69 -57.5q36 0 55.5 49t19.5 121q0 69 -26 123t-65 54z" />
    <glyph glyph-name="one.den" horiz-adv-x="250" 
d="M169 374v-341l71 -13v-20h-221v20l75 13v286h-77v22l145 33h7z" />
    <glyph glyph-name="two.den" horiz-adv-x="318" 
d="M174 122l-76 -58h199v-64h-278v24l79 71q61 54 85.5 87t24.5 70q0 33 -22 53t-54 20q-28 0 -47 -14.5t-44 -46.5l-18 10q49 104 143 104q52 0 85 -27.5t33 -73.5q0 -47 -26 -79t-84 -76z" />
    <glyph glyph-name="three.den" horiz-adv-x="300" 
d="M128 12q33 0 54.5 21.5t21.5 51.5q0 40 -35 63t-99 23v24q56 7 87.5 30.5t31.5 51.5q0 25 -16 40t-45 15q-51 0 -93 -59l-18 11q46 94 141 94q49 0 76.5 -22t27.5 -56q0 -33 -24 -55t-71 -40v-4q54 -2 83.5 -26t29.5 -64q0 -52 -48.5 -85.5t-108.5 -33.5q-55 0 -87 18.5
t-32 44.5q0 34 43 37l40 -69q13 -11 41 -11z" />
    <glyph glyph-name="four.den" horiz-adv-x="333" 
d="M247 369v-227h74v-49h-74v-62l54 -11v-20h-181v20l54 10v63h-171v26l218 257zM52 142h122v146z" />
    <glyph glyph-name="five.den" horiz-adv-x="310" 
d="M266 299h-199l-4 -85q46 19 88 19q63 0 99.5 -29.5t36.5 -78.5q0 -63 -49.5 -98t-112.5 -35q-49 0 -83.5 17t-34.5 46q0 15 12.5 25t30.5 10l41 -70q16 -8 39 -8q34 0 57.5 21.5t23.5 57.5t-24.5 57.5t-63.5 21.5q-40 0 -84 -22l-3 1l11 217h219v-67z" />
    <glyph glyph-name="six.den" horiz-adv-x="343" 
d="M301 365q-157 -55 -185 -161q41 34 90 34q55 0 87 -32t32 -81q0 -58 -44 -97t-99 -39q-68 0 -111 41t-43 110q0 71 41 125t99.5 82t128.5 36zM169 205q-33 0 -58 -25q-2 -22 -2 -35q0 -64 22 -99.5t56 -35.5q26 0 42.5 21t16.5 63q0 50 -21.5 80.5t-55.5 30.5z" />
    <glyph glyph-name="seven.den" horiz-adv-x="284" 
d="M98 0h-62l189 294h-210v72h274v-6q-62 -110 -109.5 -200t-64.5 -125z" />
    <glyph glyph-name="eight.den" horiz-adv-x="334" 
d="M18 86q0 62 93 91q-41 21 -57.5 44t-16.5 55q0 40 38 71t96 31q59 0 93.5 -23t34.5 -59q0 -59 -86 -89l6 -2q92 -42 92 -102q0 -52 -46 -82.5t-101 -30.5q-62 0 -104 25.5t-42 70.5zM181 143l-52 25q-39 -30 -39 -73q0 -35 23 -60t57 -25q29 0 48 17.5t19 45.5
q0 45 -56 70zM104 301q0 -43 57 -70l33 -15q36 29 36 74q0 30 -19 49t-46 19q-26 0 -43.5 -15.5t-17.5 -41.5z" />
    <glyph glyph-name="nine.den" horiz-adv-x="345" 
d="M34 6q159 41 193 159q-40 -33 -85 -33q-53 0 -88 31t-35 84q0 56 43.5 94t104.5 38q64 0 107 -41.5t43 -112.5q0 -105 -78.5 -166.5t-200.5 -69.5zM177 164q33 0 55 26q3 15 3 32q0 67 -22.5 101.5t-55.5 34.5q-27 0 -43 -21.5t-16 -58.5q0 -50 22 -82t57 -32z" />
    <glyph glyph-name="zero.sub" 
d="M199 328q78 0 124.5 -55.5t46.5 -131.5q0 -89 -50.5 -144.5t-119.5 -55.5q-76 0 -123.5 55t-47.5 139q0 83 50.5 138t119.5 55zM193 308q-38 0 -58 -48t-20 -115q0 -69 25 -126.5t69 -57.5q36 0 55.5 49t19.5 121q0 69 -26 123t-65 54z" />
    <glyph glyph-name="one.sub" horiz-adv-x="250" 
d="M169 324v-341l71 -13v-20h-221v20l75 13v286h-77v22l145 33h7z" />
    <glyph glyph-name="two.sub" horiz-adv-x="318" 
d="M174 72l-76 -58h199v-64h-278v24l79 71q61 54 85.5 87t24.5 70q0 33 -22 53t-54 20q-28 0 -47 -14.5t-44 -46.5l-18 10q49 104 143 104q52 0 85 -27.5t33 -73.5q0 -47 -26 -79t-84 -76z" />
    <glyph glyph-name="three.sub" horiz-adv-x="300" 
d="M128 -38q33 0 54.5 21.5t21.5 51.5q0 40 -35 63t-99 23v24q56 7 87.5 30.5t31.5 51.5q0 25 -16 40t-45 15q-51 0 -93 -59l-18 11q46 94 141 94q49 0 76.5 -22t27.5 -56q0 -33 -24 -55t-71 -40v-4q54 -2 83.5 -26t29.5 -64q0 -52 -48.5 -85.5t-108.5 -33.5q-55 0 -87 18.5
t-32 44.5q0 34 43 37l40 -69q13 -11 41 -11z" />
    <glyph glyph-name="four.sub" horiz-adv-x="333" 
d="M247 319v-227h74v-49h-74v-62l54 -11v-20h-181v20l54 10v63h-171v26l218 257zM52 92h122v146z" />
    <glyph glyph-name="five.sub" horiz-adv-x="310" 
d="M266 249h-199l-4 -85q46 19 88 19q63 0 99.5 -29.5t36.5 -78.5q0 -63 -49.5 -98t-112.5 -35q-49 0 -83.5 17t-34.5 46q0 15 12.5 25t30.5 10l41 -70q16 -8 39 -8q34 0 57.5 21.5t23.5 57.5t-24.5 57.5t-63.5 21.5q-40 0 -84 -22l-3 1l11 217h219v-67z" />
    <glyph glyph-name="six.sub" horiz-adv-x="343" 
d="M301 315q-157 -55 -185 -161q41 34 90 34q55 0 87 -32t32 -81q0 -58 -44 -97t-99 -39q-68 0 -111 41t-43 110q0 71 41 125t99.5 82t128.5 36zM169 155q-33 0 -58 -25q-2 -22 -2 -35q0 -64 22 -99.5t56 -35.5q26 0 42.5 21t16.5 63q0 50 -21.5 80.5t-55.5 30.5z" />
    <glyph glyph-name="seven.sub" horiz-adv-x="284" 
d="M98 -50h-62l189 294h-210v72h274v-6q-62 -110 -109.5 -200t-64.5 -125z" />
    <glyph glyph-name="eight.sub" horiz-adv-x="334" 
d="M18 36q0 62 93 91q-41 21 -57.5 44t-16.5 55q0 40 38 71t96 31q59 0 93.5 -23t34.5 -59q0 -59 -86 -89l6 -2q92 -42 92 -102q0 -52 -46 -82.5t-101 -30.5q-62 0 -104 25.5t-42 70.5zM181 93l-52 25q-39 -30 -39 -73q0 -35 23 -60t57 -25q29 0 48 17.5t19 45.5
q0 45 -56 70zM104 251q0 -43 57 -70l33 -15q36 29 36 74q0 30 -19 49t-46 19q-26 0 -43.5 -15.5t-17.5 -41.5z" />
    <glyph glyph-name="nine.sub" horiz-adv-x="345" 
d="M34 -44q159 43 193 159q-40 -33 -85 -33q-53 0 -88 31t-35 84q0 56 43.5 94t104.5 38q64 0 107 -41.5t43 -112.5q0 -105 -78.5 -166.5t-200.5 -69.5zM177 114q33 0 55 26q3 15 3 32q0 67 -22.5 101.5t-55.5 34.5q-27 0 -43 -21.5t-16 -58.5q0 -50 22 -82t57 -32z" />
    <glyph glyph-name="plus.sub" horiz-adv-x="347" 
d="M316 105h-126v-115h-34v115h-125v31h125v115h34v-115h126v-31z" />
    <glyph glyph-name="minus.sub" horiz-adv-x="347" 
d="M316 105h-285v31h285v-31z" />
    <glyph glyph-name="zero.sup" 
d="M199 758q78 0 124.5 -55t46.5 -131q0 -89 -50.5 -144.5t-119.5 -55.5q-76 0 -123.5 55t-47.5 139q0 83 50.5 137.5t119.5 54.5zM193 739q-38 0 -58 -48t-20 -115q0 -69 25 -127t69 -58q36 0 55.5 49.5t19.5 120.5q0 70 -26 124t-65 54z" />
    <glyph glyph-name="one.sup" horiz-adv-x="250" 
d="M169 755v-342l71 -12v-20h-221v20l75 12v287h-77v21l145 34h7z" />
    <glyph glyph-name="two.sup" horiz-adv-x="318" 
d="M174 502l-75 -57h198v-64h-278v23l79 71q61 55 85.5 88t24.5 69q0 33 -22 53t-54 20q-28 0 -47 -14.5t-44 -46.5l-18 11q49 104 143 104q52 0 85 -27.5t33 -73.5q0 -33 -16.5 -62t-35 -46t-58.5 -48z" />
    <glyph glyph-name="three.sup" horiz-adv-x="300" 
d="M128 393q33 0 54.5 21t21.5 52q0 40 -35 63t-99 23v24q56 6 87.5 30t31.5 52q0 24 -16 39t-45 15q-51 0 -93 -58l-18 11q46 94 141 94q49 0 76.5 -22t27.5 -56t-24 -55.5t-71 -39.5v-4q54 -2 83.5 -26t29.5 -64q0 -53 -48.5 -86.5t-108.5 -33.5q-55 0 -87 19t-32 45
q0 15 11.5 25.5t31.5 11.5l40 -70q14 -10 41 -10z" />
    <glyph glyph-name="four.sup" horiz-adv-x="333" 
d="M247 750v-228h74v-48h-74v-63l54 -11v-19h-181v19l54 11v63h-171v25l218 257zM51 522h123v147z" />
    <glyph glyph-name="five.sup" horiz-adv-x="310" 
d="M266 679h-199l-4 -84q43 18 88 18q63 0 99.5 -29.5t36.5 -77.5q0 -63 -49.5 -98.5t-112.5 -35.5q-49 0 -83.5 17.5t-34.5 45.5q0 16 12.5 26t30.5 10l41 -70q16 -8 39 -8q34 0 57.5 21t23.5 57t-24.5 58t-63.5 22q-36 0 -84 -22l-3 1l11 216h219v-67z" />
    <glyph glyph-name="six.sup" horiz-adv-x="343" 
d="M301 745q-157 -55 -185 -160q41 33 90 33q55 0 87 -31.5t32 -81.5q0 -58 -44 -96.5t-99 -38.5q-68 0 -111 41t-43 110q0 104 79.5 166.5t189.5 75.5zM169 585q-33 0 -58 -25q-2 -22 -2 -34q0 -65 22 -100.5t56 -35.5q26 0 42.5 21.5t16.5 63.5q0 49 -21.5 79.5
t-55.5 30.5z" />
    <glyph glyph-name="seven.sup" horiz-adv-x="284" 
d="M98 381h-62l189 293h-210v72h274v-5q-62 -110 -109.5 -200t-64.5 -125z" />
    <glyph glyph-name="eight.sup" horiz-adv-x="334" 
d="M18 467q0 62 93 90q-42 21 -58 43.5t-16 55.5q0 40 38 71.5t96 31.5q59 0 93.5 -23t34.5 -60q0 -59 -86 -89l6 -2q92 -40 92 -102q0 -52 -46 -82.5t-101 -30.5q-62 0 -104 25.5t-42 71.5zM181 524l-53 25q-38 -32 -38 -73q0 -35 23 -60t57 -25q29 0 48 17.5t19 44.5
q0 44 -56 71zM104 682q0 -43 57 -70l33 -16q36 31 36 75q0 30 -19 49t-46 19q-26 0 -43.5 -15.5t-17.5 -41.5z" />
    <glyph glyph-name="nine.sup" horiz-adv-x="345" 
d="M34 387q158 40 193 158q-40 -33 -85 -33q-53 0 -88 31.5t-35 83.5q0 56 43.5 94.5t104.5 38.5q64 0 107 -41.5t43 -112.5q0 -105 -78.5 -166.5t-200.5 -70.5zM177 545q33 0 55 26q3 15 3 32q0 66 -22.5 101t-55.5 35q-27 0 -43 -22t-16 -59q0 -50 22 -81.5t57 -31.5z" />
    <glyph glyph-name="plus.sup" horiz-adv-x="347" 
d="M316 536h-126v-115h-34v115h-125v31h125v115h34v-115h126v-31z" />
    <glyph glyph-name="minus.sup" horiz-adv-x="347" 
d="M316 536h-285v31h285v-31z" />
    <glyph glyph-name="bullet.alt" horiz-adv-x="340" 
d="M184 728q21 0 38 -14t17 -33q0 -31 -57 -94h-7q0 1 -9 14t-16 24.5t-13.5 26.5t-6.5 25q0 21 15.5 36t38.5 15zM24 576q0 26 17 40t38 14q10 0 18.5 -1.5t16.5 -7t13 -8t13.5 -12.5t11 -12.5t12 -15.5t10.5 -15h8l9 9q22 22 31.5 30t22.5 14t29 6q24 0 38.5 -17t14.5 -41
q0 -27 -17 -45t-43 -18q-7 0 -13 1t-13.5 4.5t-12 5.5t-13 8.5t-11 9t-12.5 11t-12 9.5h-3q-18 -20 -18 -42q0 -6 1 -11t3.5 -10t4 -8.5t6.5 -8.5l7.5 -7.5t10 -7.5t10.5 -6.5t12 -7.5l12 -8q23 -15 34.5 -23.5t22.5 -24.5t11 -33q0 -27 -18.5 -45t-50.5 -14q-7 -28 -41 -28
q-31 0 -60 43q0 1 -9 15.5t-13 19.5t-14 11.5t-21 6.5q-19 0 -29.5 -12.5t-10.5 -30.5h-10q-10 37 8 61t49 24q24 0 43 -17t33.5 -33.5t28.5 -16.5q28 0 28 27q0 20 -20.5 37.5t-41 37.5t-20.5 46q0 33 35 68l-3 2q-50 -24 -79 -24q-25 0 -39.5 14t-14.5 37z" />
    <glyph glyph-name="f.short" horiz-adv-x="315" 
d="M29 0v22l60 20v384h-72v28l73 22l1 37q2 99 55 166.5t127 67.5q39 0 70.5 -21.5t31.5 -50.5q0 -30 -22.5 -43t-55.5 -9l-23 91q-9 3 -18 3q-37 0 -57 -35.5t-19 -89.5l2 -119h132v-41h-131v-390l74 -20v-22h-228z" />
    <glyph glyph-name="f_f.short" horiz-adv-x="603" 
d="M317 0v22l59 20v390h-193v-390l72 -20v-22h-226v22l60 20v384h-72v28l73 21q14 111 82.5 178t150.5 67q66 0 111 -41q52 68 127 68q39 0 70.5 -21.5t31.5 -50.5q0 -30 -23 -43t-56 -9l-23 91q-8 3 -17 3q-37 0 -57 -35.5t-19 -89.5l1 -119h132v-41h-131v-390l75 -20v-22
h-228zM183 494v-21h193q0 83 21 137q-34 75 -105 75q-47 0 -78 -45t-31 -146z" />
    <glyph glyph-name="i.ger" horiz-adv-x="260" 
d="M24 0v22l61 21v343l-59 34v14l153 52v-444l69 -20v-22h-224zM126 575q-26 0 -45.5 19.5t-19.5 44.5t19.5 44t45.5 19q24 0 43.5 -19t19.5 -44t-19.5 -44.5t-43.5 -19.5z" />
    <glyph glyph-name="j.ger" horiz-adv-x="255" 
d="M-8 -248l-5 17q59 33 77.5 81.5t20.5 163.5v372l-58 34v14l151 52v-454q0 -135 -35 -183q-50 -64 -151 -97zM127 575q-26 0 -45.5 19.5t-19.5 44.5t19.5 44t45.5 19q24 0 43.5 -19t19.5 -44t-19.5 -44.5t-43.5 -19.5z" />
    <glyph glyph-name="adieresis.ger" horiz-adv-x="470" 
d="M156 -15q-48 0 -84.5 30.5t-36.5 87.5t40 90t123 54l99 25v57q0 56 -25.5 88.5t-66.5 32.5q-40 0 -64 -20l-5 -102q-18 -5 -41 -5q-22 0 -35.5 11.5t-13.5 30.5q0 40 61 80.5t139 40.5q76 0 110.5 -35.5t34.5 -109.5v-275q0 -17 6.5 -23t24.5 -6h50v-16q-59 -33 -98 -33
q-72 0 -75 79h-4q-23 -27 -39 -42t-42.5 -27.5t-57.5 -12.5zM207 49q50 0 90 53v144l-98 -33q-68 -22 -68 -81q0 -35 19.5 -59t56.5 -24zM325 580q-24 0 -41.5 17t-17.5 41t17.5 41.5t41.5 17.5t42 -17.5t18 -41.5t-18 -41t-42 -17zM138 580q-25 0 -42 17t-17 41t17 41.5
t42 17.5q24 0 41.5 -17.5t17.5 -41.5t-17.5 -41t-41.5 -17z" />
    <glyph glyph-name="odieresis.ger" horiz-adv-x="549" 
d="M181 580q-25 0 -42 17t-17 41t17 41.5t42 17.5q24 0 41.5 -17.5t17.5 -41.5t-17.5 -41t-41.5 -17zM368 580q-24 0 -41.5 17t-17.5 41t17.5 41.5t41.5 17.5t42 -17.5t18 -41.5t-18 -41t-42 -17zM259 455q-62 0 -92 -53t-30 -134q0 -62 16 -117.5t52 -94t85 -38.5
q55 0 88.5 53t33.5 135q0 114 -43.5 181.5t-109.5 67.5zM275 -16q-110 0 -175.5 71t-65.5 170q0 108 70.5 185.5t170.5 77.5q108 0 174 -65.5t66 -173.5q0 -110 -70 -187.5t-170 -77.5z" />
    <glyph glyph-name="udieresis.ger" horiz-adv-x="556" 
d="M387 -15l-10 89q-73 -91 -159 -91q-68 0 -104 42.5t-36 116.5v272l-63 24v17l157 25v-318q0 -111 96 -111q57 0 108 45v318l-73 22v18l166 26v-426l71 -25v-18zM368 580q-24 0 -41.5 17t-17.5 41t17.5 41.5t41.5 17.5t42 -17.5t18 -41.5t-18 -41t-42 -17zM181 580
q-25 0 -42 17t-17 41t17 41.5t42 17.5q24 0 41.5 -17.5t17.5 -41.5t-17.5 -41t-41.5 -17z" />
    <glyph glyph-name="questiondown.uc" horiz-adv-x="360" 
d="M291 84v-106l-31 7q-82 17 -157 85.5t-75 157.5q0 92 104 131l84 29l-4 94h36l24 -166l-123 -41q-86 -28 -86 -72q0 -39 52 -72t137 -42zM230 684q26 0 46 -20t20 -47q0 -26 -20 -46t-46 -20q-27 0 -47 20t-20 46q0 28 20 47.5t47 19.5z" />
    <glyph glyph-name="exclamdown.uc" horiz-adv-x="270" 
d="M187 -21h-106l41 503h25zM135 684q27 0 46.5 -20t19.5 -47q0 -26 -20 -46t-46 -20q-27 0 -47 20t-20 46q0 28 20 47.5t47 19.5z" />
    <glyph glyph-name="hyphen.uc" horiz-adv-x="373" 
d="M54 293v64h264v-64h-264z" />
    <glyph glyph-name="endash.uc" horiz-adv-x="488" 
d="M44 306v38h400v-38h-400z" />
    <glyph glyph-name="emdash.uc" horiz-adv-x="888" 
d="M44 306v38h800v-38h-800z" />
    <glyph glyph-name="guilsinglleft.uc" horiz-adv-x="302" 
d="M216 444l17 -16l-113 -167l112 -162l-16 -15l-166 170v14z" />
    <glyph glyph-name="guilsinglright.uc" horiz-adv-x="302" 
d="M85 84l-16 16l113 167l-112 162l15 15l167 -170v-14z" />
    <glyph glyph-name="guillemotleft.uc" horiz-adv-x="464" 
d="M216 444l17 -16l-113 -167l112 -162l-16 -15l-166 170v14zM379 444l17 -16l-113 -167l112 -162l-16 -15l-166 170v14z" />
    <glyph glyph-name="guillemotright.uc" horiz-adv-x="464" 
d="M248 84l-16 16l113 167l-112 162l15 15l167 -170v-14zM85 84l-16 16l113 167l-112 162l15 15l167 -170v-14z" />
    <glyph glyph-name="parenleft.uc" horiz-adv-x="345" 
d="M331 -140h-38q-194 201 -194 453q0 253 199 459h37q-81 -111 -119.5 -216.5t-38.5 -242.5q0 -132 37.5 -238t116.5 -215z" />
    <glyph glyph-name="parenright.uc" horiz-adv-x="345" 
d="M13 772h37q195 -202 195 -453q0 -253 -199 -459h-37q81 111 119.5 216.5t38.5 242.5q0 132 -37.5 238t-116.5 215z" />
    <glyph glyph-name="bracketleft.uc" horiz-adv-x="296" 
d="M295 -141h-186v914h186v-30h-100v-854h100v-30z" />
    <glyph glyph-name="bracketright.uc" horiz-adv-x="296" 
d="M1 773h186v-914h-186v30h100v854h-100v30z" />
    <glyph glyph-name="braceleft.uc" horiz-adv-x="338" 
d="M107 317v-2q63 -10 89.5 -34t26.5 -82v-190q0 -73 22 -101.5t78 -28.5v-20h-15q-103 -1 -139.5 42t-27.5 133l17 175q8 84 -74 88l-29 1v36l29 1q82 4 74 88l-17 175q-9 90 27.5 133t139.5 42h15v-20q-56 0 -78 -29t-22 -102v-189q0 -58 -26.5 -82t-89.5 -34z" />
    <glyph glyph-name="braceright.uc" horiz-adv-x="338" 
d="M231 315v2q-63 10 -89.5 34t-26.5 82v190q0 73 -22 101.5t-78 28.5v20h15q103 1 139.5 -42t27.5 -133l-17 -175q-8 -84 74 -88l29 -1v-36l-29 -1q-82 -4 -74 -88l17 -175q9 -90 -27.5 -133t-139.5 -42h-15v20q56 0 78 29t22 102v189q0 58 26.5 82t89.5 34z" />
    <glyph glyph-name="slash.uc" horiz-adv-x="423" 
d="M9 -169l-33 15l407 943l33 -16z" />
    <glyph glyph-name="backslash.uc" horiz-adv-x="423" 
d="M446 -154l-33 -15l-407 942l33 16z" />
    <glyph glyph-name="bar.uc" horiz-adv-x="221" 
d="M128 -164h-35v937h35v-937z" />
    <glyph glyph-name="at.uc" horiz-adv-x="936" 
d="M508 218l12 40h-2l-42 -60q-84 -120 -157 -120q-38 0 -57.5 25.5t-19.5 66.5q0 84 54 169.5t126.5 137t129.5 51.5q33 0 64 -24l11 37h64l-99 -329q-31 -105 38 -105q26 0 58 16.5t63.5 47.5t52.5 86.5t21 123.5q1 129 -88 218.5t-223 89.5q-72 0 -142 -31t-124.5 -84.5
t-88 -132t-33.5 -167.5q-1 -170 98 -263.5t252 -93.5q72 0 144 27v-16q-5 -3 -25.5 -11t-66 -17.5t-91.5 -9.5q-75 0 -141.5 20t-122.5 60.5t-88.5 110.5t-32.5 162q0 128 71.5 239t182.5 173.5t228 62.5q163 0 258 -93t95 -230q0 -70 -29 -132t-73 -101.5t-93.5 -62
t-92.5 -22.5q-60 0 -86 36t-5 105zM372 145q39 0 103.5 89.5t88.5 163.5l19 60q-30 38 -59 38q-40 0 -84 -47t-73 -118.5t-29 -136.5q0 -49 34 -49z" />
    <glyph glyph-name="Q.cap" horiz-adv-x="775" 
d="M389 681q79 0 146 -29t109 -77t65.5 -106t23.5 -119q0 -137 -75 -232t-190 -122q130 -100 221.5 -138.5t200.5 -38.5q138 0 245 74l15 -18q-135 -118 -309 -118q-132 0 -228 44t-303 195q-112 27 -187.5 118t-75.5 219q0 153 101.5 250.5t240.5 97.5zM405 16
q72 0 121.5 44t71 110t21.5 146q0 133 -70.5 233.5t-172.5 100.5q-106 0 -161 -84.5t-55 -209.5q0 -60 15.5 -118.5t44.5 -109t77.5 -81.5t107.5 -31z" />
    <glyph glyph-name="Q.short" horiz-adv-x="775" 
d="M389 681q79 0 146 -29t109 -77t65.5 -106t23.5 -119q0 -144 -81.5 -241t-202.5 -118q91 -76 136 -103.5t98 -27.5q48 0 88 19l11 -14q-66 -57 -144 -57q-21 0 -40.5 2t-40 9.5t-34.5 12.5t-36 19.5t-32.5 21t-36 27.5t-33.5 28t-38.5 34t-38.5 34q-111 28 -186 118.5
t-75 218.5q0 153 101.5 250.5t240.5 97.5zM405 16q72 0 121.5 44t71 110t21.5 146q0 133 -70.5 233.5t-172.5 100.5q-106 0 -161 -84.5t-55 -209.5q0 -60 15.5 -118.5t44.5 -109t77.5 -81.5t107.5 -31z" />
    <glyph glyph-name="space.uc" horiz-adv-x="191" 
 />
    </font>
</defs>
</svg>
